Arima Greek-Bold.ufo
<glyph name="exclam" format="1">
  <advance width="332"/>
  <unicode hex="0021"/>
  <outline>
    <contour>
      <point x="86" y="718" type="curve"/>
      <point x="123" y="202" type="line"/>
      <point x="216" y="202" type="line"/>
      <point x="246" y="718" type="line"/>
      <point x="193" y="735"/>
      <point x="139" y="736"/>
    </contour>
    <component base="period" xOffset="7"/>
  </outline>
</glyph>
<glyph name="parenleft" format="1">
  <advance width="453"/>
  <unicode hex="0028"/>
  <outline>
    <contour>
      <point x="371" y="-173" type="curve"/>
      <point x="405" y="-173"/>
      <point x="414" y="-154"/>
      <point x="414" y="-147" type="curve"/>
      <point x="296" y="-43"/>
      <point x="251" y="98"/>
      <point x="249" y="286" type="curve"/>
      <point x="248" y="477"/>
      <point x="288" y="606"/>
      <point x="414" y="720" type="curve"/>
      <point x="414" y="726"/>
      <point x="405" y="746"/>
      <point x="371" y="746" type="curve"/>
      <point x="285" y="746"/>
      <point x="104" y="612"/>
      <point x="104" y="285" type="curve"/>
      <point x="104" y="-41"/>
      <point x="283" y="-173"/>
    </contour>
  </outline>
</glyph>
<glyph name="slash" format="1">
  <advance width="505"/>
  <unicode hex="002F"/>
  <outline>
    <contour>
      <point x="327" y="733" type="line"/>
      <point x="2" y="-142" type="line"/>
      <point x="139" y="-142" type="line"/>
      <point x="465" y="733" type="line"/>
    </contour>
  </outline>
</glyph>
<glyph name="one" format="1">
  <advance width="461"/>
  <unicode hex="0031"/>
  <outline>
    <contour>
      <point x="298" y="-15" type="curve"/>
      <point x="337" y="-15"/>
      <point x="365" y="5"/>
      <point x="376" y="16" type="curve"/>
      <point x="359" y="60"/>
      <point x="356" y="108"/>
      <point x="356" y="146" type="curve"/>
      <point x="356" y="636" type="line" smooth="yes"/>
      <point x="356" y="680"/>
      <point x="323" y="706"/>
      <point x="278" y="706" type="curve"/>
      <point x="256" y="706"/>
      <point x="237" y="700"/>
      <point x="224" y="692" type="curve"/>
      <point x="199" y="676"/>
      <point x="34" y="563"/>
      <point x="27" y="561" type="curve"/>
      <point x="27" y="553"/>
      <point x="20" y="475"/>
      <point x="85" y="475" type="curve"/>
      <point x="120" y="475"/>
      <point x="184" y="544"/>
      <point x="218" y="590" type="curve"/>
      <point x="220" y="576"/>
      <point x="221" y="563"/>
      <point x="221" y="545" type="curve"/>
      <point x="221" y="56" type="line" smooth="yes"/>
      <point x="221" y="12"/>
      <point x="254" y="-15"/>
    </contour>
  </outline>
</glyph>
<glyph name="two" format="1">
  <advance width="563"/>
  <unicode hex="0032"/>
  <outline>
    <contour>
      <point x="56" y="0" type="curve"/>
      <point x="502" y="0" type="line" smooth="yes"/>
      <point x="546" y="1"/>
      <point x="545" y="121"/>
      <point x="510" y="146" type="curve"/>
      <point x="450" y="110"/>
      <point x="228" y="71"/>
      <point x="132" y="68" type="curve"/>
      <point x="206" y="105"/>
      <point x="511" y="267"/>
      <point x="511" y="517" type="curve"/>
      <point x="511" y="651"/>
      <point x="409" y="712"/>
      <point x="276" y="712" type="curve"/>
      <point x="134" y="712"/>
      <point x="45" y="647"/>
      <point x="45" y="572" type="curve"/>
      <point x="45" y="536"/>
      <point x="64" y="483"/>
      <point x="159" y="483" type="curve"/>
      <point x="159" y="559"/>
      <point x="175" y="668"/>
      <point x="266" y="668" type="curve"/>
      <point x="337" y="668"/>
      <point x="364" y="598"/>
      <point x="364" y="527" type="curve"/>
      <point x="364" y="304"/>
      <point x="90" y="133"/>
      <point x="39" y="73" type="curve"/>
      <point x="29" y="42"/>
      <point x="41" y="13"/>
    </contour>
  </outline>
</glyph>
<glyph name="five" format="1">
  <advance width="572"/>
  <unicode hex="0035"/>
  <outline>
    <contour>
      <point x="277" y="-12" type="curve"/>
      <point x="400" y="-12"/>
      <point x="535" y="47"/>
      <point x="535" y="217" type="curve"/>
      <point x="535" y="346"/>
      <point x="447" y="424"/>
      <point x="298" y="424" type="curve"/>
      <point x="264" y="424"/>
      <point x="227" y="420"/>
      <point x="187" y="414" type="curve"/>
      <point x="196" y="594" type="line"/>
      <point x="277" y="585"/>
      <point x="371" y="585"/>
      <point x="448" y="585" type="curve"/>
      <point x="487" y="600"/>
      <point x="507" y="675"/>
      <point x="488" y="710" type="curve"/>
      <point x="405" y="698"/>
      <point x="321" y="697"/>
      <point x="156" y="697" type="curve"/>
      <point x="123" y="697"/>
      <point x="98" y="674"/>
      <point x="97" y="642" type="curve"/>
      <point x="85" y="376" type="line"/>
      <point x="85" y="361"/>
      <point x="94" y="350"/>
      <point x="112" y="350" type="curve"/>
      <point x="128" y="351"/>
      <point x="182" y="364"/>
      <point x="243" y="364" type="curve"/>
      <point x="338" y="364"/>
      <point x="381" y="290"/>
      <point x="381" y="208" type="curve"/>
      <point x="381" y="115"/>
      <point x="348" y="44"/>
      <point x="267" y="44" type="curve"/>
      <point x="172" y="44"/>
      <point x="149" y="149"/>
      <point x="149" y="218" type="curve"/>
      <point x="88" y="225"/>
      <point x="52" y="193"/>
      <point x="52" y="143" type="curve"/>
      <point x="52" y="76"/>
      <point x="124" y="-12"/>
    </contour>
  </outline>
</glyph>
<glyph name="seven" format="1">
  <advance width="513"/>
  <unicode hex="0037"/>
  <outline>
    <contour>
      <point x="280" y="0" type="curve"/>
      <point x="280" y="145"/>
      <point x="350" y="451"/>
      <point x="460" y="599" type="curve"/>
      <point x="483" y="630"/>
      <point x="482" y="676"/>
      <point x="474" y="698" type="curve"/>
      <point x="234" y="698" type="line" smooth="yes"/>
      <point x="169" y="698"/>
      <point x="106" y="700"/>
      <point x="38" y="706" type="curve"/>
      <point x="23" y="677"/>
      <point x="30" y="603"/>
      <point x="51" y="582" type="curve"/>
      <point x="172" y="582"/>
      <point x="283" y="578"/>
      <point x="396" y="605" type="curve"/>
      <point x="378" y="617" type="line"/>
      <point x="255" y="521"/>
      <point x="159" y="167"/>
      <point x="143" y="2" type="curve"/>
      <point x="188" y="-9"/>
      <point x="235" y="-9"/>
    </contour>
  </outline>
</glyph>
<glyph name="eight" format="1">
  <advance width="626"/>
  <unicode hex="0038"/>
  <outline>
    <contour>
      <point x="315" y="-14" type="curve"/>
      <point x="515" y="-14"/>
      <point x="580" y="82"/>
      <point x="580" y="163" type="curve"/>
      <point x="580" y="286"/>
      <point x="424" y="361"/>
      <point x="342" y="399" type="curve"/>
      <point x="287" y="425"/>
      <point x="228" y="463"/>
      <point x="228" y="556" type="curve"/>
      <point x="228" y="622"/>
      <point x="264" y="665"/>
      <point x="315" y="665" type="curve"/>
      <point x="367" y="665"/>
      <point x="403" y="623"/>
      <point x="404" y="548" type="curve"/>
      <point x="404" y="501"/>
      <point x="400" y="436"/>
      <point x="337" y="396" type="curve"/>
      <point x="366" y="379" type="line"/>
      <point x="480" y="386"/>
      <point x="547" y="471"/>
      <point x="547" y="548" type="curve"/>
      <point x="547" y="627"/>
      <point x="476" y="712"/>
      <point x="311" y="712" type="curve"/>
      <point x="143" y="712"/>
      <point x="85" y="623"/>
      <point x="85" y="544" type="curve"/>
      <point x="85" y="434"/>
      <point x="185" y="373"/>
      <point x="262" y="329" type="curve"/>
      <point x="360" y="277"/>
      <point x="429" y="234"/>
      <point x="429" y="148" type="curve"/>
      <point x="429" y="84"/>
      <point x="388" y="31"/>
      <point x="319" y="31" type="curve"/>
      <point x="260" y="31"/>
      <point x="204" y="68"/>
      <point x="204" y="172" type="curve"/>
      <point x="204" y="267"/>
      <point x="256" y="318"/>
      <point x="288" y="339" type="curve"/>
      <point x="262" y="352" type="line"/>
      <point x="134" y="348"/>
      <point x="53" y="255"/>
      <point x="53" y="162" type="curve"/>
      <point x="53" y="83"/>
      <point x="113" y="-14"/>
    </contour>
  </outline>
</glyph>
<glyph name="less" format="1">
  <advance width="498"/>
  <unicode hex="003C"/>
  <outline>
    <contour>
      <point x="45" y="340" type="curve"/>
      <point x="403" y="163" type="line"/>
      <point x="434" y="148"/>
      <point x="455" y="179"/>
      <point x="440" y="229" type="curve"/>
      <point x="156" y="351" type="line"/>
      <point x="440" y="473" type="line"/>
      <point x="455" y="528"/>
      <point x="427" y="551"/>
      <point x="403" y="539" type="curve"/>
      <point x="45" y="362" type="line"/>
      <point x="40" y="355"/>
      <point x="40" y="347"/>
    </contour>
  </outline>
</glyph>
<glyph name="equal" format="1">
  <advance width="541"/>
  <unicode hex="003D"/>
  <outline>
    <contour>
      <point x="71" y="403" type="curve"/>
      <point x="470" y="403" type="line"/>
      <point x="479" y="427"/>
      <point x="479" y="451"/>
      <point x="470" y="475" type="curve"/>
      <point x="71" y="475" type="line"/>
      <point x="62" y="451"/>
      <point x="62" y="427"/>
    </contour>
    <contour>
      <point x="71" y="207" type="curve"/>
      <point x="470" y="207" type="line"/>
      <point x="479" y="231"/>
      <point x="479" y="255"/>
      <point x="470" y="279" type="curve"/>
      <point x="71" y="279" type="line"/>
      <point x="62" y="255"/>
      <point x="62" y="231"/>
    </contour>
  </outline>
</glyph>
<glyph name="at" format="1">
  <advance width="891"/>
  <unicode hex="0040"/>
  <outline>
    <contour>
      <point x="377" y="-110" type="curve"/>
      <point x="439" y="-110"/>
      <point x="463" y="-78"/>
      <point x="438" y="-45" type="curve"/>
      <point x="298" y="-62"/>
      <point x="164" y="54"/>
      <point x="164" y="262" type="curve"/>
      <point x="164" y="436"/>
      <point x="256" y="603"/>
      <point x="477" y="603" type="curve"/>
      <point x="702" y="603"/>
      <point x="774" y="419"/>
      <point x="773" y="286" type="curve"/>
      <point x="772" y="155"/>
      <point x="740" y="98"/>
      <point x="698" y="98" type="curve"/>
      <point x="660" y="98"/>
      <point x="649" y="147"/>
      <point x="650" y="198" type="curve"/>
      <point x="651" y="302" type="line" smooth="yes"/>
      <point x="652" y="388"/>
      <point x="618" y="487"/>
      <point x="470" y="487" type="curve"/>
      <point x="341" y="487"/>
      <point x="276" y="393"/>
      <point x="276" y="243" type="curve"/>
      <point x="276" y="170"/>
      <point x="289" y="50"/>
      <point x="433" y="50" type="curve"/>
      <point x="523" y="50"/>
      <point x="570" y="140"/>
      <point x="581" y="240" type="curve"/>
      <point x="559" y="238" type="line"/>
      <point x="542" y="146" type="line"/>
      <point x="542" y="87"/>
      <point x="602" y="36"/>
      <point x="666" y="36" type="curve"/>
      <point x="763" y="36"/>
      <point x="844" y="111"/>
      <point x="844" y="285" type="curve"/>
      <point x="844" y="444"/>
      <point x="751" y="664"/>
      <point x="475" y="664" type="curve"/>
      <point x="167" y="664"/>
      <point x="39" y="457"/>
      <point x="39" y="258" type="curve"/>
      <point x="39" y="-8"/>
      <point x="254" y="-112"/>
    </contour>
    <contour>
      <point x="426" y="94" type="curve"/>
      <point x="338" y="94"/>
      <point x="330" y="183"/>
      <point x="330" y="244" type="curve"/>
      <point x="330" y="376"/>
      <point x="373" y="441"/>
      <point x="450" y="441" type="curve"/>
      <point x="515" y="441"/>
      <point x="534" y="388"/>
      <point x="534" y="304" type="curve"/>
      <point x="534" y="183"/>
      <point x="491" y="94"/>
    </contour>
  </outline>
</glyph>
<glyph name="D" format="1">
  <advance width="654"/>
  <unicode hex="0044"/>
  <outline>
    <contour>
      <point x="159" y="0" type="curve"/>
      <point x="295" y="0" type="line" smooth="yes"/>
      <point x="491" y="0"/>
      <point x="607" y="108"/>
      <point x="607" y="359" type="curve"/>
      <point x="607" y="590"/>
      <point x="491" y="708"/>
      <point x="287" y="708" type="curve"/>
      <point x="218" y="708"/>
      <point x="118" y="707"/>
      <point x="63" y="699" type="curve"/>
      <point x="80" y="654"/>
      <point x="77" y="589"/>
      <point x="77" y="551" type="curve"/>
      <point x="78" y="70" type="line" smooth="yes"/>
      <point x="78" y="27"/>
      <point x="109" y="0"/>
    </contour>
    <contour>
      <point x="287" y="48" type="curve"/>
      <point x="217" y="48" type="line"/>
      <point x="217" y="660" type="line"/>
      <point x="287" y="660" type="line" smooth="yes"/>
      <point x="402" y="660"/>
      <point x="453" y="566"/>
      <point x="453" y="349" type="curve"/>
      <point x="453" y="128"/>
      <point x="402" y="48"/>
    </contour>
    <contour>
      <point x="293" y="0" type="move" name="bottom"/>
    </contour>
    <contour>
      <point x="323" y="349" type="move" name="center"/>
    </contour>
    <contour>
      <point x="316" y="698" type="move" name="top"/>
    </contour>
  </outline>
</glyph>
<glyph name="G" format="1">
  <advance width="656"/>
  <unicode hex="0047"/>
  <outline>
    <contour>
      <point x="346" y="-14" type="curve"/>
      <point x="483" y="-14"/>
      <point x="610" y="70"/>
      <point x="610" y="257" type="curve"/>
      <point x="610" y="352"/>
      <point x="561" y="398"/>
      <point x="492" y="398" type="curve"/>
      <point x="457" y="398"/>
      <point x="422" y="385"/>
      <point x="409" y="357" type="curve"/>
      <point x="460" y="332"/>
      <point x="468" y="273"/>
      <point x="468" y="222" type="curve"/>
      <point x="468" y="144"/>
      <point x="449" y="33"/>
      <point x="354" y="33" type="curve"/>
      <point x="247" y="33"/>
      <point x="201" y="138"/>
      <point x="201" y="349" type="curve"/>
      <point x="201" y="560"/>
      <point x="248" y="665"/>
      <point x="358" y="665" type="curve"/>
      <point x="419" y="665"/>
      <point x="455" y="617"/>
      <point x="465" y="511" type="curve"/>
      <point x="539" y="510"/>
      <point x="577" y="551"/>
      <point x="577" y="592" type="curve"/>
      <point x="577" y="669"/>
      <point x="460" y="712"/>
      <point x="356" y="712" type="curve"/>
      <point x="162" y="712"/>
      <point x="47" y="580"/>
      <point x="47" y="349" type="curve"/>
      <point x="47" y="118"/>
      <point x="157" y="-14"/>
    </contour>
    <contour>
      <point x="345" y="0" type="move" name="bottom"/>
    </contour>
    <contour>
      <point x="344" y="698" type="move" name="top"/>
    </contour>
  </outline>
</glyph>
<glyph name="I" format="1">
  <advance width="306"/>
  <unicode hex="0049"/>
  <outline>
    <contour>
      <point x="163" y="-15" type="curve"/>
      <point x="202" y="-15"/>
      <point x="231" y="5"/>
      <point x="243" y="16" type="curve"/>
      <point x="225" y="60"/>
      <point x="223" y="108"/>
      <point x="223" y="146" type="curve"/>
      <point x="223" y="641" type="line" smooth="yes"/>
      <point x="223" y="685"/>
      <point x="188" y="711"/>
      <point x="143" y="711" type="curve"/>
      <point x="104" y="711"/>
      <point x="75" y="692"/>
      <point x="63" y="681" type="curve"/>
      <point x="80" y="636"/>
      <point x="83" y="589"/>
      <point x="83" y="551" type="curve"/>
      <point x="83" y="56" type="line" smooth="yes"/>
      <point x="83" y="12"/>
      <point x="117" y="-15"/>
    </contour>
    <contour>
      <point x="167" y="0" type="move" name="bottom"/>
    </contour>
    <contour>
      <point x="173" y="-8" type="move" name="ogonek"/>
    </contour>
    <contour>
      <point x="139" y="698" type="move" name="top"/>
    </contour>
    <contour>
      <point x="20" y="698" type="move" name="topleft"/>
    </contour>
  </outline>
</glyph>
<glyph name="J" format="1">
  <advance width="499"/>
  <unicode hex="004A"/>
  <outline>
    <contour>
      <point x="214" y="-14" type="curve"/>
      <point x="368" y="-14"/>
      <point x="420" y="76"/>
      <point x="420" y="199" type="curve"/>
      <point x="420" y="633" type="line" smooth="yes"/>
      <point x="420" y="677"/>
      <point x="423" y="697"/>
      <point x="426" y="712" type="curve"/>
      <point x="398" y="709"/>
      <point x="360" y="706"/>
      <point x="321" y="706" type="curve"/>
      <point x="259" y="707"/>
      <point x="211" y="712"/>
      <point x="172" y="712" type="curve"/>
      <point x="95" y="712"/>
      <point x="54" y="679"/>
      <point x="54" y="625" type="curve"/>
      <point x="54" y="570"/>
      <point x="96" y="542"/>
      <point x="136" y="542" type="curve"/>
      <point x="158" y="542"/>
      <point x="178" y="547"/>
      <point x="192" y="558" type="curve"/>
      <point x="176" y="568"/>
      <point x="160" y="587"/>
      <point x="160" y="618" type="curve"/>
      <point x="160" y="650"/>
      <point x="186" y="659"/>
      <point x="210" y="659" type="curve"/>
      <point x="227" y="658"/>
      <point x="268" y="657"/>
      <point x="289" y="656" type="curve"/>
      <point x="280" y="642"/>
      <point x="280" y="618"/>
      <point x="280" y="591" type="curve"/>
      <point x="280" y="182" type="line" smooth="yes"/>
      <point x="280" y="103"/>
      <point x="272" y="33"/>
      <point x="214" y="33" type="curve"/>
      <point x="181" y="33"/>
      <point x="159" y="65"/>
      <point x="159" y="99" type="curve"/>
      <point x="159" y="121"/>
      <point x="164" y="141"/>
      <point x="175" y="162" type="curve"/>
      <point x="163" y="183"/>
      <point x="145" y="192"/>
      <point x="116" y="192" type="curve"/>
      <point x="61" y="192"/>
      <point x="37" y="148"/>
      <point x="37" y="103" type="curve"/>
      <point x="37" y="45"/>
      <point x="82" y="-14"/>
    </contour>
    <contour>
      <point x="252" y="0" type="move" name="bottom"/>
    </contour>
    <contour>
      <point x="252" y="698" type="move" name="top"/>
    </contour>
  </outline>
</glyph>
<glyph name="K" format="1">
  <advance width="621"/>
  <unicode hex="004B"/>
  <outline>
    <contour>
      <point x="516" y="-20" type="curve"/>
      <point x="571" y="-20"/>
      <point x="605" y="14"/>
      <point x="605" y="56" type="curve"/>
      <point x="605" y="67"/>
      <point x="602" y="80"/>
      <point x="597" y="94" type="curve"/>
      <point x="588" y="88"/>
      <point x="581" y="86"/>
      <point x="573" y="87" type="curve"/>
      <point x="550" y="89"/>
      <point x="539" y="105"/>
      <point x="515" y="156" type="curve"/>
      <point x="471" y="258" type="line" smooth="yes"/>
      <point x="445" y="317"/>
      <point x="404" y="349"/>
      <point x="309" y="353" type="curve"/>
      <point x="307" y="342" type="line"/>
      <point x="475" y="397"/>
      <point x="544" y="509"/>
      <point x="544" y="605" type="curve"/>
      <point x="544" y="691"/>
      <point x="490" y="706"/>
      <point x="448" y="706" type="curve"/>
      <point x="426" y="706"/>
      <point x="411" y="702"/>
      <point x="391" y="694" type="curve"/>
      <point x="398" y="683"/>
      <point x="409" y="655"/>
      <point x="409" y="614" type="curve"/>
      <point x="409" y="531"/>
      <point x="357" y="405"/>
      <point x="245" y="370" type="curve"/>
      <point x="234" y="366"/>
      <point x="221" y="363"/>
      <point x="208" y="361" type="curve"/>
      <point x="209" y="313" type="line"/>
      <point x="238" y="313" type="line" smooth="yes"/>
      <point x="308" y="313"/>
      <point x="333" y="257"/>
      <point x="348" y="214" type="curve"/>
      <point x="375" y="132" type="line" smooth="yes"/>
      <point x="399" y="64"/>
      <point x="430" y="-20"/>
    </contour>
    <contour>
      <point x="163" y="-15" type="curve"/>
      <point x="202" y="-15"/>
      <point x="231" y="5"/>
      <point x="243" y="16" type="curve"/>
      <point x="225" y="60"/>
      <point x="223" y="108"/>
      <point x="223" y="146" type="curve"/>
      <point x="222" y="641" type="line"/>
      <point x="222" y="685"/>
      <point x="188" y="711"/>
      <point x="143" y="711" type="curve"/>
      <point x="104" y="711"/>
      <point x="75" y="692"/>
      <point x="63" y="681" type="curve"/>
      <point x="80" y="636"/>
      <point x="83" y="589"/>
      <point x="83" y="551" type="curve"/>
      <point x="83" y="56" type="line" smooth="yes"/>
      <point x="83" y="12"/>
      <point x="117" y="-15"/>
    </contour>
    <contour>
      <point x="335" y="0" type="move" name="bottom"/>
    </contour>
    <contour>
      <point x="312" y="698" type="move" name="top"/>
    </contour>
  </outline>
</glyph>
<glyph name="L" format="1">
  <advance width="508"/>
  <unicode hex="004C"/>
  <outline>
    <contour>
      <point x="223" y="74" type="curve"/>
      <point x="222" y="641" type="line"/>
      <point x="222" y="685"/>
      <point x="188" y="711"/>
      <point x="143" y="711" type="curve"/>
      <point x="104" y="711"/>
      <point x="75" y="692"/>
      <point x="63" y="681" type="curve"/>
      <point x="80" y="636"/>
      <point x="83" y="589"/>
      <point x="83" y="551" type="curve"/>
      <point x="83" y="71" type="line" smooth="yes"/>
      <point x="83" y="26"/>
      <point x="117" y="0"/>
      <point x="163" y="0" type="curve"/>
      <point x="459" y="0" type="line"/>
      <point x="504" y="0"/>
      <point x="502" y="110"/>
      <point x="467" y="133" type="curve"/>
      <point x="416" y="103"/>
      <point x="310" y="76"/>
    </contour>
    <contour>
      <point x="282" y="0" type="move" name="bottom"/>
    </contour>
    <contour>
      <point x="254" y="349" type="move" name="center"/>
    </contour>
    <contour>
      <point x="165" y="698" type="move" name="top"/>
    </contour>
    <contour>
      <point x="297" y="698" type="move" name="topright"/>
    </contour>
  </outline>
</glyph>
<glyph name="M" format="1">
  <advance width="851"/>
  <unicode hex="004D"/>
  <outline>
    <contour>
      <point x="127" y="-15" type="curve"/>
      <point x="145" y="-15"/>
      <point x="164" y="-9"/>
      <point x="176" y="2" type="curve"/>
      <point x="159" y="47"/>
      <point x="156" y="108"/>
      <point x="156" y="145" type="curve"/>
      <point x="155" y="573" type="line"/>
      <point x="138" y="601" type="line"/>
      <point x="191" y="425"/>
      <point x="270" y="220"/>
      <point x="339" y="73" type="curve"/>
      <point x="378" y="58"/>
      <point x="416" y="61"/>
      <point x="467" y="78" type="curve"/>
      <point x="653" y="601" type="line"/>
      <point x="632" y="552" type="line"/>
      <point x="633" y="56" type="line" smooth="yes"/>
      <point x="633" y="12"/>
      <point x="665" y="-15"/>
      <point x="708" y="-15" type="curve"/>
      <point x="747" y="-15"/>
      <point x="776" y="5"/>
      <point x="788" y="16" type="curve"/>
      <point x="771" y="60"/>
      <point x="768" y="108"/>
      <point x="768" y="146" type="curve"/>
      <point x="768" y="683" type="line"/>
      <point x="763" y="697"/>
      <point x="723" y="711"/>
      <point x="681" y="711" type="curve"/>
      <point x="662" y="711"/>
      <point x="626" y="710"/>
      <point x="592" y="698" type="curve"/>
      <point x="548" y="554"/>
      <point x="467" y="319"/>
      <point x="415" y="168" type="curve"/>
      <point x="436" y="165" type="line"/>
      <point x="373" y="330"/>
      <point x="309" y="508"/>
      <point x="244" y="686" type="curve"/>
      <point x="227" y="703"/>
      <point x="206" y="711"/>
      <point x="171" y="711" type="curve"/>
      <point x="116" y="711"/>
      <point x="86" y="705"/>
      <point x="74" y="694" type="curve"/>
      <point x="80" y="653"/>
      <point x="81" y="614"/>
      <point x="81" y="554" type="curve"/>
      <point x="81" y="40" type="line" smooth="yes"/>
      <point x="81" y="7"/>
      <point x="93" y="-15"/>
    </contour>
    <contour>
      <point x="426" y="0" type="move" name="bottom"/>
    </contour>
    <contour>
      <point x="426" y="698" type="move" name="top"/>
    </contour>
  </outline>
</glyph>
<glyph name="N" format="1">
  <advance width="699"/>
  <unicode hex="004E"/>
  <outline>
    <contour>
      <point x="120" y="-15" type="curve"/>
      <point x="154" y="-15"/>
      <point x="193" y="17"/>
      <point x="189" y="65" type="curve"/>
      <point x="159" y="497" type="line"/>
      <point x="208" y="401"/>
      <point x="296" y="267"/>
      <point x="532" y="-8" type="curve"/>
      <point x="555" y="-20"/>
      <point x="612" y="-13"/>
      <point x="626" y="3" type="curve"/>
      <point x="620" y="44"/>
      <point x="619" y="83"/>
      <point x="619" y="143" type="curve"/>
      <point x="620" y="564" type="line" smooth="yes"/>
      <point x="620" y="596"/>
      <point x="621" y="653"/>
      <point x="636" y="695" type="curve"/>
      <point x="620" y="706"/>
      <point x="598" y="711"/>
      <point x="579" y="710" type="curve"/>
      <point x="531" y="707"/>
      <point x="508" y="671"/>
      <point x="513" y="619" type="curve"/>
      <point x="549" y="179" type="line"/>
      <point x="504" y="284"/>
      <point x="293" y="533"/>
      <point x="172" y="704" type="curve"/>
      <point x="160" y="716"/>
      <point x="91" y="712"/>
      <point x="76" y="694" type="curve"/>
      <point x="81" y="653"/>
      <point x="83" y="612"/>
      <point x="83" y="552" type="curve"/>
      <point x="83" y="146" type="line" smooth="yes"/>
      <point x="83" y="109"/>
      <point x="80" y="48"/>
      <point x="63" y="3" type="curve"/>
      <point x="79" y="-8"/>
      <point x="100" y="-15"/>
    </contour>
    <contour>
      <point x="352" y="0" type="move" name="bottom"/>
    </contour>
    <contour>
      <point x="352" y="698" type="move" name="top"/>
    </contour>
  </outline>
</glyph>
<glyph name="O" format="1">
  <advance width="666"/>
  <unicode hex="004F"/>
  <outline>
    <contour>
      <point x="333" y="-14" type="curve"/>
      <point x="521" y="-14"/>
      <point x="619" y="108"/>
      <point x="619" y="349" type="curve"/>
      <point x="619" y="590"/>
      <point x="521" y="712"/>
      <point x="333" y="712" type="curve"/>
      <point x="145" y="712"/>
      <point x="47" y="590"/>
      <point x="47" y="349" type="curve"/>
      <point x="47" y="108"/>
      <point x="145" y="-14"/>
    </contour>
    <contour>
      <point x="333" y="33" type="curve"/>
      <point x="241" y="33"/>
      <point x="201" y="128"/>
      <point x="201" y="349" type="curve"/>
      <point x="201" y="570"/>
      <point x="241" y="665"/>
      <point x="333" y="665" type="curve"/>
      <point x="426" y="665"/>
      <point x="465" y="570"/>
      <point x="465" y="349" type="curve"/>
      <point x="465" y="128"/>
      <point x="426" y="33"/>
    </contour>
    <contour>
      <point x="333" y="0" type="move" name="bottom"/>
    </contour>
    <contour>
      <point x="333" y="349" type="move" name="center"/>
    </contour>
    <contour>
      <point x="598" y="10" type="move" name="ogonek"/>
    </contour>
    <contour>
      <point x="333" y="698" type="move" name="top"/>
    </contour>
    <contour>
      <point x="22" y="698" type="move" name="topleft"/>
    </contour>
    <contour>
      <point x="511" y="653" type="move" name="topright"/>
    </contour>
  </outline>
</glyph>
<glyph name="P" format="1">
  <advance width="586"/>
  <unicode hex="0050"/>
  <outline>
    <contour>
      <point x="163" y="-15" type="curve"/>
      <point x="202" y="-15"/>
      <point x="231" y="5"/>
      <point x="243" y="16" type="curve"/>
      <point x="225" y="57"/>
      <point x="223" y="105"/>
      <point x="223" y="138" type="curve"/>
      <point x="223" y="663" type="line"/>
      <point x="231" y="664"/>
      <point x="241" y="664"/>
      <point x="252" y="664" type="curve"/>
      <point x="364" y="664"/>
      <point x="401" y="594"/>
      <point x="401" y="495" type="curve"/>
      <point x="401" y="391"/>
      <point x="362" y="317"/>
      <point x="239" y="317" type="curve"/>
      <point x="223" y="317"/>
      <point x="211" y="317"/>
      <point x="198" y="319" type="curve"/>
      <point x="205" y="271" type="line"/>
      <point x="219" y="270"/>
      <point x="232" y="270"/>
      <point x="246" y="270" type="curve"/>
      <point x="443" y="270"/>
      <point x="554" y="355"/>
      <point x="554" y="505" type="curve"/>
      <point x="554" y="653"/>
      <point x="444" y="712"/>
      <point x="249" y="712" type="curve"/>
      <point x="166" y="712"/>
      <point x="105" y="701"/>
      <point x="63" y="681" type="curve"/>
      <point x="80" y="636"/>
      <point x="83" y="583"/>
      <point x="83" y="551" type="curve"/>
      <point x="83" y="56" type="line" smooth="yes"/>
      <point x="83" y="12"/>
      <point x="117" y="-15"/>
    </contour>
    <contour>
      <point x="293" y="0" type="move" name="bottom"/>
    </contour>
    <contour>
      <point x="293" y="698" type="move" name="top"/>
    </contour>
  </outline>
</glyph>
<glyph name="Q" format="1">
  <advance width="676"/>
  <unicode hex="0051"/>
  <outline>
    <contour>
      <point x="550" y="-167" type="curve"/>
      <point x="621" y="-167"/>
      <point x="661" y="-125"/>
      <point x="661" y="-79" type="curve"/>
      <point x="661" y="-35"/>
      <point x="633" y="-9"/>
      <point x="589" y="-2" type="curve"/>
      <point x="574" y="-42"/>
      <point x="515" y="-61"/>
      <point x="449" y="-61" type="curve"/>
      <point x="390" y="-61"/>
      <point x="323" y="-44"/>
      <point x="279" y="-7" type="curve"/>
      <point x="299" y="-13"/>
      <point x="315" y="-14"/>
      <point x="336" y="-14" type="curve"/>
      <point x="511" y="-14"/>
      <point x="627" y="120"/>
      <point x="627" y="349" type="curve"/>
      <point x="627" y="590"/>
      <point x="520" y="712"/>
      <point x="337" y="712" type="curve"/>
      <point x="155" y="712"/>
      <point x="47" y="590"/>
      <point x="47" y="348" type="curve"/>
      <point x="47" y="144"/>
      <point x="133" y="37"/>
      <point x="249" y="-46" type="curve"/>
      <point x="340" y="-112"/>
      <point x="464" y="-167"/>
    </contour>
    <contour>
      <point x="334" y="33" type="curve"/>
      <point x="230" y="33"/>
      <point x="208" y="158"/>
      <point x="208" y="325" type="curve"/>
      <point x="208" y="550"/>
      <point x="238" y="665"/>
      <point x="336" y="665" type="curve"/>
      <point x="426" y="665"/>
      <point x="466" y="570"/>
      <point x="466" y="350" type="curve"/>
      <point x="466" y="126"/>
      <point x="425" y="33"/>
    </contour>
    <contour>
      <point x="335" y="0" type="move" name="bottom"/>
    </contour>
    <contour>
      <point x="335" y="698" type="move" name="top"/>
    </contour>
  </outline>
</glyph>
<glyph name="S" format="1">
  <advance width="568"/>
  <unicode hex="0053"/>
  <outline>
    <contour>
      <point x="273" y="-15" type="curve"/>
      <point x="450" y="-15"/>
      <point x="536" y="75"/>
      <point x="536" y="184" type="curve"/>
      <point x="536" y="305"/>
      <point x="435" y="366"/>
      <point x="342" y="417" type="curve"/>
      <point x="220" y="485"/>
      <point x="188" y="521"/>
      <point x="188" y="582" type="curve"/>
      <point x="188" y="647"/>
      <point x="241" y="665"/>
      <point x="282" y="665" type="curve"/>
      <point x="350" y="665"/>
      <point x="383" y="632"/>
      <point x="394" y="594" type="curve"/>
      <point x="401" y="576"/>
      <point x="404" y="555"/>
      <point x="403" y="534" type="curve"/>
      <point x="415" y="532"/>
      <point x="430" y="531"/>
      <point x="441" y="532" type="curve"/>
      <point x="496" y="533"/>
      <point x="513" y="563"/>
      <point x="513" y="596" type="curve"/>
      <point x="513" y="674"/>
      <point x="424" y="712"/>
      <point x="298" y="712" type="curve"/>
      <point x="170" y="712"/>
      <point x="59" y="662"/>
      <point x="59" y="533" type="curve"/>
      <point x="59" y="416"/>
      <point x="137" y="361"/>
      <point x="265" y="288" type="curve"/>
      <point x="355" y="237"/>
      <point x="401" y="203"/>
      <point x="401" y="135" type="curve"/>
      <point x="401" y="66"/>
      <point x="352" y="34"/>
      <point x="293" y="34" type="curve"/>
      <point x="200" y="34"/>
      <point x="158" y="93"/>
      <point x="149" y="146" type="curve"/>
      <point x="146" y="163"/>
      <point x="145" y="183"/>
      <point x="149" y="199" type="curve"/>
      <point x="61" y="212"/>
      <point x="34" y="172"/>
      <point x="34" y="126" type="curve"/>
      <point x="34" y="46"/>
      <point x="110" y="-15"/>
    </contour>
    <contour>
      <point x="284" y="0" type="move" name="bottom"/>
    </contour>
    <contour>
      <point x="289" y="698" type="move" name="top"/>
    </contour>
  </outline>
</glyph>
<glyph name="T" format="1">
  <advance width="557"/>
  <unicode hex="0054"/>
  <outline>
    <contour>
      <point x="289" y="-15" type="curve"/>
      <point x="328" y="-15"/>
      <point x="357" y="5"/>
      <point x="369" y="16" type="curve"/>
      <point x="351" y="60"/>
      <point x="349" y="108"/>
      <point x="349" y="146" type="curve"/>
      <point x="348" y="665" type="line"/>
      <point x="209" y="677" type="line"/>
      <point x="209" y="56" type="line" smooth="yes"/>
      <point x="209" y="12"/>
      <point x="243" y="-15"/>
    </contour>
    <contour>
      <point x="49" y="576" type="curve"/>
      <point x="110" y="608"/>
      <point x="202" y="651"/>
      <point x="279" y="651" type="curve"/>
      <point x="355" y="651"/>
      <point x="449" y="608"/>
      <point x="508" y="576" type="curve"/>
      <point x="546" y="593"/>
      <point x="562" y="698"/>
      <point x="524" y="698" type="curve"/>
      <point x="34" y="698" type="line" smooth="yes"/>
      <point x="-4" y="698"/>
      <point x="12" y="593"/>
    </contour>
    <contour>
      <point x="294" y="0" type="move" name="bottom"/>
    </contour>
    <contour>
      <point x="279" y="349" type="move" name="center"/>
    </contour>
    <contour>
      <point x="279" y="698" type="move" name="top"/>
    </contour>
  </outline>
</glyph>
<glyph name="V" format="1">
  <advance width="612"/>
  <unicode hex="0056"/>
  <outline>
    <contour>
      <point x="298" y="-15" type="curve"/>
      <point x="321" y="-15"/>
      <point x="354" y="-10"/>
      <point x="391" y="4" type="curve"/>
      <point x="581" y="584" type="line" smooth="yes"/>
      <point x="590" y="612"/>
      <point x="595" y="637"/>
      <point x="595" y="655" type="curve"/>
      <point x="595" y="695"/>
      <point x="572" y="712"/>
      <point x="517" y="712" type="curve"/>
      <point x="482" y="712"/>
      <point x="462" y="706"/>
      <point x="442" y="698" type="curve"/>
      <point x="448" y="691"/>
      <point x="452" y="681"/>
      <point x="452" y="664" type="curve"/>
      <point x="452" y="649"/>
      <point x="449" y="634"/>
      <point x="445" y="619" type="curve"/>
      <point x="298" y="7" type="line"/>
      <point x="337" y="7" type="line"/>
      <point x="175" y="659" type="line" smooth="yes"/>
      <point x="166" y="695"/>
      <point x="136" y="712"/>
      <point x="86" y="712" type="curve"/>
      <point x="40" y="712"/>
      <point x="16" y="696"/>
      <point x="3" y="682" type="curve"/>
      <point x="20" y="664"/>
      <point x="31" y="634"/>
      <point x="36" y="617" type="curve"/>
      <point x="212" y="23" type="line" smooth="yes"/>
      <point x="220" y="-4"/>
      <point x="249" y="-15"/>
    </contour>
    <contour>
      <point x="305" y="0" type="move" name="bottom"/>
    </contour>
    <contour>
      <point x="305" y="698" type="move" name="top"/>
    </contour>
  </outline>
</glyph>
<glyph name="X" format="1">
  <advance width="640"/>
  <unicode hex="0058"/>
  <outline>
    <contour>
      <point x="514" y="-14" type="curve"/>
      <point x="581" y="-14"/>
      <point x="623" y="29"/>
      <point x="623" y="73" type="curve"/>
      <point x="623" y="102"/>
      <point x="604" y="125"/>
      <point x="583" y="135" type="curve"/>
      <point x="580" y="121"/>
      <point x="566" y="108"/>
      <point x="554" y="108" type="curve"/>
      <point x="541" y="108"/>
      <point x="525" y="119"/>
      <point x="513" y="142" type="curve"/>
      <point x="362" y="422" type="line"/>
      <point x="279" y="587" type="line" smooth="yes"/>
      <point x="239" y="666"/>
      <point x="205" y="707"/>
      <point x="132" y="707" type="curve"/>
      <point x="56" y="707"/>
      <point x="29" y="664"/>
      <point x="29" y="622" type="curve"/>
      <point x="29" y="591"/>
      <point x="46" y="569"/>
      <point x="68" y="558" type="curve"/>
      <point x="71" y="572"/>
      <point x="85" y="585"/>
      <point x="100" y="585" type="curve"/>
      <point x="114" y="585"/>
      <point x="125" y="574"/>
      <point x="138" y="551" type="curve"/>
      <point x="272" y="300" type="line"/>
      <point x="373" y="106" type="line" smooth="yes"/>
      <point x="412" y="32"/>
      <point x="443" y="-14"/>
    </contour>
    <contour>
      <point x="95" y="-14" type="curve"/>
      <point x="131" y="-14"/>
      <point x="149" y="3"/>
      <point x="164" y="27" type="curve"/>
      <point x="341" y="316" type="line"/>
      <point x="283" y="372" type="line"/>
      <point x="127" y="153" type="line" smooth="yes"/>
      <point x="99" y="114"/>
      <point x="71" y="83"/>
      <point x="23" y="70" type="curve"/>
      <point x="28" y="13"/>
      <point x="49" y="-14"/>
    </contour>
    <contour>
      <point x="305" y="382" type="line"/>
      <point x="350" y="327" type="line"/>
      <point x="504" y="541" type="line" smooth="yes"/>
      <point x="530" y="578"/>
      <point x="559" y="610"/>
      <point x="608" y="623" type="curve"/>
      <point x="602" y="682"/>
      <point x="580" y="707"/>
      <point x="535" y="707" type="curve"/>
      <point x="497" y="707"/>
      <point x="479" y="688"/>
      <point x="467" y="666" type="curve"/>
    </contour>
    <contour>
      <point x="320" y="0" type="move" name="bottom"/>
    </contour>
    <contour>
      <point x="320" y="698" type="move" name="top"/>
    </contour>
  </outline>
</glyph>
<glyph name="Y" format="1">
  <advance width="600"/>
  <unicode hex="0059"/>
  <outline>
    <contour>
      <point x="288" y="230" type="curve"/>
      <point x="361" y="249" type="line"/>
      <point x="550" y="564" type="line" smooth="yes"/>
      <point x="568" y="592"/>
      <point x="583" y="626"/>
      <point x="583" y="649" type="curve"/>
      <point x="582" y="680"/>
      <point x="564" y="708"/>
      <point x="519" y="708" type="curve"/>
      <point x="481" y="708"/>
      <point x="460" y="702"/>
      <point x="440" y="694" type="curve"/>
      <point x="448" y="685"/>
      <point x="454" y="671"/>
      <point x="454" y="657" type="curve"/>
      <point x="454" y="643"/>
      <point x="451" y="630"/>
      <point x="443" y="613" type="curve"/>
      <point x="292" y="277" type="line"/>
      <point x="348" y="308" type="line"/>
      <point x="200" y="630" type="line" smooth="yes"/>
      <point x="179" y="676"/>
      <point x="159" y="708"/>
      <point x="103" y="708" type="curve"/>
      <point x="54" y="708"/>
      <point x="17" y="679"/>
      <point x="4" y="665" type="curve"/>
      <point x="28" y="642"/>
      <point x="46" y="612"/>
      <point x="55" y="595" type="curve"/>
      <point x="206" y="304" type="line" smooth="yes"/>
      <point x="223" y="273"/>
      <point x="242" y="230"/>
    </contour>
    <contour>
      <point x="310" y="-15" type="curve"/>
      <point x="348" y="-15"/>
      <point x="378" y="5"/>
      <point x="389" y="16" type="curve"/>
      <point x="372" y="60"/>
      <point x="369" y="108"/>
      <point x="369" y="146" type="curve"/>
      <point x="369" y="310" type="line"/>
      <point x="230" y="284" type="line"/>
      <point x="230" y="56" type="line" smooth="yes"/>
      <point x="230" y="12"/>
      <point x="264" y="-15"/>
    </contour>
    <contour>
      <point x="318" y="0" type="move" name="bottom"/>
    </contour>
    <contour>
      <point x="321" y="698" type="move" name="top"/>
    </contour>
    <contour>
      <point x="20" y="698" type="move" name="topleft"/>
    </contour>
  </outline>
</glyph>
<glyph name="bracketright" format="1">
  <advance width="374"/>
  <unicode hex="005D"/>
  <outline>
    <contour>
      <point x="78" y="-109" type="line"/>
      <point x="78" y="-171" type="line"/>
      <point x="285" y="-171" type="line"/>
      <point x="285" y="738" type="line"/>
      <point x="78" y="738" type="line"/>
      <point x="78" y="676" type="line"/>
      <point x="156" y="676" type="line"/>
      <point x="156" y="-109" type="line"/>
    </contour>
  </outline>
</glyph>
<glyph name="underscore" format="1">
  <advance width="389"/>
  <unicode hex="005F"/>
  <outline>
    <contour>
      <point x="419" y="-69" type="line"/>
      <point x="-30" y="-67" type="line"/>
      <point x="-30" y="-135" type="line"/>
      <point x="419" y="-137" type="line"/>
    </contour>
  </outline>
</glyph>
<glyph name="c" format="1">
  <advance width="518"/>
  <unicode hex="0063"/>
  <outline>
    <contour>
      <point x="293" y="-14" type="curve"/>
      <point x="390" y="-14"/>
      <point x="463" y="28"/>
      <point x="482" y="99" type="curve"/>
      <point x="491" y="137"/>
      <point x="483" y="155"/>
      <point x="469" y="161" type="curve"/>
      <point x="455" y="110"/>
      <point x="406" y="71"/>
      <point x="335" y="71" type="curve"/>
      <point x="240" y="71"/>
      <point x="186" y="134"/>
      <point x="186" y="282" type="curve"/>
      <point x="186" y="411"/>
      <point x="223" y="485"/>
      <point x="285" y="485" type="curve"/>
      <point x="320" y="485"/>
      <point x="344" y="467"/>
      <point x="344" y="415" type="curve"/>
      <point x="344" y="380"/>
      <point x="335" y="356"/>
      <point x="316" y="338" type="curve"/>
      <point x="331" y="322"/>
      <point x="360" y="314"/>
      <point x="387" y="314" type="curve"/>
      <point x="442" y="314"/>
      <point x="481" y="348"/>
      <point x="481" y="403" type="curve"/>
      <point x="481" y="472"/>
      <point x="422" y="531"/>
      <point x="296" y="531" type="curve"/>
      <point x="130" y="531"/>
      <point x="39" y="428"/>
      <point x="39" y="260" type="curve"/>
      <point x="39" y="85"/>
      <point x="130" y="-14"/>
    </contour>
    <contour>
      <point x="285" y="0" type="move" name="bottom"/>
    </contour>
    <contour>
      <point x="283" y="516" type="move" name="top"/>
    </contour>
  </outline>
</glyph>
<glyph name="d" format="1">
  <advance width="597"/>
  <unicode hex="0064"/>
  <outline>
    <contour>
      <point x="217" y="-14" type="curve"/>
      <point x="320" y="-14"/>
      <point x="384" y="57"/>
      <point x="402" y="209" type="curve"/>
      <point x="381" y="220" type="line"/>
      <point x="381" y="174" type="line" smooth="yes"/>
      <point x="381" y="62"/>
      <point x="414" y="-9"/>
      <point x="492" y="-9" type="curve"/>
      <point x="542" y="-9"/>
      <point x="581" y="20"/>
      <point x="581" y="61" type="curve"/>
      <point x="581" y="73"/>
      <point x="577" y="90"/>
      <point x="568" y="104" type="curve"/>
      <point x="562" y="95"/>
      <point x="549" y="93"/>
      <point x="542" y="93" type="curve"/>
      <point x="520" y="93"/>
      <point x="508" y="110"/>
      <point x="508" y="145" type="curve"/>
      <point x="509" y="662" type="line" smooth="yes"/>
      <point x="509" y="707"/>
      <point x="474" y="733"/>
      <point x="430" y="733" type="curve"/>
      <point x="391" y="733"/>
      <point x="363" y="713"/>
      <point x="351" y="703" type="curve"/>
      <point x="371" y="635"/>
      <point x="374" y="559"/>
      <point x="374" y="513" type="curve"/>
      <point x="374" y="472" type="line"/>
      <point x="355" y="510"/>
      <point x="314" y="531"/>
      <point x="253" y="531" type="curve"/>
      <point x="116" y="531"/>
      <point x="39" y="426"/>
      <point x="39" y="240" type="curve"/>
      <point x="39" y="92"/>
      <point x="90" y="-14"/>
    </contour>
    <contour>
      <point x="259" y="60" type="curve"/>
      <point x="204" y="60"/>
      <point x="186" y="120"/>
      <point x="186" y="243" type="curve"/>
      <point x="186" y="381"/>
      <point x="213" y="463"/>
      <point x="288" y="463" type="curve"/>
      <point x="360" y="463"/>
      <point x="371" y="396"/>
      <point x="371" y="324" type="curve"/>
      <point x="371" y="193"/>
      <point x="338" y="60"/>
    </contour>
    <contour>
      <point x="301" y="0" type="move" name="bottom"/>
    </contour>
    <contour>
      <point x="301" y="258" type="move" name="center"/>
    </contour>
    <contour>
      <point x="301" y="516" type="move" name="top"/>
    </contour>
    <contour>
      <point x="577" y="516" type="move" name="topright"/>
    </contour>
  </outline>
</glyph>
<glyph name="e" format="1">
  <advance width="532"/>
  <unicode hex="0065"/>
  <outline>
    <contour>
      <point x="294" y="-14" type="curve"/>
      <point x="389" y="-14"/>
      <point x="459" y="23"/>
      <point x="485" y="88" type="curve"/>
      <point x="500" y="125"/>
      <point x="490" y="140"/>
      <point x="476" y="146" type="curve"/>
      <point x="454" y="104"/>
      <point x="407" y="71"/>
      <point x="333" y="71" type="curve"/>
      <point x="239" y="71"/>
      <point x="186" y="123"/>
      <point x="186" y="278" type="curve"/>
      <point x="186" y="407"/>
      <point x="224" y="485"/>
      <point x="290" y="485" type="curve"/>
      <point x="322" y="485"/>
      <point x="353" y="469"/>
      <point x="353" y="402" type="curve"/>
      <point x="353" y="284"/>
      <point x="264" y="275"/>
      <point x="205" y="276" type="curve"/>
      <point x="161" y="277"/>
      <point x="134" y="282"/>
      <point x="106" y="285" type="curve"/>
      <point x="102" y="244" type="line"/>
      <point x="172" y="227"/>
      <point x="232" y="226"/>
      <point x="286" y="226" type="curve"/>
      <point x="413" y="226"/>
      <point x="501" y="280"/>
      <point x="501" y="379" type="curve"/>
      <point x="501" y="480"/>
      <point x="410" y="531"/>
      <point x="295" y="531" type="curve"/>
      <point x="129" y="531"/>
      <point x="39" y="428"/>
      <point x="39" y="260" type="curve"/>
      <point x="39" y="85"/>
      <point x="139" y="-14"/>
    </contour>
    <contour>
      <point x="273" y="0" type="move" name="bottom"/>
    </contour>
    <contour>
      <point x="370" y="3" type="move" name="ogonek"/>
    </contour>
    <contour>
      <point x="277" y="516" type="move" name="top"/>
    </contour>
  </outline>
</glyph>
<glyph name="g" format="1">
  <advance width="552"/>
  <unicode hex="0067"/>
  <outline>
    <contour>
      <point x="234" y="-224" type="curve"/>
      <point x="387" y="-224"/>
      <point x="500" y="-155"/>
      <point x="500" y="44" type="curve"/>
      <point x="500" y="465" type="line"/>
      <point x="451" y="506"/>
      <point x="372" y="531"/>
      <point x="285" y="531" type="curve"/>
      <point x="105" y="531"/>
      <point x="39" y="413"/>
      <point x="39" y="249" type="curve"/>
      <point x="39" y="68"/>
      <point x="112" y="2"/>
      <point x="217" y="2" type="curve"/>
      <point x="292" y="2"/>
      <point x="342" y="37"/>
      <point x="365" y="100" type="curve"/>
      <point x="364" y="76"/>
      <point x="364" y="43"/>
      <point x="364" y="25" type="curve"/>
      <point x="364" y="-98"/>
      <point x="322" y="-183"/>
      <point x="238" y="-183" type="curve"/>
      <point x="189" y="-183"/>
      <point x="170" y="-154"/>
      <point x="170" y="-117" type="curve"/>
      <point x="170" y="-91"/>
      <point x="180" y="-66"/>
      <point x="200" y="-48" type="curve"/>
      <point x="188" y="-33"/>
      <point x="166" y="-25"/>
      <point x="137" y="-25" type="curve"/>
      <point x="82" y="-25"/>
      <point x="43" y="-58"/>
      <point x="43" y="-109" type="curve"/>
      <point x="43" y="-192"/>
      <point x="133" y="-224"/>
    </contour>
    <contour>
      <point x="259" y="65" type="curve"/>
      <point x="202" y="65"/>
      <point x="185" y="109"/>
      <point x="185" y="235" type="curve"/>
      <point x="185" y="393"/>
      <point x="206" y="485"/>
      <point x="293" y="485" type="curve"/>
      <point x="320" y="485"/>
      <point x="347" y="477"/>
      <point x="364" y="464" type="curve"/>
      <point x="363" y="249" type="line" smooth="yes"/>
      <point x="362" y="133"/>
      <point x="327" y="65"/>
    </contour>
    <contour>
      <point x="279" y="0" type="move" name="bottom"/>
    </contour>
    <contour>
      <point x="291" y="522" type="move" name="top"/>
    </contour>
  </outline>
</glyph>
<glyph name="k" format="1">
  <advance width="552"/>
  <unicode hex="006B"/>
  <outline>
    <contour>
      <point x="141" y="-15" type="curve"/>
      <point x="185" y="-15"/>
      <point x="208" y="2"/>
      <point x="224" y="15" type="curve"/>
      <point x="202" y="65"/>
      <point x="201" y="94"/>
      <point x="201" y="201" type="curve"/>
      <point x="222" y="204"/>
      <point x="242" y="209"/>
      <point x="268" y="216" type="curve"/>
      <point x="330" y="66" type="line" smooth="yes"/>
      <point x="352" y="9"/>
      <point x="393" y="-15"/>
      <point x="438" y="-15" type="curve"/>
      <point x="495" y="-15"/>
      <point x="537" y="21"/>
      <point x="537" y="64" type="curve"/>
      <point x="537" y="79"/>
      <point x="532" y="95"/>
      <point x="519" y="109" type="curve"/>
      <point x="509" y="102"/>
      <point x="499" y="100"/>
      <point x="491" y="100" type="curve"/>
      <point x="470" y="100"/>
      <point x="464" y="114"/>
      <point x="447" y="143" type="curve"/>
      <point x="421" y="187" type="line" smooth="yes"/>
      <point x="402" y="218"/>
      <point x="384" y="240"/>
      <point x="359" y="245" type="curve"/>
      <point x="432" y="280"/>
      <point x="503" y="337"/>
      <point x="503" y="420" type="curve"/>
      <point x="503" y="479"/>
      <point x="468" y="531"/>
      <point x="376" y="531" type="curve"/>
      <point x="279" y="531"/>
      <point x="219" y="475"/>
      <point x="192" y="392" type="curve"/>
      <point x="199" y="379" type="line"/>
      <point x="200" y="456" type="line" smooth="yes"/>
      <point x="204" y="542"/>
      <point x="198" y="583"/>
      <point x="221" y="703" type="curve"/>
      <point x="210" y="713"/>
      <point x="183" y="733"/>
      <point x="143" y="733" type="curve"/>
      <point x="98" y="733"/>
      <point x="64" y="707"/>
      <point x="65" y="662" type="curve"/>
      <point x="65" y="63" type="line" smooth="yes"/>
      <point x="65" y="20"/>
      <point x="78" y="-15"/>
    </contour>
    <contour>
      <point x="201" y="250" type="curve"/>
      <point x="201" y="366"/>
      <point x="254" y="463"/>
      <point x="321" y="463" type="curve"/>
      <point x="345" y="463"/>
      <point x="363" y="450"/>
      <point x="363" y="411" type="curve"/>
      <point x="363" y="327"/>
      <point x="275" y="272"/>
    </contour>
    <contour>
      <point x="276" y="0" type="move" name="bottom"/>
    </contour>
    <contour>
      <point x="276" y="516" type="move" name="top"/>
    </contour>
  </outline>
</glyph>
<glyph name="m" format="1">
  <advance width="870"/>
  <unicode hex="006D"/>
  <outline>
    <contour>
      <point x="163" y="-15" type="curve"/>
      <point x="206" y="-15"/>
      <point x="230" y="4"/>
      <point x="242" y="15" type="curve"/>
      <point x="219" y="69"/>
      <point x="219" y="105"/>
      <point x="219" y="233" type="curve"/>
      <point x="219" y="391"/>
      <point x="258" y="468"/>
      <point x="313" y="468" type="curve"/>
      <point x="368" y="468"/>
      <point x="379" y="410"/>
      <point x="379" y="309" type="curve"/>
      <point x="379" y="56" type="line" smooth="yes"/>
      <point x="379" y="12"/>
      <point x="412" y="-15"/>
      <point x="455" y="-15" type="curve"/>
      <point x="491" y="-15"/>
      <point x="514" y="0"/>
      <point x="532" y="16" type="curve"/>
      <point x="515" y="60"/>
      <point x="512" y="116"/>
      <point x="512" y="146" type="curve"/>
      <point x="512" y="238" type="line" smooth="yes"/>
      <point x="513" y="391"/>
      <point x="560" y="468"/>
      <point x="613" y="468" type="curve"/>
      <point x="669" y="468"/>
      <point x="672" y="393"/>
      <point x="672" y="309" type="curve"/>
      <point x="672" y="56" type="line" smooth="yes"/>
      <point x="672" y="12"/>
      <point x="706" y="-15"/>
      <point x="751" y="-15" type="curve"/>
      <point x="787" y="-15"/>
      <point x="812" y="0"/>
      <point x="830" y="16" type="curve"/>
      <point x="813" y="60"/>
      <point x="810" y="116"/>
      <point x="810" y="146" type="curve"/>
      <point x="810" y="331" type="line" smooth="yes"/>
      <point x="810" y="463"/>
      <point x="760" y="531"/>
      <point x="658" y="531" type="curve"/>
      <point x="566" y="531"/>
      <point x="512" y="471"/>
      <point x="493" y="383" type="curve"/>
      <point x="508" y="379" type="line"/>
      <point x="496" y="479"/>
      <point x="452" y="531"/>
      <point x="360" y="531" type="curve"/>
      <point x="262" y="531"/>
      <point x="213" y="470"/>
      <point x="193" y="379" type="curve"/>
      <point x="202" y="356" type="line"/>
      <point x="202" y="388" type="line" smooth="yes"/>
      <point x="202" y="485"/>
      <point x="163" y="531"/>
      <point x="98" y="531" type="curve"/>
      <point x="46" y="531"/>
      <point x="15" y="500"/>
      <point x="15" y="458" type="curve"/>
      <point x="15" y="443"/>
      <point x="19" y="429"/>
      <point x="28" y="415" type="curve"/>
      <point x="34" y="425"/>
      <point x="47" y="429"/>
      <point x="55" y="429" type="curve"/>
      <point x="73" y="429"/>
      <point x="83" y="413"/>
      <point x="83" y="376" type="curve"/>
      <point x="84" y="63" type="line" smooth="yes"/>
      <point x="84" y="15"/>
      <point x="118" y="-15"/>
    </contour>
    <contour>
      <point x="462" y="0" type="move" name="bottom"/>
    </contour>
    <contour>
      <point x="436" y="516" type="move" name="top"/>
    </contour>
  </outline>
</glyph>
<glyph name="n" format="1">
  <advance width="588"/>
  <unicode hex="006E"/>
  <outline>
    <contour>
      <point x="161" y="-15" type="curve"/>
      <point x="198" y="-15"/>
      <point x="227" y="4"/>
      <point x="239" y="15" type="curve"/>
      <point x="216" y="69"/>
      <point x="216" y="105"/>
      <point x="216" y="235" type="curve"/>
      <point x="216" y="387"/>
      <point x="258" y="463"/>
      <point x="319" y="463" type="curve"/>
      <point x="377" y="463"/>
      <point x="389" y="406"/>
      <point x="390" y="309" type="curve"/>
      <point x="390" y="56" type="line" smooth="yes"/>
      <point x="390" y="12"/>
      <point x="424" y="-15"/>
      <point x="469" y="-15" type="curve"/>
      <point x="503" y="-15"/>
      <point x="529" y="-1"/>
      <point x="548" y="16" type="curve"/>
      <point x="530" y="60"/>
      <point x="528" y="116"/>
      <point x="527" y="146" type="curve"/>
      <point x="527" y="331" type="line" smooth="yes"/>
      <point x="527" y="464"/>
      <point x="476" y="531"/>
      <point x="366" y="531" type="curve"/>
      <point x="254" y="531"/>
      <point x="199" y="460"/>
      <point x="183" y="340" type="curve"/>
      <point x="200" y="371" type="line"/>
      <point x="200" y="401" type="line" smooth="yes"/>
      <point x="200" y="489"/>
      <point x="159" y="531"/>
      <point x="97" y="531" type="curve"/>
      <point x="44" y="531"/>
      <point x="15" y="501"/>
      <point x="15" y="460" type="curve"/>
      <point x="15" y="444"/>
      <point x="19" y="431"/>
      <point x="28" y="417" type="curve"/>
      <point x="34" y="427"/>
      <point x="47" y="429"/>
      <point x="54" y="429" type="curve"/>
      <point x="71" y="429"/>
      <point x="79" y="414"/>
      <point x="80" y="376" type="curve"/>
      <point x="80" y="63" type="line" smooth="yes"/>
      <point x="80" y="15"/>
      <point x="114" y="-15"/>
    </contour>
    <contour>
      <point x="312" y="0" type="move" name="bottom"/>
    </contour>
    <contour>
      <point x="312" y="516" type="move" name="top"/>
    </contour>
  </outline>
</glyph>
<glyph name="p" format="1">
  <advance width="590"/>
  <unicode hex="0070"/>
  <outline>
    <contour>
      <point x="371" y="531" type="curve"/>
      <point x="268" y="531"/>
      <point x="204" y="460"/>
      <point x="186" y="307" type="curve"/>
      <point x="207" y="297" type="line"/>
      <point x="207" y="343" type="line" smooth="yes"/>
      <point x="207" y="455"/>
      <point x="174" y="526"/>
      <point x="98" y="526" type="curve"/>
      <point x="49" y="526"/>
      <point x="15" y="497"/>
      <point x="15" y="456" type="curve"/>
      <point x="15" y="444"/>
      <point x="19" y="427"/>
      <point x="28" y="413" type="curve"/>
      <point x="34" y="422"/>
      <point x="47" y="424"/>
      <point x="54" y="424" type="curve"/>
      <point x="72" y="424"/>
      <point x="80" y="408"/>
      <point x="80" y="372" type="curve"/>
      <point x="79" y="-146" type="line" smooth="yes"/>
      <point x="79" y="-190"/>
      <point x="114" y="-216"/>
      <point x="158" y="-216" type="curve"/>
      <point x="197" y="-216"/>
      <point x="225" y="-197"/>
      <point x="237" y="-186" type="curve"/>
      <point x="218" y="-120"/>
      <point x="215" y="-41"/>
      <point x="215" y="4" type="curve"/>
      <point x="215" y="44" type="line"/>
      <point x="234" y="6"/>
      <point x="276" y="-14"/>
      <point x="334" y="-14" type="curve"/>
      <point x="466" y="-14"/>
      <point x="551" y="86"/>
      <point x="551" y="277" type="curve"/>
      <point x="551" y="416"/>
      <point x="504" y="531"/>
    </contour>
    <contour>
      <point x="329" y="458" type="curve"/>
      <point x="389" y="458"/>
      <point x="404" y="390"/>
      <point x="404" y="278" type="curve"/>
      <point x="404" y="137"/>
      <point x="375" y="56"/>
      <point x="299" y="56" type="curve"/>
      <point x="239" y="56"/>
      <point x="217" y="104"/>
      <point x="217" y="207" type="curve"/>
      <point x="217" y="325"/>
      <point x="250" y="458"/>
    </contour>
    <contour>
      <point x="292" y="0" type="move" name="bottom"/>
    </contour>
    <contour>
      <point x="292" y="516" type="move" name="top"/>
    </contour>
  </outline>
</glyph>
<glyph name="q" format="1">
  <advance width="555"/>
  <unicode hex="0071"/>
  <outline>
    <contour>
      <point x="421" y="-225" type="curve"/>
      <point x="472" y="-224"/>
      <point x="502" y="-196"/>
      <point x="502" y="-154" type="curve"/>
      <point x="502" y="465" type="line"/>
      <point x="457" y="502"/>
      <point x="373" y="531"/>
      <point x="281" y="531" type="curve"/>
      <point x="107" y="531"/>
      <point x="39" y="412"/>
      <point x="39" y="242" type="curve"/>
      <point x="39" y="57"/>
      <point x="111" y="-15"/>
      <point x="214" y="-15" type="curve"/>
      <point x="288" y="-15"/>
      <point x="342" y="23"/>
      <point x="364" y="86" type="curve"/>
      <point x="364" y="43" type="line" smooth="yes"/>
      <point x="364" y="-17"/>
      <point x="368" y="-117"/>
      <point x="342" y="-194" type="curve"/>
      <point x="359" y="-209"/>
      <point x="383" y="-226"/>
    </contour>
    <contour>
      <point x="252" y="57" type="curve"/>
      <point x="202" y="57"/>
      <point x="187" y="123"/>
      <point x="186" y="239" type="curve"/>
      <point x="185" y="389"/>
      <point x="206" y="476"/>
      <point x="288" y="476" type="curve"/>
      <point x="319" y="476"/>
      <point x="347" y="466"/>
      <point x="365" y="455" type="curve"/>
      <point x="365" y="267" type="line" smooth="yes"/>
      <point x="365" y="166"/>
      <point x="326" y="57"/>
    </contour>
    <contour>
      <point x="273" y="50" type="move" name="bottom"/>
    </contour>
    <contour>
      <point x="273" y="390" type="move" name="top"/>
    </contour>
  </outline>
</glyph>
<glyph name="t" format="1">
  <advance width="355"/>
  <unicode hex="0074"/>
  <outline>
    <contour>
      <point x="203" y="-10" type="curve"/>
      <point x="271" y="-10"/>
      <point x="313" y="20"/>
      <point x="313" y="62" type="curve"/>
      <point x="313" y="74"/>
      <point x="309" y="91"/>
      <point x="299" y="105" type="curve"/>
      <point x="294" y="95"/>
      <point x="273" y="92"/>
      <point x="260" y="92" type="curve"/>
      <point x="230" y="92"/>
      <point x="215" y="110"/>
      <point x="215" y="145" type="curve"/>
      <point x="215" y="426" type="line" smooth="yes"/>
      <point x="215" y="508"/>
      <point x="218" y="556"/>
      <point x="235" y="620" type="curve"/>
      <point x="224" y="630"/>
      <point x="197" y="650"/>
      <point x="157" y="650" type="curve"/>
      <point x="112" y="650"/>
      <point x="78" y="624"/>
      <point x="78" y="580" type="curve"/>
      <point x="78" y="133" type="line" smooth="yes"/>
      <point x="78" y="45"/>
      <point x="122" y="-10"/>
    </contour>
    <contour>
      <point x="4" y="484" type="curve"/>
      <point x="3" y="451" type="line"/>
      <point x="16" y="453"/>
      <point x="50" y="455"/>
      <point x="63" y="455" type="curve"/>
      <point x="301" y="455" type="line" smooth="yes"/>
      <point x="320" y="455"/>
      <point x="335" y="466"/>
      <point x="336" y="488" type="curve"/>
      <point x="337" y="520" type="line"/>
      <point x="327" y="518"/>
      <point x="224" y="516"/>
      <point x="214" y="516" type="curve"/>
      <point x="40" y="516" type="line" smooth="yes"/>
      <point x="21" y="516"/>
      <point x="5" y="506"/>
    </contour>
    <contour>
      <point x="196" y="0" type="move" name="bottom"/>
    </contour>
    <contour>
      <point x="179" y="258" type="move" name="center"/>
    </contour>
    <contour>
      <point x="161" y="600" type="move" name="top"/>
    </contour>
    <contour>
      <point x="335" y="516" type="move" name="topright"/>
    </contour>
  </outline>
</glyph>
<glyph name="w" format="1">
  <advance width="836"/>
  <unicode hex="0077"/>
  <outline>
    <contour>
      <point x="236" y="-15" type="curve"/>
      <point x="269" y="-15"/>
      <point x="302" y="-8"/>
      <point x="335" y="5" type="curve"/>
      <point x="419" y="395" type="line"/>
      <point x="504" y="30" type="line" smooth="yes"/>
      <point x="512" y="-4"/>
      <point x="545" y="-15"/>
      <point x="576" y="-15" type="curve"/>
      <point x="607" y="-15"/>
      <point x="637" y="-8"/>
      <point x="669" y="5" type="curve"/>
      <point x="804" y="401" type="line"/>
      <point x="814" y="427"/>
      <point x="818" y="454"/>
      <point x="818" y="472" type="curve"/>
      <point x="818" y="513"/>
      <point x="796" y="530"/>
      <point x="743" y="530" type="curve"/>
      <point x="710" y="530"/>
      <point x="691" y="523"/>
      <point x="672" y="515" type="curve"/>
      <point x="677" y="508"/>
      <point x="681" y="498"/>
      <point x="681" y="482" type="curve"/>
      <point x="681" y="466"/>
      <point x="678" y="452"/>
      <point x="675" y="436" type="curve"/>
      <point x="600" y="78" type="line"/>
      <point x="512" y="479" type="line" smooth="yes"/>
      <point x="502" y="519"/>
      <point x="459" y="530"/>
      <point x="419" y="530" type="curve"/>
      <point x="395" y="529"/>
      <point x="359" y="527"/>
      <point x="330" y="515" type="curve"/>
      <point x="336" y="508"/>
      <point x="339" y="498"/>
      <point x="339" y="482" type="curve"/>
      <point x="339" y="466"/>
      <point x="337" y="451"/>
      <point x="334" y="436" type="curve"/>
      <point x="260" y="78" type="line"/>
      <point x="171" y="476" type="line" smooth="yes"/>
      <point x="163" y="512"/>
      <point x="132" y="530"/>
      <point x="90" y="530" type="curve"/>
      <point x="47" y="530"/>
      <point x="24" y="513"/>
      <point x="12" y="499" type="curve"/>
      <point x="29" y="481"/>
      <point x="38" y="450"/>
      <point x="44" y="434" type="curve"/>
      <point x="164" y="30" type="line" smooth="yes"/>
      <point x="175" y="-4"/>
      <point x="204" y="-15"/>
    </contour>
    <contour>
      <point x="418" y="0" type="move" name="bottom"/>
    </contour>
    <contour>
      <point x="418" y="516" type="move" name="top"/>
    </contour>
  </outline>
</glyph>
<glyph name="y" format="1">
  <advance width="558"/>
  <unicode hex="0079"/>
  <outline>
    <contour>
      <point x="245" y="-224" type="curve"/>
      <point x="396" y="-224"/>
      <point x="506" y="-153"/>
      <point x="506" y="53" type="curve"/>
      <point x="505" y="453" type="line" smooth="yes"/>
      <point x="505" y="502"/>
      <point x="470" y="531"/>
      <point x="426" y="531" type="curve"/>
      <point x="387" y="531"/>
      <point x="359" y="512"/>
      <point x="347" y="502" type="curve"/>
      <point x="370" y="447"/>
      <point x="370" y="412"/>
      <point x="370" y="283" type="curve"/>
      <point x="370" y="134"/>
      <point x="330" y="57"/>
      <point x="268" y="57" type="curve"/>
      <point x="215" y="57"/>
      <point x="203" y="113"/>
      <point x="203" y="216" type="curve"/>
      <point x="203" y="460" type="line" smooth="yes"/>
      <point x="203" y="505"/>
      <point x="169" y="531"/>
      <point x="124" y="531" type="curve"/>
      <point x="88" y="531"/>
      <point x="63" y="516"/>
      <point x="45" y="501" type="curve"/>
      <point x="62" y="456"/>
      <point x="65" y="401"/>
      <point x="65" y="370" type="curve"/>
      <point x="65" y="194" type="line" smooth="yes"/>
      <point x="65" y="48"/>
      <point x="117" y="-7"/>
      <point x="222" y="-7" type="curve"/>
      <point x="334" y="-7"/>
      <point x="386" y="66"/>
      <point x="403" y="186" type="curve"/>
      <point x="395" y="160" type="line"/>
      <point x="388" y="126"/>
      <point x="378" y="58"/>
      <point x="378" y="32" type="curve"/>
      <point x="378" y="-96"/>
      <point x="333" y="-183"/>
      <point x="248" y="-183" type="curve"/>
      <point x="202" y="-183"/>
      <point x="180" y="-155"/>
      <point x="180" y="-119" type="curve"/>
      <point x="180" y="-102"/>
      <point x="189" y="-82"/>
      <point x="209" y="-68" type="curve"/>
      <point x="197" y="-53"/>
      <point x="175" y="-45"/>
      <point x="147" y="-45" type="curve"/>
      <point x="91" y="-45"/>
      <point x="53" y="-75"/>
      <point x="53" y="-119" type="curve"/>
      <point x="53" y="-202"/>
      <point x="145" y="-224"/>
    </contour>
    <contour>
      <point x="269" y="-214" type="move" name="bottom"/>
    </contour>
    <contour>
      <point x="281" y="516" type="move" name="top"/>
    </contour>
  </outline>
</glyph>
<glyph name="z" format="1">
  <advance width="506"/>
  <unicode hex="007A"/>
  <outline>
    <contour>
      <point x="30" y="18" type="curve"/>
      <point x="46" y="-11" type="line"/>
      <point x="74" y="0"/>
      <point x="110" y="1"/>
      <point x="138" y="0" type="curve"/>
      <point x="353" y="-6" type="line" smooth="yes"/>
      <point x="446" y="-8"/>
      <point x="496" y="34"/>
      <point x="496" y="87" type="curve"/>
      <point x="496" y="113"/>
      <point x="479" y="155"/>
      <point x="436" y="176" type="curve"/>
      <point x="426" y="180"/>
      <point x="416" y="183"/>
      <point x="403" y="186" type="curve"/>
      <point x="404" y="173"/>
      <point x="401" y="158"/>
      <point x="390" y="146" type="curve"/>
      <point x="377" y="130"/>
      <point x="355" y="118"/>
      <point x="324" y="116" type="curve"/>
      <point x="130" y="106" type="line"/>
      <point x="153" y="79" type="line"/>
      <point x="437" y="404" type="line" smooth="yes"/>
      <point x="463" y="434"/>
      <point x="466" y="456"/>
      <point x="466" y="493" type="curve"/>
      <point x="453" y="528" type="line"/>
      <point x="426" y="518"/>
      <point x="391" y="517"/>
      <point x="362" y="518" type="curve"/>
      <point x="176" y="525" type="line" smooth="yes"/>
      <point x="66" y="529"/>
      <point x="23" y="486"/>
      <point x="23" y="432" type="curve"/>
      <point x="23" y="409"/>
      <point x="41" y="370"/>
      <point x="82" y="350" type="curve"/>
      <point x="92" y="344"/>
      <point x="104" y="341"/>
      <point x="116" y="339" type="curve"/>
      <point x="114" y="354"/>
      <point x="121" y="370"/>
      <point x="135" y="383" type="curve"/>
      <point x="148" y="395"/>
      <point x="169" y="406"/>
      <point x="194" y="409" type="curve"/>
      <point x="383" y="428" type="line"/>
      <point x="361" y="442" type="line"/>
      <point x="60" y="107" type="line" smooth="yes"/>
      <point x="34" y="80"/>
      <point x="30" y="57"/>
    </contour>
    <contour>
      <point x="253" y="0" type="move" name="bottom"/>
    </contour>
    <contour>
      <point x="253" y="518" type="move" name="top"/>
    </contour>
  </outline>
</glyph>
<glyph name="braceleft" format="1">
  <advance width="429"/>
  <unicode hex="007B"/>
  <outline>
    <contour>
      <point x="288" y="-178" type="curve"/>
      <point x="341" y="-178"/>
      <point x="378" y="-167"/>
      <point x="393" y="-159" type="curve"/>
      <point x="402" y="-153"/>
      <point x="399" y="-119"/>
      <point x="388" y="-116" type="curve"/>
      <point x="369" y="-123"/>
      <point x="353" y="-128"/>
      <point x="330" y="-128" type="curve"/>
      <point x="275" y="-128"/>
      <point x="245" y="-98"/>
      <point x="245" y="-36" type="curve"/>
      <point x="245" y="16"/>
      <point x="262" y="96"/>
      <point x="262" y="162" type="curve"/>
      <point x="262" y="238"/>
      <point x="240" y="276"/>
      <point x="211" y="285" type="curve"/>
      <point x="211" y="291" type="line"/>
      <point x="238" y="300"/>
      <point x="262" y="332"/>
      <point x="262" y="416" type="curve"/>
      <point x="262" y="487"/>
      <point x="245" y="560"/>
      <point x="245" y="608" type="curve"/>
      <point x="245" y="674"/>
      <point x="275" y="695"/>
      <point x="330" y="695" type="curve"/>
      <point x="353" y="695"/>
      <point x="369" y="691"/>
      <point x="388" y="684" type="curve"/>
      <point x="399" y="687"/>
      <point x="402" y="721"/>
      <point x="393" y="726" type="curve"/>
      <point x="378" y="735"/>
      <point x="341" y="746"/>
      <point x="288" y="746" type="curve"/>
      <point x="173" y="746"/>
      <point x="106" y="701"/>
      <point x="106" y="597" type="curve"/>
      <point x="106" y="550"/>
      <point x="122" y="482"/>
      <point x="122" y="408" type="curve"/>
      <point x="122" y="353"/>
      <point x="103" y="327"/>
      <point x="55" y="308" type="curve"/>
      <point x="55" y="268" type="line"/>
      <point x="101" y="249"/>
      <point x="122" y="228"/>
      <point x="122" y="172" type="curve"/>
      <point x="122" y="101"/>
      <point x="106" y="24"/>
      <point x="106" y="-30" type="curve"/>
      <point x="106" y="-133"/>
      <point x="173" y="-178"/>
    </contour>
  </outline>
</glyph>
<glyph name="bar" format="1">
  <advance width="361"/>
  <unicode hex="007C"/>
  <outline>
    <contour>
      <point x="116" y="730" type="line"/>
      <point x="116" y="-137" type="line"/>
      <point x="244" y="-137" type="line"/>
      <point x="244" y="730" type="line"/>
    </contour>
  </outline>
</glyph>
<glyph name="cent" format="1">
  <advance width="518"/>
  <unicode hex="00A2"/>
  <outline>
    <contour>
      <point x="428" y="-65" type="curve"/>
      <point x="440" y="-61"/>
      <point x="444" y="-56"/>
      <point x="448" y="-50" type="curve"/>
      <point x="440" y="-36"/>
      <point x="428" y="-7"/>
      <point x="416" y="31" type="curve"/>
      <point x="178" y="739" type="line"/>
      <point x="173" y="752"/>
      <point x="164" y="757"/>
      <point x="149" y="752" type="curve"/>
      <point x="137" y="748"/>
      <point x="134" y="743"/>
      <point x="129" y="737" type="curve"/>
      <point x="137" y="723"/>
      <point x="149" y="694"/>
      <point x="162" y="656" type="curve"/>
      <point x="400" y="-52" type="line" smooth="yes"/>
      <point x="404" y="-65"/>
      <point x="413" y="-70"/>
    </contour>
    <component base="c" xOffset="1" yOffset="95"/>
  </outline>
</glyph>
<glyph name="yen" format="1">
  <advance width="599"/>
  <unicode hex="00A5"/>
  <outline>
    <contour>
      <point x="80" y="218" type="curve"/>
      <point x="79" y="186" type="line"/>
      <point x="92" y="188"/>
      <point x="126" y="190"/>
      <point x="139" y="190" type="curve"/>
      <point x="479" y="190" type="line" smooth="yes"/>
      <point x="498" y="190"/>
      <point x="514" y="201"/>
      <point x="515" y="223" type="curve"/>
      <point x="516" y="255" type="line"/>
      <point x="506" y="253"/>
      <point x="353" y="251"/>
      <point x="343" y="251" type="curve"/>
      <point x="116" y="251" type="line" smooth="yes"/>
      <point x="97" y="251"/>
      <point x="81" y="240"/>
    </contour>
    <contour>
      <point x="80" y="297" type="curve"/>
      <point x="79" y="265" type="line"/>
      <point x="92" y="266"/>
      <point x="126" y="268"/>
      <point x="139" y="268" type="curve"/>
      <point x="479" y="268" type="line" smooth="yes"/>
      <point x="498" y="268"/>
      <point x="514" y="279"/>
      <point x="515" y="301" type="curve"/>
      <point x="516" y="333" type="line"/>
      <point x="506" y="331"/>
      <point x="353" y="330"/>
      <point x="343" y="330" type="curve"/>
      <point x="116" y="330" type="line" smooth="yes"/>
      <point x="97" y="330"/>
      <point x="81" y="319"/>
    </contour>
    <component base="Y"/>
  </outline>
</glyph>
<glyph name="section" format="1">
  <advance width="475"/>
  <unicode hex="00A7"/>
  <outline>
    <contour>
      <point x="220" y="-121" type="curve"/>
      <point x="389" y="-121"/>
      <point x="452" y="-39"/>
      <point x="452" y="42" type="curve"/>
      <point x="452" y="113"/>
      <point x="399" y="153"/>
      <point x="338" y="186" type="curve"/>
      <point x="421" y="212"/>
      <point x="452" y="272"/>
      <point x="452" y="329" type="curve"/>
      <point x="452" y="421"/>
      <point x="363" y="462"/>
      <point x="286" y="499" type="curve"/>
      <point x="222" y="529"/>
      <point x="164" y="557"/>
      <point x="164" y="611" type="curve"/>
      <point x="164" y="650"/>
      <point x="201" y="666"/>
      <point x="239" y="666" type="curve"/>
      <point x="283" y="666"/>
      <point x="310" y="645"/>
      <point x="321" y="614" type="curve"/>
      <point x="329" y="596"/>
      <point x="331" y="574"/>
      <point x="330" y="555" type="curve"/>
      <point x="341" y="553"/>
      <point x="351" y="552"/>
      <point x="364" y="553" type="curve"/>
      <point x="411" y="554"/>
      <point x="427" y="584"/>
      <point x="427" y="615" type="curve"/>
      <point x="427" y="680"/>
      <point x="351" y="712"/>
      <point x="245" y="712" type="curve"/>
      <point x="138" y="712"/>
      <point x="45" y="671"/>
      <point x="45" y="566" type="curve"/>
      <point x="45" y="488"/>
      <point x="91" y="445"/>
      <point x="147" y="412" type="curve"/>
      <point x="86" y="393"/>
      <point x="45" y="350"/>
      <point x="45" y="279" type="curve"/>
      <point x="45" y="171"/>
      <point x="132" y="130"/>
      <point x="209" y="93" type="curve"/>
      <point x="271" y="66"/>
      <point x="327" y="41"/>
      <point x="327" y="-11" type="curve"/>
      <point x="327" y="-53"/>
      <point x="289" y="-72"/>
      <point x="238" y="-72" type="curve"/>
      <point x="169" y="-72"/>
      <point x="136" y="-30"/>
      <point x="128" y="12" type="curve"/>
      <point x="124" y="29"/>
      <point x="123" y="47"/>
      <point x="127" y="65" type="curve"/>
      <point x="51" y="78"/>
      <point x="29" y="32"/>
      <point x="29" y="-3" type="curve"/>
      <point x="29" y="-71"/>
      <point x="90" y="-121"/>
    </contour>
    <contour>
      <point x="271" y="219" type="curve"/>
      <point x="214" y="246"/>
      <point x="164" y="274"/>
      <point x="164" y="323" type="curve"/>
      <point x="164" y="356"/>
      <point x="185" y="373"/>
      <point x="216" y="378" type="curve"/>
      <point x="275" y="351"/>
      <point x="327" y="325"/>
      <point x="327" y="277" type="curve"/>
      <point x="327" y="242"/>
      <point x="303" y="223"/>
    </contour>
  </outline>
</glyph>
<glyph name="copyright" format="1">
  <advance width="804"/>
  <unicode hex="00A9"/>
  <outline>
    <contour>
      <point x="403" y="-12" type="curve"/>
      <point x="601" y="-12"/>
      <point x="761" y="150"/>
      <point x="761" y="351" type="curve"/>
      <point x="761" y="550"/>
      <point x="601" y="712"/>
      <point x="403" y="712" type="curve"/>
      <point x="204" y="712"/>
      <point x="44" y="551"/>
      <point x="44" y="351" type="curve"/>
      <point x="44" y="150"/>
      <point x="204" y="-12"/>
    </contour>
    <contour>
      <point x="402" y="131" type="curve"/>
      <point x="482" y="131"/>
      <point x="567" y="158"/>
      <point x="567" y="220" type="curve"/>
      <point x="567" y="258"/>
      <point x="528" y="274"/>
      <point x="492" y="268" type="curve"/>
      <point x="483" y="196"/>
      <point x="453" y="163"/>
      <point x="407" y="163" type="curve"/>
      <point x="346" y="163"/>
      <point x="319" y="225"/>
      <point x="319" y="351" type="curve"/>
      <point x="319" y="476"/>
      <point x="347" y="539"/>
      <point x="411" y="539" type="curve"/>
      <point x="454" y="539"/>
      <point x="478" y="508"/>
      <point x="484" y="439" type="curve"/>
      <point x="532" y="438"/>
      <point x="557" y="467"/>
      <point x="557" y="493" type="curve"/>
      <point x="557" y="544"/>
      <point x="479" y="569"/>
      <point x="410" y="569" type="curve"/>
      <point x="290" y="569"/>
      <point x="219" y="489"/>
      <point x="219" y="351" type="curve"/>
      <point x="219" y="211"/>
      <point x="288" y="131"/>
    </contour>
    <contour>
      <point x="402" y="39" type="curve"/>
      <point x="232" y="39"/>
      <point x="96" y="177"/>
      <point x="96" y="351" type="curve"/>
      <point x="96" y="523"/>
      <point x="232" y="662"/>
      <point x="402" y="662" type="curve"/>
      <point x="571" y="662"/>
      <point x="708" y="523"/>
      <point x="708" y="351" type="curve"/>
      <point x="708" y="178"/>
      <point x="571" y="39"/>
    </contour>
  </outline>
</glyph>
<glyph name="ordfeminine" format="1">
  <advance width="409"/>
  <unicode hex="00AA"/>
  <outline>
    <contour>
      <point x="335" y="365" type="curve"/>
      <point x="380" y="365"/>
      <point x="405" y="389"/>
      <point x="405" y="419" type="curve"/>
      <point x="405" y="428"/>
      <point x="403" y="441"/>
      <point x="395" y="451" type="curve"/>
      <point x="392" y="447"/>
      <point x="382" y="446"/>
      <point x="378" y="446" type="curve"/>
      <point x="362" y="446"/>
      <point x="354" y="457"/>
      <point x="354" y="480" type="curve"/>
      <point x="354" y="578" type="line" smooth="yes"/>
      <point x="354" y="683"/>
      <point x="307" y="720"/>
      <point x="198" y="720" type="curve"/>
      <point x="103" y="720"/>
      <point x="42" y="690"/>
      <point x="42" y="637" type="curve"/>
      <point x="42" y="601"/>
      <point x="70" y="575"/>
      <point x="118" y="575" type="curve"/>
      <point x="139" y="575"/>
      <point x="160" y="581"/>
      <point x="172" y="592" type="curve"/>
      <point x="153" y="604"/>
      <point x="149" y="624"/>
      <point x="149" y="641" type="curve"/>
      <point x="149" y="672"/>
      <point x="166" y="686"/>
      <point x="192" y="686" type="curve"/>
      <point x="234" y="686"/>
      <point x="248" y="652"/>
      <point x="248" y="586" type="curve"/>
      <point x="248" y="569" type="line"/>
      <point x="221" y="567"/>
      <point x="189" y="564"/>
      <point x="151" y="555" type="curve"/>
      <point x="94" y="541"/>
      <point x="25" y="510"/>
      <point x="25" y="441" type="curve"/>
      <point x="25" y="389"/>
      <point x="66" y="364"/>
      <point x="120" y="364" type="curve"/>
      <point x="207" y="364"/>
      <point x="259" y="429"/>
      <point x="271" y="497" type="curve"/>
      <point x="270" y="518" type="line"/>
      <point x="263" y="491" type="line" smooth="yes"/>
      <point x="219" y="415"/>
      <point x="285" y="365"/>
    </contour>
    <contour>
      <point x="174" y="435" type="curve"/>
      <point x="148" y="432"/>
      <point x="138" y="451"/>
      <point x="138" y="470" type="curve"/>
      <point x="138" y="492"/>
      <point x="153" y="511"/>
      <point x="174" y="522" type="curve"/>
      <point x="196" y="534"/>
      <point x="223" y="535"/>
      <point x="250" y="536" type="curve"/>
      <point x="251" y="476"/>
      <point x="208" y="440"/>
    </contour>
  </outline>
</glyph>
<glyph name="logicalnot" format="1">
  <advance width="530"/>
  <unicode hex="00AC"/>
  <outline>
    <contour>
      <point x="58" y="328" type="curve"/>
      <point x="458" y="328" type="line"/>
      <point x="458" y="400" type="line"/>
      <point x="58" y="400" type="line"/>
      <point x="49" y="376"/>
      <point x="49" y="352"/>
    </contour>
    <contour>
      <point x="391" y="395" type="line"/>
      <point x="391" y="230" type="line"/>
      <point x="413" y="221"/>
      <point x="436" y="221"/>
      <point x="458" y="230" type="curve"/>
      <point x="458" y="395" type="line"/>
    </contour>
  </outline>
</glyph>
<glyph name="plusminus" format="1">
  <advance width="577"/>
  <unicode hex="00B1"/>
  <outline>
    <contour>
      <point x="89" y="354" type="curve"/>
      <point x="488" y="354" type="line"/>
      <point x="497" y="378"/>
      <point x="497" y="402"/>
      <point x="488" y="426" type="curve"/>
      <point x="89" y="426" type="line"/>
      <point x="80" y="402"/>
      <point x="80" y="378"/>
    </contour>
    <contour>
      <point x="89" y="117" type="curve"/>
      <point x="488" y="117" type="line"/>
      <point x="497" y="141"/>
      <point x="497" y="165"/>
      <point x="488" y="189" type="curve"/>
      <point x="89" y="189" type="line"/>
      <point x="80" y="165"/>
      <point x="80" y="141"/>
    </contour>
    <contour>
      <point x="324" y="240" type="curve"/>
      <point x="324" y="539" type="line"/>
      <point x="300" y="548"/>
      <point x="276" y="548"/>
      <point x="252" y="539" type="curve"/>
      <point x="252" y="240" type="line"/>
      <point x="276" y="231"/>
      <point x="300" y="231"/>
    </contour>
  </outline>
</glyph>
<glyph name="twosuperior" format="1">
  <advance width="429"/>
  <unicode hex="00B2"/>
  <outline>
    <contour>
      <point x="44" y="228" type="curve"/>
      <point x="377" y="228" type="line" smooth="yes"/>
      <point x="413" y="229"/>
      <point x="412" y="338"/>
      <point x="384" y="361" type="curve"/>
      <point x="347" y="326"/>
      <point x="173" y="289"/>
      <point x="106" y="286" type="curve"/>
      <point x="150" y="281"/>
      <point x="388" y="414"/>
      <point x="388" y="589" type="curve"/>
      <point x="388" y="673"/>
      <point x="313" y="712"/>
      <point x="211" y="712" type="curve"/>
      <point x="103" y="712"/>
      <point x="34" y="673"/>
      <point x="34" y="613" type="curve"/>
      <point x="34" y="584"/>
      <point x="50" y="535"/>
      <point x="127" y="535" type="curve"/>
      <point x="128" y="597"/>
      <point x="137" y="677"/>
      <point x="202" y="677" type="curve"/>
      <point x="250" y="677"/>
      <point x="267" y="638"/>
      <point x="267" y="602" type="curve"/>
      <point x="267" y="427"/>
      <point x="52" y="300"/>
      <point x="31" y="290" type="curve"/>
      <point x="23" y="263"/>
      <point x="33" y="240"/>
    </contour>
  </outline>
</glyph>
<glyph name="threesuperior" format="1">
  <advance width="435"/>
  <unicode hex="00B3"/>
  <outline>
    <contour>
      <point x="203" y="220" type="curve"/>
      <point x="328" y="220"/>
      <point x="410" y="276"/>
      <point x="410" y="362" type="curve"/>
      <point x="410" y="432"/>
      <point x="345" y="465"/>
      <point x="261" y="477" type="curve"/>
      <point x="332" y="496"/>
      <point x="389" y="543"/>
      <point x="389" y="598" type="curve"/>
      <point x="389" y="694"/>
      <point x="283" y="712"/>
      <point x="212" y="712" type="curve"/>
      <point x="105" y="712"/>
      <point x="48" y="681"/>
      <point x="48" y="625" type="curve"/>
      <point x="48" y="612"/>
      <point x="54" y="570"/>
      <point x="131" y="572" type="curve"/>
      <point x="131" y="623"/>
      <point x="143" y="677"/>
      <point x="204" y="677" type="curve"/>
      <point x="249" y="677"/>
      <point x="264" y="652"/>
      <point x="264" y="607" type="curve"/>
      <point x="264" y="565"/>
      <point x="230" y="502"/>
      <point x="116" y="495" type="curve"/>
      <point x="116" y="457" type="line"/>
      <point x="201" y="458"/>
      <point x="284" y="431"/>
      <point x="284" y="350" type="curve"/>
      <point x="284" y="292"/>
      <point x="247" y="254"/>
      <point x="196" y="254" type="curve"/>
      <point x="110" y="254"/>
      <point x="107" y="329"/>
      <point x="104" y="362" type="curve"/>
      <point x="35" y="362"/>
      <point x="23" y="320"/>
      <point x="23" y="297" type="curve"/>
      <point x="23" y="271"/>
      <point x="47" y="220"/>
    </contour>
  </outline>
</glyph>
<glyph name="micro" format="1">
  <advance width="592"/>
  <unicode hex="00B5"/>
  <outline>
    <contour>
      <point x="231" y="-15" type="curve"/>
      <point x="341" y="-15"/>
      <point x="395" y="56"/>
      <point x="411" y="176" type="curve"/>
      <point x="394" y="146" type="line"/>
      <point x="394" y="115" type="line" smooth="yes"/>
      <point x="394" y="28"/>
      <point x="434" y="-14"/>
      <point x="497" y="-14" type="curve"/>
      <point x="550" y="-14"/>
      <point x="579" y="15"/>
      <point x="579" y="57" type="curve"/>
      <point x="579" y="72"/>
      <point x="575" y="85"/>
      <point x="566" y="99" type="curve"/>
      <point x="559" y="90"/>
      <point x="547" y="88"/>
      <point x="540" y="88" type="curve"/>
      <point x="523" y="88"/>
      <point x="514" y="102"/>
      <point x="514" y="140" type="curve"/>
      <point x="513" y="453" type="line"/>
      <point x="513" y="502"/>
      <point x="478" y="531"/>
      <point x="434" y="531" type="curve"/>
      <point x="395" y="531"/>
      <point x="367" y="512"/>
      <point x="355" y="502" type="curve"/>
      <point x="378" y="447"/>
      <point x="378" y="411"/>
      <point x="378" y="282" type="curve"/>
      <point x="378" y="126"/>
      <point x="338" y="48"/>
      <point x="278" y="48" type="curve"/>
      <point x="223" y="48"/>
      <point x="211" y="103"/>
      <point x="211" y="208" type="curve"/>
      <point x="211" y="460" type="line" smooth="yes"/>
      <point x="211" y="505"/>
      <point x="177" y="531"/>
      <point x="132" y="531" type="curve"/>
      <point x="96" y="531"/>
      <point x="71" y="516"/>
      <point x="53" y="501" type="curve"/>
      <point x="70" y="456"/>
      <point x="73" y="400"/>
      <point x="73" y="370" type="curve"/>
      <point x="73" y="186" type="line" smooth="yes"/>
      <point x="73" y="40"/>
      <point x="124" y="-15"/>
    </contour>
    <contour>
      <point x="152" y="-216" type="curve"/>
      <point x="191" y="-216"/>
      <point x="219" y="-197"/>
      <point x="231" y="-186" type="curve"/>
      <point x="203" y="-132"/>
      <point x="194" y="-67"/>
      <point x="192" y="-21" type="curve"/>
      <point x="192" y="38" type="line"/>
      <point x="73" y="332" type="line"/>
      <point x="73" y="-146" type="line" smooth="yes"/>
      <point x="73" y="-190"/>
      <point x="107" y="-216"/>
    </contour>
  </outline>
</glyph>
<glyph name="paragraph" format="1">
  <advance width="805"/>
  <unicode hex="00B6"/>
  <outline>
    <contour>
      <point x="658" y="-195" type="curve"/>
      <point x="694" y="-195"/>
      <point x="738" y="-185"/>
      <point x="750" y="-164" type="curve"/>
      <point x="724" y="-159"/>
      <point x="709" y="-80"/>
      <point x="709" y="-13" type="curve"/>
      <point x="709" y="417" type="line" smooth="yes"/>
      <point x="709" y="609"/>
      <point x="583" y="712"/>
      <point x="373" y="712" type="curve"/>
      <point x="91" y="712"/>
      <point x="50" y="557"/>
      <point x="50" y="465" type="curve"/>
      <point x="50" y="296"/>
      <point x="208" y="223"/>
      <point x="354" y="250" type="curve"/>
      <point x="358" y="305" type="line"/>
      <point x="265" y="281"/>
      <point x="186" y="335"/>
      <point x="186" y="466" type="curve"/>
      <point x="186" y="555"/>
      <point x="232" y="660"/>
      <point x="373" y="660" type="curve"/>
      <point x="502" y="660"/>
      <point x="573" y="557"/>
      <point x="573" y="409" type="curve"/>
      <point x="573" y="-98" type="line" smooth="yes"/>
      <point x="573" y="-159"/>
      <point x="619" y="-195"/>
    </contour>
    <contour>
      <point x="399" y="-15" type="curve"/>
      <point x="434" y="-15"/>
      <point x="459" y="5"/>
      <point x="469" y="16" type="curve"/>
      <point x="452" y="60"/>
      <point x="449" y="108"/>
      <point x="449" y="146" type="curve"/>
      <point x="449" y="489" type="line" smooth="yes"/>
      <point x="449" y="534"/>
      <point x="419" y="560"/>
      <point x="379" y="560" type="curve"/>
      <point x="341" y="560"/>
      <point x="314" y="540"/>
      <point x="302" y="530" type="curve"/>
      <point x="319" y="485"/>
      <point x="322" y="437"/>
      <point x="322" y="399" type="curve"/>
      <point x="322" y="56" type="line" smooth="yes"/>
      <point x="322" y="12"/>
      <point x="356" y="-15"/>
    </contour>
  </outline>
</glyph>
<glyph name="onesuperior" format="1">
  <advance width="360"/>
  <unicode hex="00B9"/>
  <outline>
    <contour>
      <point x="235" y="222" type="curve"/>
      <point x="267" y="222"/>
      <point x="290" y="239"/>
      <point x="299" y="248" type="curve"/>
      <point x="285" y="286"/>
      <point x="283" y="323"/>
      <point x="283" y="348" type="curve"/>
      <point x="283" y="651" type="line" smooth="yes"/>
      <point x="283" y="690"/>
      <point x="255" y="712"/>
      <point x="218" y="712" type="curve"/>
      <point x="201" y="712"/>
      <point x="184" y="707"/>
      <point x="174" y="703" type="curve"/>
      <point x="159" y="694"/>
      <point x="31" y="612"/>
      <point x="27" y="611" type="curve"/>
      <point x="27" y="605"/>
      <point x="22" y="535"/>
      <point x="74" y="535" type="curve"/>
      <point x="103" y="535"/>
      <point x="148" y="581"/>
      <point x="173" y="612" type="curve"/>
      <point x="175" y="603"/>
      <point x="175" y="596"/>
      <point x="175" y="586" type="curve"/>
      <point x="175" y="282" type="line" smooth="yes"/>
      <point x="175" y="244"/>
      <point x="201" y="222"/>
    </contour>
  </outline>
</glyph>
<glyph name="Eth" format="1">
  <advance width="658"/>
  <unicode hex="00D0"/>
  <outline>
    <contour>
      <point x="21" y="324" type="curve"/>
      <point x="341" y="324" type="line"/>
      <point x="346" y="342"/>
      <point x="346" y="358"/>
      <point x="341" y="375" type="curve"/>
      <point x="21" y="375" type="line"/>
      <point x="15" y="358"/>
      <point x="15" y="342"/>
    </contour>
    <component base="D"/>
  </outline>
</glyph>
<glyph name="multiply" format="1">
  <advance width="503"/>
  <unicode hex="00D7"/>
  <outline>
    <contour>
      <point x="71" y="476" type="curve"/>
      <point x="382" y="165" type="line"/>
      <point x="405" y="176"/>
      <point x="422" y="193"/>
      <point x="432" y="216" type="curve"/>
      <point x="122" y="527" type="line"/>
      <point x="99" y="516"/>
      <point x="82" y="499"/>
    </contour>
    <contour>
      <point x="121" y="165" type="curve"/>
      <point x="432" y="476" type="line"/>
      <point x="422" y="499"/>
      <point x="405" y="516"/>
      <point x="382" y="527" type="curve"/>
      <point x="71" y="216" type="line"/>
      <point x="81" y="193"/>
      <point x="98" y="176"/>
    </contour>
  </outline>
</glyph>
<glyph name="Oslash" format="1">
  <advance width="662"/>
  <unicode hex="00D8"/>
  <outline>
    <contour>
      <point x="125" y="-15" type="curve"/>
      <point x="558" y="706" type="line"/>
      <point x="549" y="723"/>
      <point x="535" y="732"/>
      <point x="515" y="731" type="curve"/>
      <point x="82" y="10" type="line"/>
      <point x="92" y="-7"/>
      <point x="106" y="-15"/>
    </contour>
    <component base="O"/>
    <contour>
      <point x="331" y="0" type="move" name="bottom"/>
    </contour>
    <contour>
      <point x="331" y="698" type="move" name="top"/>
    </contour>
  </outline>
</glyph>
<glyph name="Thorn" format="1">
  <advance width="586"/>
  <unicode hex="00DE"/>
  <outline>
    <contour>
      <point x="246" y="140" type="curve"/>
      <point x="442" y="140"/>
      <point x="553" y="225"/>
      <point x="553" y="375" type="curve"/>
      <point x="553" y="523"/>
      <point x="443" y="582"/>
      <point x="249" y="582" type="curve"/>
      <point x="231" y="582"/>
      <point x="212" y="582"/>
      <point x="194" y="582" type="curve"/>
      <point x="194" y="535" type="line"/>
      <point x="203" y="536"/>
      <point x="243" y="534"/>
      <point x="252" y="534" type="curve"/>
      <point x="363" y="534"/>
      <point x="400" y="464"/>
      <point x="400" y="365" type="curve"/>
      <point x="400" y="261"/>
      <point x="362" y="187"/>
      <point x="239" y="187" type="curve"/>
      <point x="223" y="187"/>
      <point x="211" y="187"/>
      <point x="198" y="189" type="curve"/>
      <point x="205" y="141" type="line"/>
      <point x="219" y="140"/>
      <point x="232" y="140"/>
    </contour>
    <contour>
      <point x="163" y="-15" type="curve"/>
      <point x="202" y="-15"/>
      <point x="231" y="5"/>
      <point x="243" y="16" type="curve"/>
      <point x="225" y="60"/>
      <point x="223" y="108"/>
      <point x="223" y="146" type="curve"/>
      <point x="222" y="641" type="line" smooth="yes"/>
      <point x="222" y="685"/>
      <point x="188" y="711"/>
      <point x="143" y="711" type="curve"/>
      <point x="104" y="711"/>
      <point x="75" y="692"/>
      <point x="63" y="681" type="curve"/>
      <point x="80" y="636"/>
      <point x="83" y="589"/>
      <point x="83" y="551" type="curve"/>
      <point x="83" y="56" type="line" smooth="yes"/>
      <point x="83" y="12"/>
      <point x="117" y="-15"/>
    </contour>
    <contour>
      <point x="300" y="0" type="move" name="bottom"/>
    </contour>
    <contour>
      <point x="300" y="698" type="move" name="top"/>
    </contour>
  </outline>
</glyph>
<glyph name="dcaron" format="1">
  <advance width="680"/>
  <unicode hex="010F"/>
  <outline>
    <contour>
      <point x="568" y="569" type="curve"/>
      <point x="626" y="569" type="line"/>
      <point x="651" y="619"/>
      <point x="673" y="691"/>
      <point x="673" y="758" type="curve"/>
      <point x="639" y="770"/>
      <point x="588" y="770"/>
      <point x="550" y="758" type="curve"/>
      <point x="572" y="699"/>
      <point x="574" y="621"/>
    </contour>
    <component base="d"/>
  </outline>
</glyph>
<glyph name="dcroat" format="1">
  <advance width="592"/>
  <unicode hex="0111"/>
  <outline>
    <contour>
      <point x="269" y="576" type="curve"/>
      <point x="570" y="576" type="line"/>
      <point x="575" y="594"/>
      <point x="575" y="610"/>
      <point x="570" y="627" type="curve"/>
      <point x="269" y="627" type="line"/>
      <point x="264" y="610"/>
      <point x="264" y="594"/>
    </contour>
    <component base="d"/>
  </outline>
</glyph>
<glyph name="gcommaaccent" format="1">
  <advance width="547"/>
  <unicode hex="0123"/>
  <outline>
    <contour>
      <point x="280" y="817" type="curve"/>
      <point x="224" y="749"/>
      <point x="205" y="710"/>
      <point x="205" y="667" type="curve"/>
      <point x="205" y="602"/>
      <point x="248" y="581"/>
      <point x="282" y="581" type="curve"/>
      <point x="326" y="581"/>
      <point x="359" y="615"/>
      <point x="359" y="658" type="curve"/>
      <point x="334" y="665"/>
      <point x="302" y="683"/>
      <point x="302" y="722" type="curve"/>
      <point x="302" y="738"/>
      <point x="307" y="761"/>
      <point x="330" y="793" type="curve"/>
      <point x="316" y="807"/>
      <point x="297" y="815"/>
    </contour>
    <component base="g"/>
  </outline>
</glyph>
<glyph name="Hbar" format="1">
  <advance width="701"/>
  <unicode hex="0126"/>
  <outline>
    <contour>
      <point x="32" y="515" type="curve"/>
      <point x="661" y="515" type="line"/>
      <point x="667" y="532"/>
      <point x="667" y="549"/>
      <point x="661" y="566" type="curve"/>
      <point x="32" y="566" type="line"/>
      <point x="26" y="549"/>
      <point x="26" y="532"/>
    </contour>
    <component base="H"/>
  </outline>
</glyph>
<glyph name="hbar" format="1">
  <advance width="573"/>
  <unicode hex="0127"/>
  <outline>
    <contour>
      <point x="-3" y="566" type="curve"/>
      <point x="309" y="566" type="line"/>
      <point x="314" y="583"/>
      <point x="314" y="599"/>
      <point x="309" y="616" type="curve"/>
      <point x="-3" y="616" type="line"/>
      <point x="-7" y="599"/>
      <point x="-7" y="583"/>
    </contour>
    <component base="h"/>
  </outline>
</glyph>
<glyph name="kgreenlandic" format="1">
  <advance width="596"/>
  <unicode hex="0138"/>
  <outline>
    <contour>
      <point x="485" y="-14" type="curve"/>
      <point x="541" y="-14"/>
      <point x="564" y="17"/>
      <point x="564" y="55" type="curve"/>
      <point x="564" y="67"/>
      <point x="562" y="80"/>
      <point x="556" y="94" type="curve"/>
      <point x="549" y="89"/>
      <point x="542" y="86"/>
      <point x="532" y="87" type="curve"/>
      <point x="518" y="88"/>
      <point x="497" y="95"/>
      <point x="478" y="149" type="curve"/>
      <point x="467" y="183" type="line" smooth="yes"/>
      <point x="443" y="251"/>
      <point x="377" y="308"/>
      <point x="312" y="279" type="curve"/>
      <point x="310" y="268" type="line"/>
      <point x="426" y="278"/>
      <point x="524" y="353"/>
      <point x="524" y="443" type="curve"/>
      <point x="524" y="514"/>
      <point x="460" y="531"/>
      <point x="426" y="531" type="curve"/>
      <point x="407" y="531"/>
      <point x="391" y="527"/>
      <point x="371" y="518" type="curve"/>
      <point x="378" y="508"/>
      <point x="389" y="475"/>
      <point x="389" y="445" type="curve"/>
      <point x="389" y="386"/>
      <point x="346" y="319"/>
      <point x="249" y="295" type="curve"/>
      <point x="237" y="293"/>
      <point x="212" y="288"/>
      <point x="203" y="287" type="curve"/>
      <point x="204" y="239" type="line"/>
      <point x="244" y="239" type="line" smooth="yes"/>
      <point x="308" y="239"/>
      <point x="334" y="186"/>
      <point x="346" y="144" type="curve"/>
      <point x="364" y="82" type="line" smooth="yes"/>
      <point x="379" y="29"/>
      <point x="420" y="-14"/>
    </contour>
    <contour>
      <point x="158" y="-15" type="curve"/>
      <point x="197" y="-15"/>
      <point x="226" y="5"/>
      <point x="238" y="16" type="curve"/>
      <point x="220" y="60"/>
      <point x="218" y="108"/>
      <point x="218" y="146" type="curve"/>
      <point x="218" y="460" type="line" smooth="yes"/>
      <point x="218" y="505"/>
      <point x="184" y="531"/>
      <point x="138" y="531" type="curve"/>
      <point x="99" y="531"/>
      <point x="70" y="511"/>
      <point x="58" y="501" type="curve"/>
      <point x="75" y="456"/>
      <point x="78" y="408"/>
      <point x="78" y="370" type="curve"/>
      <point x="78" y="56" type="line" smooth="yes"/>
      <point x="78" y="12"/>
      <point x="112" y="-15"/>
    </contour>
    <contour>
      <point x="295" y="0" type="move" name="bottom"/>
    </contour>
    <contour>
      <point x="295" y="516" type="move" name="top"/>
    </contour>
  </outline>
</glyph>
<glyph name="Lcaron" format="1">
  <advance width="508"/>
  <unicode hex="013D"/>
  <outline>
    <contour>
      <point x="306" y="562" type="curve"/>
      <point x="364" y="562" type="line"/>
      <point x="389" y="612"/>
      <point x="411" y="683"/>
      <point x="411" y="750" type="curve"/>
      <point x="377" y="762"/>
      <point x="326" y="763"/>
      <point x="288" y="750" type="curve"/>
      <point x="310" y="692"/>
      <point x="312" y="614"/>
    </contour>
    <component base="L"/>
  </outline>
</glyph>
<glyph name="lcaron" format="1">
  <advance width="396"/>
  <unicode hex="013E"/>
  <outline>
    <contour>
      <point x="277" y="569" type="curve"/>
      <point x="335" y="569" type="line"/>
      <point x="360" y="619"/>
      <point x="382" y="691"/>
      <point x="382" y="758" type="curve"/>
      <point x="348" y="770"/>
      <point x="297" y="770"/>
      <point x="259" y="758" type="curve"/>
      <point x="281" y="699"/>
      <point x="283" y="621"/>
    </contour>
    <component base="l"/>
  </outline>
</glyph>
<glyph name="Lslash" format="1">
  <advance width="508"/>
  <unicode hex="0141"/>
  <outline>
    <contour>
      <point x="34" y="129" type="curve"/>
      <point x="354" y="450" type="line"/>
      <point x="350" y="468"/>
      <point x="337" y="481"/>
      <point x="318" y="486" type="curve"/>
      <point x="-1" y="165" type="line"/>
      <point x="5" y="146"/>
      <point x="17" y="133"/>
    </contour>
    <component base="L"/>
  </outline>
</glyph>
<glyph name="lslash" format="1">
  <advance width="293"/>
  <unicode hex="0142"/>
  <outline>
    <contour>
      <point x="-28" y="170" type="line"/>
      <point x="14" y="141" type="line"/>
      <point x="311" y="532" type="line"/>
      <point x="270" y="561" type="line"/>
    </contour>
    <component base="l"/>
  </outline>
</glyph>
<glyph name="Eng" format="1">
  <advance width="699"/>
  <unicode hex="014A"/>
  <outline>
    <contour>
      <point x="120" y="-15" type="curve"/>
      <point x="154" y="-15"/>
      <point x="193" y="17"/>
      <point x="189" y="65" type="curve"/>
      <point x="159" y="497" type="line"/>
      <point x="208" y="401"/>
      <point x="296" y="267"/>
      <point x="532" y="-8" type="curve"/>
      <point x="553" y="-20"/>
      <point x="606" y="-13"/>
      <point x="619" y="3" type="curve"/>
      <point x="620" y="564" type="line" smooth="yes"/>
      <point x="620" y="596"/>
      <point x="621" y="653"/>
      <point x="636" y="695" type="curve"/>
      <point x="620" y="706"/>
      <point x="598" y="711"/>
      <point x="579" y="710" type="curve"/>
      <point x="531" y="707"/>
      <point x="508" y="671"/>
      <point x="513" y="619" type="curve"/>
      <point x="549" y="179" type="line"/>
      <point x="504" y="284"/>
      <point x="293" y="533"/>
      <point x="172" y="704" type="curve"/>
      <point x="160" y="716"/>
      <point x="91" y="712"/>
      <point x="76" y="694" type="curve"/>
      <point x="81" y="653"/>
      <point x="83" y="612"/>
      <point x="83" y="552" type="curve"/>
      <point x="83" y="146" type="line" smooth="yes"/>
      <point x="83" y="109"/>
      <point x="80" y="48"/>
      <point x="63" y="3" type="curve"/>
      <point x="79" y="-8"/>
      <point x="100" y="-15"/>
    </contour>
    <contour>
      <point x="619" y="3" type="curve"/>
      <point x="531" y="8" type="line"/>
      <point x="531" y="-125"/>
      <point x="532" y="-182"/>
      <point x="496" y="-182" type="curve"/>
      <point x="479" y="-182"/>
      <point x="465" y="-170"/>
      <point x="465" y="-146" type="curve"/>
      <point x="465" y="-132"/>
      <point x="471" y="-114"/>
      <point x="481" y="-99" type="curve"/>
      <point x="470" y="-77"/>
      <point x="456" y="-68"/>
      <point x="431" y="-68" type="curve"/>
      <point x="383" y="-68"/>
      <point x="360" y="-101"/>
      <point x="360" y="-136" type="curve"/>
      <point x="360" y="-185"/>
      <point x="400" y="-224"/>
      <point x="479" y="-224" type="curve"/>
      <point x="585" y="-224"/>
      <point x="619" y="-129"/>
    </contour>
  </outline>
</glyph>
<glyph name="eng" format="1">
  <advance width="587"/>
  <unicode hex="014B"/>
  <outline>
    <contour>
      <point x="161" y="-15" type="curve"/>
      <point x="198" y="-15"/>
      <point x="227" y="4"/>
      <point x="239" y="15" type="curve"/>
      <point x="216" y="69"/>
      <point x="216" y="105"/>
      <point x="216" y="235" type="curve"/>
      <point x="216" y="387"/>
      <point x="258" y="463"/>
      <point x="319" y="463" type="curve"/>
      <point x="385" y="463"/>
      <point x="399" y="406"/>
      <point x="400" y="309" type="curve"/>
      <point x="400" y="56" type="line"/>
      <point x="527" y="56" type="line"/>
      <point x="527" y="331" type="line" smooth="yes"/>
      <point x="527" y="464"/>
      <point x="476" y="531"/>
      <point x="366" y="531" type="curve"/>
      <point x="254" y="531"/>
      <point x="199" y="460"/>
      <point x="183" y="340" type="curve"/>
      <point x="200" y="371" type="line"/>
      <point x="200" y="401" type="line" smooth="yes"/>
      <point x="200" y="489"/>
      <point x="159" y="531"/>
      <point x="97" y="531" type="curve"/>
      <point x="44" y="531"/>
      <point x="15" y="501"/>
      <point x="15" y="460" type="curve"/>
      <point x="15" y="444"/>
      <point x="19" y="431"/>
      <point x="28" y="417" type="curve"/>
      <point x="34" y="427"/>
      <point x="47" y="429"/>
      <point x="54" y="429" type="curve"/>
      <point x="71" y="429"/>
      <point x="79" y="414"/>
      <point x="80" y="376" type="curve"/>
      <point x="80" y="63" type="line" smooth="yes"/>
      <point x="80" y="15"/>
      <point x="114" y="-15"/>
    </contour>
    <contour>
      <point x="349" y="-227" type="curve"/>
      <point x="479" y="-227"/>
      <point x="527" y="-134"/>
      <point x="527" y="-17" type="curve"/>
      <point x="527" y="82" type="line"/>
      <point x="400" y="82" type="line"/>
      <point x="400" y="8" type="line" smooth="yes"/>
      <point x="400" y="-92"/>
      <point x="402" y="-185"/>
      <point x="354" y="-185" type="curve"/>
      <point x="338" y="-185"/>
      <point x="324" y="-170"/>
      <point x="324" y="-149" type="curve"/>
      <point x="324" y="-135"/>
      <point x="330" y="-117"/>
      <point x="340" y="-102" type="curve"/>
      <point x="329" y="-80"/>
      <point x="315" y="-71"/>
      <point x="290" y="-71" type="curve"/>
      <point x="242" y="-71"/>
      <point x="219" y="-104"/>
      <point x="219" y="-139" type="curve"/>
      <point x="219" y="-188"/>
      <point x="259" y="-227"/>
    </contour>
  </outline>
</glyph>
<glyph name="OE" format="1">
  <advance width="921"/>
  <unicode hex="0152"/>
  <outline>
    <contour>
      <point x="333" y="-14" type="curve"/>
      <point x="492" y="-14"/>
      <point x="526" y="106"/>
      <point x="546" y="280" type="curve"/>
      <point x="467" y="279" type="line"/>
      <point x="459" y="101"/>
      <point x="411" y="33"/>
      <point x="333" y="33" type="curve"/>
      <point x="241" y="33"/>
      <point x="201" y="128"/>
      <point x="201" y="349" type="curve"/>
      <point x="201" y="570"/>
      <point x="241" y="665"/>
      <point x="333" y="665" type="curve"/>
      <point x="409" y="665"/>
      <point x="445" y="618"/>
      <point x="453" y="461" type="curve"/>
      <point x="545" y="456" type="line"/>
      <point x="522" y="619"/>
      <point x="486" y="712"/>
      <point x="333" y="712" type="curve"/>
      <point x="145" y="712"/>
      <point x="47" y="590"/>
      <point x="47" y="349" type="curve"/>
      <point x="47" y="108"/>
      <point x="145" y="-14"/>
    </contour>
    <component base="E" xOffset="367"/>
    <contour>
      <point x="282" y="0" type="move" name="bottom"/>
    </contour>
    <contour>
      <point x="35" y="349" type="move" name="center"/>
    </contour>
    <contour>
      <point x="300" y="10" type="move" name="ogonek"/>
    </contour>
    <contour>
      <point x="387" y="698" type="move" name="top"/>
    </contour>
    <contour>
      <point x="-276" y="698" type="move" name="topleft"/>
    </contour>
    <contour>
      <point x="685" y="728" type="move" name="topright"/>
    </contour>
  </outline>
</glyph>
<glyph name="oe" format="1">
  <advance width="878"/>
  <unicode hex="0153"/>
  <outline>
    <contour>
      <point x="286" y="-14" type="curve"/>
      <point x="362" y="-14"/>
      <point x="426" y="18"/>
      <point x="462" y="68" type="curve"/>
      <point x="496" y="18"/>
      <point x="565" y="-14"/>
      <point x="641" y="-14" type="curve"/>
      <point x="736" y="-14"/>
      <point x="805" y="23"/>
      <point x="832" y="88" type="curve"/>
      <point x="847" y="125"/>
      <point x="837" y="140"/>
      <point x="823" y="146" type="curve"/>
      <point x="801" y="104"/>
      <point x="754" y="71"/>
      <point x="679" y="71" type="curve"/>
      <point x="597" y="71"/>
      <point x="544" y="112"/>
      <point x="534" y="230" type="curve"/>
      <point x="569" y="227"/>
      <point x="601" y="226"/>
      <point x="632" y="226" type="curve"/>
      <point x="760" y="226"/>
      <point x="847" y="280"/>
      <point x="847" y="379" type="curve"/>
      <point x="847" y="480"/>
      <point x="757" y="531"/>
      <point x="642" y="531" type="curve"/>
      <point x="562" y="531"/>
      <point x="493" y="496"/>
      <point x="460" y="448" type="curve"/>
      <point x="425" y="498"/>
      <point x="360" y="531"/>
      <point x="286" y="531" type="curve"/>
      <point x="130" y="531"/>
      <point x="39" y="430"/>
      <point x="39" y="258" type="curve"/>
      <point x="39" y="87"/>
      <point x="130" y="-14"/>
    </contour>
    <contour>
      <point x="286" y="32" type="curve"/>
      <point x="217" y="32"/>
      <point x="186" y="108"/>
      <point x="186" y="258" type="curve"/>
      <point x="186" y="409"/>
      <point x="217" y="485"/>
      <point x="286" y="485" type="curve"/>
      <point x="354" y="485"/>
      <point x="385" y="409"/>
      <point x="385" y="258" type="curve"/>
      <point x="385" y="108"/>
      <point x="354" y="32"/>
    </contour>
    <contour>
      <point x="567" y="276" type="curve"/>
      <point x="556" y="276"/>
      <point x="547" y="277"/>
      <point x="534" y="278" type="curve"/>
      <point x="530" y="397"/>
      <point x="572" y="485"/>
      <point x="638" y="485" type="curve"/>
      <point x="669" y="485"/>
      <point x="701" y="469"/>
      <point x="701" y="402" type="curve"/>
      <point x="701" y="312"/>
      <point x="638" y="276"/>
    </contour>
    <contour>
      <point x="90" y="0" type="move" name="bottom"/>
    </contour>
    <contour>
      <point x="94" y="258" type="move" name="center"/>
    </contour>
    <contour>
      <point x="319" y="10" type="move" name="ogonek"/>
    </contour>
    <contour>
      <point x="90" y="516" type="move" name="top"/>
    </contour>
    <contour>
      <point x="263" y="461" type="move" name="topright"/>
    </contour>
  </outline>
</glyph>
<glyph name="tcaron" format="1">
  <advance width="400"/>
  <unicode hex="0165"/>
  <outline>
    <contour>
      <point x="277" y="560" type="curve"/>
      <point x="335" y="560" type="line"/>
      <point x="360" y="611"/>
      <point x="382" y="682"/>
      <point x="382" y="749" type="curve"/>
      <point x="348" y="761"/>
      <point x="297" y="762"/>
      <point x="259" y="749" type="curve"/>
      <point x="281" y="690"/>
      <point x="283" y="612"/>
    </contour>
    <component base="t"/>
  </outline>
</glyph>
<glyph name="Tbar" format="1">
  <advance width="557"/>
  <unicode hex="0166"/>
  <outline>
    <contour>
      <point x="113" y="340" type="curve"/>
      <point x="438" y="340" type="line"/>
      <point x="442" y="357"/>
      <point x="442" y="374"/>
      <point x="438" y="391" type="curve"/>
      <point x="113" y="391" type="line"/>
      <point x="109" y="374"/>
      <point x="109" y="357"/>
    </contour>
    <component base="T"/>
  </outline>
</glyph>
<glyph name="tbar" format="1">
  <advance width="355"/>
  <unicode hex="0167"/>
  <outline>
    <contour>
      <point x="9" y="342" type="curve"/>
      <point x="321" y="342" type="line"/>
      <point x="326" y="359"/>
      <point x="326" y="375"/>
      <point x="321" y="392" type="curve"/>
      <point x="9" y="392" type="line"/>
      <point x="5" y="375"/>
      <point x="5" y="359"/>
    </contour>
    <component base="t"/>
  </outline>
</glyph>
<glyph name="Ohorn" format="1">
  <advance width="666"/>
  <unicode hex="01A0"/>
  <outline>
    <component base="O"/>
    <component base="horncomb" xOffset="314" yOffset="137"/>
    <contour>
      <point x="328" y="0" type="move" name="bottom"/>
    </contour>
    <contour>
      <point x="331" y="698" type="move" name="top"/>
    </contour>
  </outline>
</glyph>
<glyph name="ohorn" format="1">
  <advance width="562"/>
  <unicode hex="01A1"/>
  <outline>
    <component base="o"/>
    <component base="horncomb" xOffset="209" yOffset="-14"/>
    <contour>
      <point x="294" y="0" type="move" name="bottom"/>
    </contour>
    <contour>
      <point x="294" y="516" type="move" name="top"/>
    </contour>
  </outline>
</glyph>
<glyph name="uhorn" format="1">
  <advance width="584"/>
  <unicode hex="01B0"/>
  <outline>
    <component base="u"/>
    <component base="horncomb" xOffset="291" yOffset="-15"/>
    <contour>
      <point x="291" y="0" type="move" name="bottom"/>
    </contour>
    <contour>
      <point x="291" y="516" type="move" name="top"/>
    </contour>
  </outline>
</glyph>
<glyph name="jdotless" format="1">
  <advance width="267"/>
  <unicode hex="0237"/>
  <outline>
    <contour>
      <point x="20" y="-227" type="curve"/>
      <point x="157" y="-227"/>
      <point x="208" y="-134"/>
      <point x="208" y="-17" type="curve"/>
      <point x="208" y="460" type="line" smooth="yes"/>
      <point x="208" y="505"/>
      <point x="174" y="531"/>
      <point x="130" y="531" type="curve"/>
      <point x="99" y="531"/>
      <point x="72" y="518"/>
      <point x="53" y="501" type="curve"/>
      <point x="70" y="456"/>
      <point x="73" y="400"/>
      <point x="73" y="370" type="curve"/>
      <point x="72" y="8" type="line" smooth="yes"/>
      <point x="72" y="-92"/>
      <point x="73" y="-185"/>
      <point x="26" y="-185" type="curve"/>
      <point x="9" y="-185"/>
      <point x="-5" y="-173"/>
      <point x="-5" y="-149" type="curve"/>
      <point x="-5" y="-135"/>
      <point x="1" y="-117"/>
      <point x="11" y="-102" type="curve"/>
      <point x="0" y="-80"/>
      <point x="-14" y="-71"/>
      <point x="-39" y="-71" type="curve"/>
      <point x="-87" y="-71"/>
      <point x="-110" y="-104"/>
      <point x="-110" y="-139" type="curve"/>
      <point x="-110" y="-188"/>
      <point x="-70" y="-227"/>
    </contour>
    <contour>
      <point x="132" y="0" type="move" name="bottom"/>
    </contour>
    <contour>
      <point x="132" y="516" type="move" name="top"/>
    </contour>
  </outline>
</glyph>
<glyph name="apostrophemod" format="1">
  <advance width="600"/>
  <unicode hex="02BC"/>
  <outline>
    <contour>
      <point x="102" y="713" type="curve"/>
      <point x="132" y="520" type="line"/>
      <point x="189" y="520" type="line"/>
      <point x="225" y="713" type="line"/>
      <point x="191" y="725"/>
      <point x="140" y="725"/>
    </contour>
  </outline>
</glyph>
<glyph name="acutecomb" format="1">
  <advance width="600"/>
  <unicode hex="0301"/>
  <outline>
    <contour>
      <point x="247" y="571" type="curve"/>
      <point x="409" y="714" type="line"/>
      <point x="398" y="724"/>
      <point x="321" y="745"/>
      <point x="289" y="740" type="curve"/>
      <point x="199" y="580" type="line"/>
      <point x="207" y="575"/>
      <point x="231" y="572"/>
    </contour>
    <contour>
      <point x="252" y="520" type="move" name="_top"/>
    </contour>
    <contour>
      <point x="322" y="697" type="move" name="top"/>
    </contour>
  </outline>
</glyph>
<glyph name="tildecomb" format="1">
  <advance width="600"/>
  <unicode hex="0303"/>
  <outline>
    <contour>
      <point x="362" y="584" type="curve"/>
      <point x="412" y="584"/>
      <point x="441" y="628"/>
      <point x="449" y="690" type="curve"/>
      <point x="442" y="697"/>
      <point x="435" y="698"/>
      <point x="423" y="698" type="curve"/>
      <point x="414" y="677"/>
      <point x="404" y="658"/>
      <point x="371" y="658" type="curve"/>
      <point x="324" y="658"/>
      <point x="290" y="703"/>
      <point x="241" y="703" type="curve"/>
      <point x="199" y="703"/>
      <point x="154" y="677"/>
      <point x="148" y="598" type="curve"/>
      <point x="155" y="592"/>
      <point x="168" y="588"/>
      <point x="175" y="589" type="curve"/>
      <point x="185" y="608"/>
      <point x="200" y="628"/>
      <point x="236" y="628" type="curve"/>
      <point x="280" y="628"/>
      <point x="316" y="584"/>
    </contour>
    <contour>
      <point x="301" y="521" type="move" name="_top"/>
    </contour>
    <contour>
      <point x="299" y="699" type="move" name="top"/>
    </contour>
  </outline>
</glyph>
<glyph name="macroncomb" format="1">
  <advance width="600"/>
  <unicode hex="0304"/>
  <outline>
    <contour>
      <point x="123" y="601" type="curve"/>
      <point x="407" y="601" type="line"/>
      <point x="413" y="621"/>
      <point x="413" y="641"/>
      <point x="407" y="662" type="curve"/>
      <point x="123" y="662" type="line"/>
      <point x="117" y="641"/>
      <point x="117" y="621"/>
    </contour>
    <contour>
      <point x="264" y="516" type="move" name="_top"/>
    </contour>
    <contour>
      <point x="280" y="112" type="move" name="top"/>
    </contour>
  </outline>
</glyph>
<glyph name="brevecomb" format="1">
  <advance width="600"/>
  <unicode hex="0306"/>
  <outline>
    <contour>
      <point x="291" y="576" type="curve"/>
      <point x="382" y="576"/>
      <point x="424" y="642"/>
      <point x="446" y="725" type="curve"/>
      <point x="434" y="732"/>
      <point x="421" y="737"/>
      <point x="409" y="740" type="curve"/>
      <point x="384" y="689"/>
      <point x="345" y="664"/>
      <point x="294" y="664" type="curve"/>
      <point x="243" y="664"/>
      <point x="199" y="686"/>
      <point x="178" y="740" type="curve"/>
      <point x="164" y="738"/>
      <point x="151" y="735"/>
      <point x="137" y="725" type="curve"/>
      <point x="153" y="647"/>
      <point x="194" y="576"/>
    </contour>
    <contour>
      <point x="292" y="516" type="move" name="_top"/>
    </contour>
    <contour>
      <point x="290" y="701" type="move" name="top"/>
    </contour>
  </outline>
</glyph>
<glyph name="dotaccentcomb" format="1">
  <advance width="600"/>
  <unicode hex="0307"/>
  <outline>
    <contour>
      <point x="299" y="574" type="curve"/>
      <point x="338" y="574"/>
      <point x="370" y="605"/>
      <point x="370" y="645" type="curve"/>
      <point x="370" y="684"/>
      <point x="338" y="716"/>
      <point x="299" y="716" type="curve"/>
      <point x="260" y="716"/>
      <point x="228" y="684"/>
      <point x="228" y="645" type="curve"/>
      <point x="228" y="605"/>
      <point x="260" y="574"/>
    </contour>
    <contour>
      <point x="300" y="516" type="move" name="_top"/>
    </contour>
    <contour>
      <point x="301" y="0" type="move" name="top"/>
    </contour>
  </outline>
</glyph>
<glyph name="dieresiscomb" format="1">
  <advance width="600"/>
  <unicode hex="0308"/>
  <outline>
    <contour>
      <point x="191" y="607" type="curve"/>
      <point x="225" y="607"/>
      <point x="253" y="635"/>
      <point x="253" y="669" type="curve"/>
      <point x="253" y="704"/>
      <point x="225" y="731"/>
      <point x="191" y="731" type="curve"/>
      <point x="156" y="731"/>
      <point x="128" y="704"/>
      <point x="128" y="669" type="curve"/>
      <point x="128" y="635"/>
      <point x="156" y="607"/>
    </contour>
    <contour>
      <point x="381" y="607" type="curve"/>
      <point x="415" y="607"/>
      <point x="444" y="635"/>
      <point x="444" y="669" type="curve"/>
      <point x="444" y="704"/>
      <point x="415" y="731"/>
      <point x="381" y="731" type="curve"/>
      <point x="347" y="731"/>
      <point x="319" y="703"/>
      <point x="319" y="669" type="curve"/>
      <point x="319" y="635"/>
      <point x="347" y="607"/>
    </contour>
    <contour>
      <point x="285" y="520" type="move" name="_top"/>
    </contour>
    <contour>
      <point x="285" y="683" type="move" name="top"/>
    </contour>
  </outline>
</glyph>
<glyph name="hookabovecomb" format="1">
  <advance width="600"/>
  <unicode hex="0309"/>
  <outline>
    <contour>
      <point x="175" y="610" type="curve"/>
      <point x="182" y="574" type="line"/>
      <point x="271" y="585"/>
      <point x="306" y="612"/>
      <point x="306" y="656" type="curve"/>
      <point x="306" y="718"/>
      <point x="215" y="726"/>
      <point x="153" y="722" type="curve"/>
      <point x="155" y="674" type="line"/>
      <point x="179" y="674"/>
      <point x="220" y="673"/>
      <point x="220" y="650" type="curve"/>
      <point x="220" y="632"/>
      <point x="209" y="622"/>
    </contour>
    <contour>
      <point x="219" y="516" type="move" name="_top"/>
    </contour>
    <contour>
      <point x="238" y="0" type="move" name="top"/>
    </contour>
  </outline>
</glyph>
<glyph name="hungarumlautcomb" format="1">
  <advance width="600"/>
  <unicode hex="030B"/>
  <outline>
    <contour>
      <point x="322" y="553" type="curve"/>
      <point x="495" y="693" type="line"/>
      <point x="475" y="718"/>
      <point x="436" y="740"/>
      <point x="410" y="742" type="curve"/>
      <point x="293" y="577" type="line"/>
      <point x="295" y="573"/>
      <point x="313" y="556"/>
    </contour>
    <contour>
      <point x="157" y="553" type="curve"/>
      <point x="330" y="692" type="line"/>
      <point x="311" y="718"/>
      <point x="271" y="740"/>
      <point x="244" y="742" type="curve"/>
      <point x="128" y="576" type="line"/>
      <point x="130" y="572"/>
      <point x="148" y="555"/>
    </contour>
    <contour>
      <point x="259" y="516" type="move" name="_top"/>
    </contour>
    <contour>
      <point x="262" y="0" type="move" name="top"/>
    </contour>
  </outline>
</glyph>
<glyph name="caroncomb" format="1">
  <advance width="600"/>
  <unicode hex="030C"/>
  <outline>
    <component base="circumflexcomb" yScale="-1" yOffset="1320"/>
    <contour>
      <point x="301" y="516" type="move" name="_top"/>
    </contour>
    <contour>
      <point x="298" y="140" type="move" name="top"/>
    </contour>
  </outline>
</glyph>
<glyph name="commaaccentcomb" format="1">
  <advance width="600"/>
  <unicode hex="0326"/>
  <outline>
    <contour>
      <point x="298" y="-285" type="curve"/>
      <point x="357" y="-231"/>
      <point x="380" y="-181"/>
      <point x="380" y="-129" type="curve"/>
      <point x="380" y="-60"/>
      <point x="342" y="-34"/>
      <point x="302" y="-34" type="curve"/>
      <point x="256" y="-34"/>
      <point x="223" y="-70"/>
      <point x="223" y="-112" type="curve"/>
      <point x="248" y="-118"/>
      <point x="291" y="-128"/>
      <point x="291" y="-182" type="curve"/>
      <point x="291" y="-208"/>
      <point x="277" y="-233"/>
      <point x="254" y="-261" type="curve"/>
      <point x="268" y="-275"/>
      <point x="281" y="-282"/>
    </contour>
    <contour>
      <point x="296" y="0" type="move" name="_bottom"/>
    </contour>
    <contour>
      <point x="288" y="0" type="move" name="bottom"/>
    </contour>
  </outline>
</glyph>
<glyph name="cedillacomb" format="1">
  <advance width="600"/>
  <unicode hex="0327"/>
  <outline>
    <contour>
      <point x="281" y="-227" type="curve"/>
      <point x="362" y="-227"/>
      <point x="407" y="-188"/>
      <point x="407" y="-132" type="curve"/>
      <point x="407" y="-83"/>
      <point x="362" y="-56"/>
      <point x="294" y="-57" type="curve"/>
      <point x="307" y="17" type="line"/>
      <point x="252" y="17" type="line"/>
      <point x="232" y="-90" type="line"/>
      <point x="273" y="-85"/>
      <point x="292" y="-107"/>
      <point x="292" y="-132" type="curve"/>
      <point x="292" y="-157"/>
      <point x="278" y="-173"/>
      <point x="251" y="-173" type="curve"/>
      <point x="215" y="-173"/>
      <point x="199" y="-154"/>
      <point x="193" y="-149" type="curve"/>
      <point x="186" y="-153"/>
      <point x="178" y="-179"/>
      <point x="181" y="-192" type="curve"/>
      <point x="194" y="-207"/>
      <point x="221" y="-227"/>
    </contour>
    <contour>
      <point x="278" y="0" type="move" name="_bottom"/>
    </contour>
    <contour>
      <point x="275" y="-33" type="move" name="bottom"/>
    </contour>
  </outline>
</glyph>
<glyph name="ypogegrammeni" format="1">
  <advance width="301"/>
  <unicode hex="037A"/>
  <outline>
    <contour>
      <point x="152" y="-224" type="curve"/>
      <point x="187" y="-224"/>
      <point x="213" y="-208"/>
      <point x="213" y="-178" type="curve"/>
      <point x="213" y="-166"/>
      <point x="210" y="-155"/>
      <point x="205" y="-149" type="curve"/>
      <point x="199" y="-156"/>
      <point x="193" y="-158"/>
      <point x="185" y="-158" type="curve"/>
      <point x="164" y="-158"/>
      <point x="161" y="-141"/>
      <point x="163" y="-128" type="curve"/>
      <point x="166" y="-103" type="line" smooth="yes"/>
      <point x="170" y="-71"/>
      <point x="159" y="-45"/>
      <point x="123" y="-45" type="curve"/>
      <point x="100" y="-45"/>
      <point x="82" y="-54"/>
      <point x="70" y="-68" type="curve"/>
      <point x="74" y="-92"/>
      <point x="75" y="-108"/>
      <point x="75" y="-141" type="curve"/>
      <point x="75" y="-189"/>
      <point x="99" y="-224"/>
    </contour>
    <contour>
      <point x="123" y="0" type="move" name="_bottom"/>
    </contour>
  </outline>
</glyph>
<glyph name="dieresistonos" format="1">
  <advance width="600"/>
  <unicode hex="0385"/>
  <outline>
    <contour>
      <point x="307" y="589" type="curve"/>
      <point x="355" y="765" type="line"/>
      <point x="331" y="779"/>
      <point x="274" y="778"/>
      <point x="251" y="768" type="curve"/>
      <point x="262" y="592" type="line"/>
      <point x="273" y="587"/>
      <point x="292" y="586"/>
    </contour>
    <contour>
      <point x="160" y="575" type="curve"/>
      <point x="196" y="575"/>
      <point x="216" y="603"/>
      <point x="216" y="636" type="curve"/>
      <point x="216" y="670"/>
      <point x="196" y="697"/>
      <point x="160" y="697" type="curve"/>
      <point x="123" y="697"/>
      <point x="101" y="670"/>
      <point x="101" y="636" type="curve"/>
      <point x="101" y="603"/>
      <point x="123" y="575"/>
    </contour>
    <contour>
      <point x="423" y="573" type="curve"/>
      <point x="459" y="573"/>
      <point x="479" y="601"/>
      <point x="479" y="634" type="curve"/>
      <point x="479" y="668"/>
      <point x="459" y="695"/>
      <point x="423" y="695" type="curve"/>
      <point x="386" y="695"/>
      <point x="364" y="668"/>
      <point x="364" y="634" type="curve"/>
      <point x="364" y="601"/>
      <point x="386" y="573"/>
    </contour>
    <contour>
      <point x="285" y="520" type="move" name="_top"/>
    </contour>
  </outline>
</glyph>
<glyph name="Alpha" format="1">
  <advance width="628"/>
  <unicode hex="0391"/>
  <outline>
    <component base="A"/>
    <contour>
      <point x="322" y="0" type="move" name="bottom"/>
    </contour>
    <contour>
      <point x="149" y="698" type="move" name="topleft"/>
    </contour>
  </outline>
</glyph>
<glyph name="Gamma" format="1">
  <advance width="544"/>
  <unicode hex="0393"/>
  <outline>
    <contour>
      <point x="163" y="-14" type="curve"/>
      <point x="202" y="-14"/>
      <point x="231" y="6"/>
      <point x="243" y="17" type="curve"/>
      <point x="225" y="61"/>
      <point x="223" y="108"/>
      <point x="223" y="146" type="curve"/>
      <point x="222" y="630" type="line"/>
      <point x="328" y="627"/>
      <point x="414" y="606"/>
      <point x="483" y="574" type="curve"/>
      <point x="520" y="591"/>
      <point x="536" y="698"/>
      <point x="498" y="698" type="curve"/>
      <point x="190" y="698" type="line" smooth="yes"/>
      <point x="127" y="698"/>
      <point x="98" y="691"/>
      <point x="63" y="661" type="curve"/>
      <point x="80" y="616"/>
      <point x="83" y="570"/>
      <point x="83" y="531" type="curve"/>
      <point x="83" y="57" type="line" smooth="yes"/>
      <point x="83" y="13"/>
      <point x="117" y="-14"/>
    </contour>
    <contour>
      <point x="20" y="700" type="move" name="topleft"/>
    </contour>
  </outline>
</glyph>
<glyph name="Delta" format="1">
  <advance width="640"/>
  <unicode hex="0394"/>
  <outline>
    <contour>
      <point x="116" y="-1" type="curve"/>
      <point x="543" y="0" type="line" smooth="yes"/>
      <point x="590" y="0"/>
      <point x="613" y="17"/>
      <point x="625" y="31" type="curve"/>
      <point x="608" y="49"/>
      <point x="597" y="79"/>
      <point x="592" y="96" type="curve"/>
      <point x="421" y="668" type="line" smooth="yes"/>
      <point x="410" y="704"/>
      <point x="379" y="713"/>
      <point x="346" y="713" type="curve"/>
      <point x="307" y="713"/>
      <point x="268" y="707"/>
      <point x="228" y="694" type="curve"/>
      <point x="40" y="133" type="line" smooth="yes"/>
      <point x="12" y="51"/>
      <point x="42" y="-1"/>
    </contour>
    <contour>
      <point x="113" y="84" type="line"/>
      <point x="153" y="31" type="line"/>
      <point x="314" y="657" type="line"/>
      <point x="300" y="660" type="line"/>
      <point x="462" y="40" type="line"/>
      <point x="517" y="84" type="line"/>
    </contour>
  </outline>
</glyph>
<glyph name="Epsilon" format="1">
  <advance width="554"/>
  <unicode hex="0395"/>
  <outline>
    <component base="E"/>
    <contour>
      <point x="32" y="700" type="move" name="topleft"/>
    </contour>
  </outline>
</glyph>
<glyph name="Eta" format="1">
  <advance width="701"/>
  <unicode hex="0397"/>
  <outline>
    <component base="H"/>
    <contour>
      <point x="351" y="0" type="move" name="bottom"/>
    </contour>
    <contour>
      <point x="32" y="700" type="move" name="topleft"/>
    </contour>
  </outline>
</glyph>
<glyph name="Theta" format="1">
  <advance width="666"/>
  <unicode hex="0398"/>
  <outline>
    <contour>
      <point x="247" y="319" type="curve"/>
      <point x="411" y="319" type="line"/>
      <point x="415" y="340"/>
      <point x="416" y="368"/>
      <point x="411" y="393" type="curve"/>
      <point x="247" y="393" type="line"/>
      <point x="242" y="369"/>
      <point x="242" y="345"/>
    </contour>
    <component base="O"/>
    <contour>
      <point x="333" y="698" type="move" name="_top"/>
    </contour>
  </outline>
</glyph>
<glyph name="Iota" format="1">
  <advance width="306"/>
  <unicode hex="0399"/>
  <outline>
    <component base="I"/>
    <contour>
      <point x="33" y="698" type="move" name="topleft"/>
    </contour>
  </outline>
</glyph>
<glyph name="Xi" format="1">
  <advance width="561"/>
  <unicode hex="039E"/>
  <outline>
    <contour>
      <point x="51" y="0" type="curve"/>
      <point x="510" y="0" type="line" smooth="yes"/>
      <point x="547" y="0"/>
      <point x="531" y="118"/>
      <point x="495" y="137" type="curve"/>
      <point x="439" y="113"/>
      <point x="372" y="87"/>
      <point x="281" y="87" type="curve"/>
      <point x="203" y="87"/>
      <point x="122" y="111"/>
      <point x="66" y="137" type="curve"/>
      <point x="30" y="118"/>
      <point x="14" y="0"/>
    </contour>
    <contour>
      <point x="117" y="315" type="curve"/>
      <point x="448" y="315" type="line"/>
      <point x="456" y="338"/>
      <point x="458" y="369"/>
      <point x="448" y="397" type="curve"/>
      <point x="117" y="397" type="line"/>
      <point x="106" y="370"/>
      <point x="106" y="344"/>
    </contour>
    <contour>
      <point x="71" y="563" type="curve"/>
      <point x="131" y="588"/>
      <point x="205" y="613"/>
      <point x="281" y="613" type="curve"/>
      <point x="357" y="613"/>
      <point x="430" y="587"/>
      <point x="490" y="563" type="curve"/>
      <point x="530" y="582"/>
      <point x="547" y="700"/>
      <point x="506" y="700" type="curve"/>
      <point x="55" y="700" type="line" smooth="yes"/>
      <point x="14" y="700"/>
      <point x="31" y="582"/>
    </contour>
  </outline>
</glyph>
<glyph name="Omicron" format="1">
  <advance width="666"/>
  <unicode hex="039F"/>
  <outline>
    <contour>
      <point x="411" y="393" type="curve"/>
      <point x="247" y="393" type="line"/>
      <point x="242" y="369"/>
      <point x="242" y="345"/>
      <point x="247" y="319" type="curve"/>
      <point x="411" y="319" type="line"/>
      <point x="415" y="340"/>
      <point x="416" y="368"/>
    </contour>
    <component base="O"/>
    <contour>
      <point x="110" y="700" type="move" name="topleft"/>
    </contour>
  </outline>
</glyph>
<glyph name="Pi" format="1">
  <advance width="692"/>
  <unicode hex="03A0"/>
  <outline>
    <contour>
      <point x="163" y="-15" type="curve"/>
      <point x="202" y="-15"/>
      <point x="231" y="5"/>
      <point x="243" y="16" type="curve"/>
      <point x="225" y="60"/>
      <point x="223" y="108"/>
      <point x="223" y="146" type="curve"/>
      <point x="223" y="627" type="line"/>
      <point x="469" y="627" type="line"/>
      <point x="469" y="56" type="line" smooth="yes"/>
      <point x="469" y="12"/>
      <point x="503" y="-15"/>
      <point x="549" y="-15" type="curve"/>
      <point x="588" y="-15"/>
      <point x="617" y="5"/>
      <point x="629" y="16" type="curve"/>
      <point x="611" y="60"/>
      <point x="609" y="108"/>
      <point x="609" y="146" type="curve"/>
      <point x="609" y="551" type="line" smooth="yes"/>
      <point x="609" y="589"/>
      <point x="612" y="636"/>
      <point x="629" y="681" type="curve"/>
      <point x="596" y="700"/>
      <point x="546" y="700"/>
      <point x="505" y="700" type="curve"/>
      <point x="187" y="700" type="line" smooth="yes"/>
      <point x="146" y="700"/>
      <point x="96" y="700"/>
      <point x="63" y="681" type="curve"/>
      <point x="80" y="636"/>
      <point x="83" y="589"/>
      <point x="83" y="551" type="curve"/>
      <point x="83" y="56" type="line" smooth="yes"/>
      <point x="83" y="12"/>
      <point x="117" y="-15"/>
    </contour>
    <contour>
      <point x="31" y="700" type="move" name="topleft"/>
    </contour>
  </outline>
</glyph>
<glyph name="Sigma" format="1">
  <advance width="554"/>
  <unicode hex="03A3"/>
  <outline>
    <contour>
      <point x="63" y="-1" type="curve"/>
      <point x="475" y="0" type="line" smooth="yes"/>
      <point x="525" y="0"/>
      <point x="526" y="109"/>
      <point x="489" y="126" type="curve"/>
      <point x="396" y="92"/>
      <point x="252" y="51"/>
      <point x="87" y="96" type="curve"/>
      <point x="106" y="40" type="line"/>
      <point x="370" y="380" type="line"/>
      <point x="149" y="653" type="line"/>
      <point x="149" y="632" type="line"/>
      <point x="258" y="629"/>
      <point x="377" y="611"/>
      <point x="464" y="578" type="curve"/>
      <point x="501" y="595"/>
      <point x="517" y="698"/>
      <point x="479" y="698" type="curve"/>
      <point x="53" y="698" type="line" smooth="yes"/>
      <point x="32" y="698"/>
      <point x="-3" y="648"/>
      <point x="-3" y="625" type="curve"/>
      <point x="250" y="323" type="line"/>
      <point x="248" y="370" type="line"/>
      <point x="13" y="65" type="line"/>
      <point x="16" y="33"/>
      <point x="34" y="12"/>
    </contour>
    <contour>
      <point x="280" y="698" type="move" name="top"/>
    </contour>
  </outline>
</glyph>
<glyph name="Upsilon" format="1">
  <advance width="649"/>
  <unicode hex="03A5"/>
  <outline>
    <contour>
      <point x="333" y="-15" type="curve"/>
      <point x="372" y="-15"/>
      <point x="401" y="5"/>
      <point x="413" y="16" type="curve"/>
      <point x="395" y="60"/>
      <point x="393" y="108"/>
      <point x="393" y="146" type="curve"/>
      <point x="393" y="231" type="line" smooth="yes"/>
      <point x="393" y="283"/>
      <point x="436" y="366"/>
      <point x="456" y="405" type="curve"/>
      <point x="522" y="535" type="line" smooth="yes"/>
      <point x="537" y="565"/>
      <point x="562" y="603"/>
      <point x="598" y="603" type="curve"/>
      <point x="607" y="603"/>
      <point x="621" y="600"/>
      <point x="628" y="596" type="curve"/>
      <point x="633" y="610"/>
      <point x="636" y="622"/>
      <point x="636" y="634" type="curve"/>
      <point x="636" y="675"/>
      <point x="608" y="707"/>
      <point x="556" y="707" type="curve"/>
      <point x="494" y="707"/>
      <point x="472" y="657"/>
      <point x="438" y="577" type="curve"/>
      <point x="374" y="425" type="line" smooth="yes"/>
      <point x="345" y="355"/>
      <point x="315" y="270"/>
      <point x="315" y="231" type="curve"/>
      <point x="353" y="232" type="line"/>
      <point x="353" y="284"/>
      <point x="340" y="381"/>
      <point x="281" y="513" type="curve"/>
      <point x="248" y="588" type="line" smooth="yes"/>
      <point x="208" y="678"/>
      <point x="172" y="710"/>
      <point x="107" y="710" type="curve"/>
      <point x="54" y="710"/>
      <point x="13" y="678"/>
      <point x="13" y="634" type="curve"/>
      <point x="13" y="622"/>
      <point x="16" y="608"/>
      <point x="21" y="596" type="curve"/>
      <point x="29" y="600"/>
      <point x="36" y="603"/>
      <point x="47" y="603" type="curve"/>
      <point x="76" y="603"/>
      <point x="100" y="570"/>
      <point x="128" y="517" type="curve"/>
      <point x="188" y="404" type="line" smooth="yes"/>
      <point x="224" y="336"/>
      <point x="253" y="268"/>
      <point x="253" y="222" type="curve"/>
      <point x="253" y="56" type="line" smooth="yes"/>
      <point x="253" y="12"/>
      <point x="287" y="-15"/>
    </contour>
    <contour>
      <point x="321" y="700" type="move" name="top"/>
    </contour>
    <contour>
      <point x="0" y="700" type="move" name="topleft"/>
    </contour>
  </outline>
</glyph>
<glyph name="Phi" format="1">
  <advance width="808"/>
  <unicode hex="03A6"/>
  <outline>
    <contour>
      <point x="407" y="86" type="curve"/>
      <point x="660" y="86"/>
      <point x="791" y="175"/>
      <point x="791" y="349" type="curve"/>
      <point x="791" y="523"/>
      <point x="660" y="612"/>
      <point x="407" y="612" type="curve"/>
      <point x="154" y="612"/>
      <point x="23" y="523"/>
      <point x="23" y="349" type="curve"/>
      <point x="23" y="175"/>
      <point x="154" y="86"/>
    </contour>
    <contour>
      <point x="442" y="137" type="curve"/>
      <point x="372" y="137" type="line"/>
      <point x="273" y="137"/>
      <point x="178" y="201"/>
      <point x="178" y="349" type="curve"/>
      <point x="178" y="496"/>
      <point x="273" y="563"/>
      <point x="375" y="561" type="curve"/>
      <point x="445" y="560" type="line" smooth="yes"/>
      <point x="544" y="558"/>
      <point x="637" y="495"/>
      <point x="637" y="349" type="curve"/>
      <point x="637" y="205"/>
      <point x="545" y="137"/>
    </contour>
    <component base="I" xScale="0.933" yScale="1.047" xOffset="265" yOffset="-16"/>
    <contour>
      <point x="404" y="0" type="move" name="bottom"/>
    </contour>
    <contour>
      <point x="404" y="349" type="move" name="center"/>
    </contour>
    <contour>
      <point x="669" y="10" type="move" name="ogonek"/>
    </contour>
    <contour>
      <point x="404" y="698" type="move" name="top"/>
    </contour>
    <contour>
      <point x="93" y="698" type="move" name="topleft"/>
    </contour>
    <contour>
      <point x="582" y="653" type="move" name="topright"/>
    </contour>
  </outline>
</glyph>
<glyph name="Omega" format="1">
  <advance width="679"/>
  <unicode hex="03A9"/>
  <outline>
    <contour>
      <point x="282" y="60" type="curve"/>
      <point x="314" y="55" type="line"/>
      <point x="242" y="126"/>
      <point x="207" y="260"/>
      <point x="207" y="395" type="curve"/>
      <point x="207" y="583"/>
      <point x="262" y="663"/>
      <point x="339" y="663" type="curve"/>
      <point x="416" y="663"/>
      <point x="471" y="583"/>
      <point x="471" y="395" type="curve"/>
      <point x="471" y="250"/>
      <point x="440" y="126"/>
      <point x="364" y="55" type="curve"/>
      <point x="396" y="60" type="line"/>
      <point x="536" y="100"/>
      <point x="625" y="249"/>
      <point x="625" y="395" type="curve"/>
      <point x="625" y="604"/>
      <point x="510" y="710"/>
      <point x="339" y="710" type="curve"/>
      <point x="168" y="710"/>
      <point x="53" y="604"/>
      <point x="53" y="395" type="curve"/>
      <point x="53" y="250"/>
      <point x="145" y="100"/>
    </contour>
    <contour>
      <point x="63" y="0" type="curve"/>
      <point x="314" y="0" type="line"/>
      <point x="313" y="55" type="line"/>
      <point x="37" y="144" type="line"/>
      <point x="0" y="93"/>
      <point x="28" y="0"/>
    </contour>
    <contour>
      <point x="365" y="55" type="line"/>
      <point x="365" y="0" type="line"/>
      <point x="616" y="0" type="line" smooth="yes"/>
      <point x="651" y="0"/>
      <point x="679" y="93"/>
      <point x="642" y="144" type="curve"/>
    </contour>
    <contour>
      <point x="340" y="0" type="move" name="bottom"/>
    </contour>
    <contour>
      <point x="110" y="698" type="move" name="topleft"/>
    </contour>
  </outline>
</glyph>
<glyph name="alpha" format="1">
  <advance width="619"/>
  <unicode hex="03B1"/>
  <outline>
    <contour>
      <point x="236" y="-15" type="curve"/>
      <point x="311" y="-15"/>
      <point x="369" y="51"/>
      <point x="399" y="148" type="curve"/>
      <point x="404" y="148" type="line"/>
      <point x="410" y="34"/>
      <point x="459" y="-15"/>
      <point x="520" y="-15" type="curve"/>
      <point x="585" y="-15"/>
      <point x="612" y="25"/>
      <point x="612" y="60" type="curve"/>
      <point x="612" y="79"/>
      <point x="605" y="101"/>
      <point x="600" y="106" type="curve"/>
      <point x="594" y="101"/>
      <point x="573" y="96"/>
      <point x="554" y="96" type="curve"/>
      <point x="486" y="96"/>
      <point x="481" y="170"/>
      <point x="481" y="202" type="curve"/>
      <point x="547" y="394" type="line" smooth="yes"/>
      <point x="575" y="475"/>
      <point x="520" y="527"/>
      <point x="453" y="527" type="curve"/>
      <point x="437" y="527"/>
      <point x="418" y="524"/>
      <point x="407" y="519" type="curve"/>
      <point x="409" y="496"/>
      <point x="406" y="454"/>
      <point x="400" y="412" type="curve"/>
      <point x="377" y="243" type="line" smooth="yes"/>
      <point x="368" y="174"/>
      <point x="340" y="81"/>
      <point x="268" y="81" type="curve"/>
      <point x="208" y="81"/>
      <point x="172" y="151"/>
      <point x="172" y="252" type="curve"/>
      <point x="172" y="337"/>
      <point x="208" y="451"/>
      <point x="304" y="451" type="curve"/>
      <point x="362" y="451"/>
      <point x="401" y="403"/>
      <point x="403" y="352" type="curve"/>
      <point x="420" y="417" type="line"/>
      <point x="405" y="466"/>
      <point x="351" y="531"/>
      <point x="267" y="531" type="curve"/>
      <point x="124" y="531"/>
      <point x="39" y="395"/>
      <point x="39" y="247" type="curve"/>
      <point x="39" y="74"/>
      <point x="138" y="-15"/>
    </contour>
    <contour>
      <point x="297" y="520" type="move" name="top"/>
    </contour>
  </outline>
</glyph>
<glyph name="gamma" format="1">
  <advance width="589"/>
  <unicode hex="03B3"/>
  <outline>
    <contour>
      <point x="318" y="2" type="curve"/>
      <point x="245" y="28" type="line"/>
      <point x="200" y="-56"/>
      <point x="195" y="-158"/>
      <point x="203" y="-201" type="curve"/>
      <point x="227" y="-216"/>
      <point x="284" y="-222"/>
      <point x="306" y="-222" type="curve"/>
      <point x="313" y="-208"/>
      <point x="324" y="-162"/>
      <point x="324" y="-82" type="curve"/>
      <point x="324" y="-57"/>
      <point x="322" y="-28"/>
    </contour>
    <contour>
      <point x="242" y="-11" type="curve"/>
      <point x="313" y="-28" type="line"/>
      <point x="326" y="-2"/>
      <point x="343" y="21"/>
      <point x="364" y="49" type="curve"/>
      <point x="455" y="166"/>
      <point x="547" y="340"/>
      <point x="547" y="456" type="curve"/>
      <point x="547" y="504"/>
      <point x="513" y="527"/>
      <point x="463" y="527" type="curve"/>
      <point x="427" y="527"/>
      <point x="402" y="515"/>
      <point x="392" y="509" type="curve"/>
      <point x="396" y="503"/>
      <point x="402" y="491"/>
      <point x="402" y="472" type="curve"/>
      <point x="402" y="335"/>
      <point x="362" y="214"/>
      <point x="281" y="64" type="curve"/>
      <point x="300" y="64" type="line"/>
      <point x="226" y="358" type="line" smooth="yes"/>
      <point x="199" y="466"/>
      <point x="170" y="527"/>
      <point x="99" y="527" type="curve"/>
      <point x="43" y="527"/>
      <point x="10" y="485"/>
      <point x="10" y="444" type="curve"/>
      <point x="10" y="430"/>
      <point x="12" y="419"/>
      <point x="20" y="407" type="curve"/>
      <point x="28" y="412"/>
      <point x="39" y="417"/>
      <point x="52" y="417" type="curve"/>
      <point x="88" y="417"/>
      <point x="102" y="367"/>
      <point x="116" y="329" type="curve"/>
      <point x="187" y="141" type="line" smooth="yes"/>
      <point x="200" y="105"/>
      <point x="227" y="46"/>
    </contour>
  </outline>
</glyph>
<glyph name="delta" format="1">
  <advance width="556"/>
  <unicode hex="03B4"/>
  <outline>
    <contour>
      <point x="278" y="-15" type="curve"/>
      <point x="422" y="-15"/>
      <point x="512" y="84"/>
      <point x="512" y="241" type="curve"/>
      <point x="512" y="353"/>
      <point x="444" y="434"/>
      <point x="331" y="511" type="curve"/>
      <point x="225" y="583" type="line" smooth="yes"/>
      <point x="193" y="605"/>
      <point x="178" y="615"/>
      <point x="178" y="632" type="curve"/>
      <point x="178" y="648"/>
      <point x="192" y="655"/>
      <point x="222" y="655" type="curve"/>
      <point x="293" y="655"/>
      <point x="374" y="617"/>
      <point x="405" y="558" type="curve"/>
      <point x="449" y="556"/>
      <point x="488" y="591"/>
      <point x="488" y="631" type="curve"/>
      <point x="488" y="690"/>
      <point x="402" y="733"/>
      <point x="283" y="733" type="curve"/>
      <point x="163" y="733"/>
      <point x="93" y="683"/>
      <point x="93" y="603" type="curve"/>
      <point x="93" y="545"/>
      <point x="136" y="491"/>
      <point x="222" y="442" type="curve"/>
      <point x="268" y="416" type="line" smooth="yes"/>
      <point x="340" y="375"/>
      <point x="377" y="320"/>
      <point x="377" y="228" type="curve"/>
      <point x="377" y="111"/>
      <point x="337" y="32"/>
      <point x="277" y="32" type="curve"/>
      <point x="216" y="32"/>
      <point x="175" y="114"/>
      <point x="175" y="236" type="curve"/>
      <point x="175" y="369"/>
      <point x="238" y="440"/>
      <point x="348" y="431" type="curve"/>
      <point x="326" y="462" type="line"/>
      <point x="149" y="466"/>
      <point x="39" y="375"/>
      <point x="39" y="225" type="curve"/>
      <point x="39" y="77"/>
      <point x="130" y="-15"/>
    </contour>
  </outline>
</glyph>
<glyph name="epsilon" format="1">
  <advance width="516"/>
  <unicode hex="03B5"/>
  <outline>
    <contour>
      <point x="269" y="-18" type="curve"/>
      <point x="381" y="-18"/>
      <point x="496" y="28"/>
      <point x="496" y="121" type="curve"/>
      <point x="496" y="136"/>
      <point x="491" y="149"/>
      <point x="480" y="157" type="curve"/>
      <point x="453" y="100"/>
      <point x="391" y="70"/>
      <point x="315" y="70" type="curve"/>
      <point x="236" y="70"/>
      <point x="189" y="108"/>
      <point x="189" y="162" type="curve"/>
      <point x="189" y="200"/>
      <point x="217" y="238"/>
      <point x="246" y="251" type="curve"/>
      <point x="248" y="279" type="line"/>
      <point x="210" y="300"/>
      <point x="192" y="344"/>
      <point x="192" y="377" type="curve"/>
      <point x="192" y="445"/>
      <point x="229" y="485"/>
      <point x="293" y="485" type="curve"/>
      <point x="328" y="485"/>
      <point x="357" y="468"/>
      <point x="357" y="437" type="curve"/>
      <point x="357" y="419"/>
      <point x="347" y="397"/>
      <point x="329" y="383" type="curve"/>
      <point x="341" y="373"/>
      <point x="369" y="366"/>
      <point x="399" y="366" type="curve"/>
      <point x="451" y="366"/>
      <point x="486" y="393"/>
      <point x="486" y="434" type="curve"/>
      <point x="486" y="494"/>
      <point x="413" y="531"/>
      <point x="288" y="531" type="curve"/>
      <point x="146" y="531"/>
      <point x="52" y="471"/>
      <point x="52" y="376" type="curve"/>
      <point x="52" y="321"/>
      <point x="105" y="271"/>
      <point x="180" y="254" type="curve"/>
      <point x="181" y="266" type="line"/>
      <point x="101" y="243"/>
      <point x="45" y="194"/>
      <point x="45" y="122" type="curve"/>
      <point x="45" y="36"/>
      <point x="132" y="-18"/>
    </contour>
    <contour>
      <point x="317" y="222" type="curve"/>
      <point x="357" y="222"/>
      <point x="382" y="247"/>
      <point x="382" y="276" type="curve"/>
      <point x="382" y="287"/>
      <point x="377" y="296"/>
      <point x="367" y="307" type="curve"/>
      <point x="315" y="303"/>
      <point x="269" y="293"/>
      <point x="228" y="283" type="curve"/>
      <point x="209" y="242" type="line"/>
      <point x="242" y="229"/>
      <point x="280" y="222"/>
    </contour>
    <contour>
      <point x="257" y="520" type="move" name="top"/>
    </contour>
  </outline>
</glyph>
<glyph name="zeta" format="1">
  <advance width="449"/>
  <unicode hex="03B6"/>
  <outline>
    <contour>
      <point x="193" y="231" type="curve"/>
      <point x="193" y="410"/>
      <point x="281" y="615"/>
      <point x="382" y="617" type="curve"/>
      <point x="414" y="618"/>
      <point x="447" y="604"/>
      <point x="467" y="584" type="curve"/>
      <point x="478" y="595"/>
      <point x="494" y="627"/>
      <point x="494" y="659" type="curve"/>
      <point x="494" y="691"/>
      <point x="476" y="733"/>
      <point x="420" y="733" type="curve"/>
      <point x="268" y="733"/>
      <point x="46" y="401"/>
      <point x="46" y="207" type="curve"/>
      <point x="46" y="63"/>
      <point x="133" y="32"/>
      <point x="207" y="4" type="curve"/>
      <point x="262" y="-16"/>
      <point x="308" y="-34"/>
      <point x="308" y="-87" type="curve"/>
      <point x="308" y="-120"/>
      <point x="294" y="-152"/>
      <point x="266" y="-172" type="curve"/>
      <point x="273" y="-177"/>
      <point x="286" y="-184"/>
      <point x="306" y="-184" type="curve"/>
      <point x="361" y="-184"/>
      <point x="420" y="-150"/>
      <point x="420" y="-84" type="curve"/>
      <point x="420" y="-13"/>
      <point x="343" y="20"/>
      <point x="297" y="43" type="curve"/>
      <point x="233" y="75"/>
      <point x="193" y="140"/>
    </contour>
    <contour>
      <point x="310" y="667" type="curve"/>
      <point x="325" y="698" type="line"/>
      <point x="299" y="687"/>
      <point x="269" y="678"/>
      <point x="238" y="678" type="curve"/>
      <point x="202" y="678"/>
      <point x="166" y="699"/>
      <point x="166" y="748" type="curve"/>
      <point x="166" y="754"/>
      <point x="167" y="761"/>
      <point x="168" y="768" type="curve"/>
      <point x="106" y="768"/>
      <point x="69" y="733"/>
      <point x="69" y="691" type="curve"/>
      <point x="69" y="644"/>
      <point x="108" y="613"/>
      <point x="153" y="613" type="curve"/>
      <point x="205" y="613"/>
      <point x="265" y="641"/>
    </contour>
  </outline>
</glyph>
<glyph name="eta" format="1">
  <advance width="590"/>
  <unicode hex="03B7"/>
  <outline>
    <contour>
      <point x="477" y="-224" type="curve"/>
      <point x="507" y="-224"/>
      <point x="538" y="-208"/>
      <point x="550" y="-196" type="curve"/>
      <point x="535" y="-154"/>
      <point x="536" y="-61"/>
      <point x="536" y="3" type="curve"/>
      <point x="536" y="305" type="line" smooth="yes"/>
      <point x="536" y="503"/>
      <point x="450" y="531"/>
      <point x="388" y="531" type="curve"/>
      <point x="313" y="531"/>
      <point x="246" y="479"/>
      <point x="206" y="353" type="curve"/>
      <point x="219" y="348" type="line"/>
      <point x="219" y="483"/>
      <point x="162" y="528"/>
      <point x="101" y="528" type="curve"/>
      <point x="49" y="528"/>
      <point x="15" y="494"/>
      <point x="15" y="451" type="curve"/>
      <point x="15" y="436"/>
      <point x="20" y="417"/>
      <point x="27" y="407" type="curve"/>
      <point x="37" y="413"/>
      <point x="49" y="417"/>
      <point x="65" y="417" type="curve"/>
      <point x="119" y="417"/>
      <point x="118" y="365"/>
      <point x="118" y="312" type="curve"/>
      <point x="102" y="95" type="line" smooth="yes"/>
      <point x="96" y="24"/>
      <point x="125" y="-15"/>
      <point x="173" y="-15" type="curve"/>
      <point x="206" y="-15"/>
      <point x="231" y="0"/>
      <point x="248" y="13" type="curve"/>
      <point x="238" y="43"/>
      <point x="235" y="75"/>
      <point x="235" y="126" type="curve"/>
      <point x="235" y="258" type="line" smooth="yes"/>
      <point x="235" y="339"/>
      <point x="273" y="428"/>
      <point x="344" y="428" type="curve"/>
      <point x="390" y="428"/>
      <point x="423" y="394"/>
      <point x="420" y="317" type="curve"/>
      <point x="405" y="-100" type="line" smooth="yes"/>
      <point x="403" y="-164"/>
      <point x="416" y="-224"/>
    </contour>
    <contour>
      <point x="307" y="520" type="move" name="top"/>
    </contour>
  </outline>
</glyph>
<glyph name="theta" format="1">
  <advance width="602"/>
  <unicode hex="03B8"/>
  <outline>
    <contour>
      <point x="301" y="-14" type="curve"/>
      <point x="460" y="-14"/>
      <point x="552" y="125"/>
      <point x="552" y="359" type="curve"/>
      <point x="552" y="594"/>
      <point x="450" y="733"/>
      <point x="307" y="733" type="curve"/>
      <point x="154" y="733"/>
      <point x="50" y="594"/>
      <point x="50" y="359" type="curve"/>
      <point x="50" y="125"/>
      <point x="142" y="-14"/>
    </contour>
    <contour>
      <point x="301" y="36" type="curve"/>
      <point x="226" y="36"/>
      <point x="191" y="145"/>
      <point x="191" y="359" type="curve"/>
      <point x="191" y="575"/>
      <point x="219" y="683"/>
      <point x="301" y="683" type="curve"/>
      <point x="384" y="683"/>
      <point x="410" y="575"/>
      <point x="410" y="359" type="curve"/>
      <point x="410" y="145"/>
      <point x="376" y="36"/>
    </contour>
    <contour>
      <point x="142" y="394" type="curve"/>
      <point x="146" y="376"/>
      <point x="146" y="351"/>
      <point x="152" y="319" type="curve"/>
      <point x="275" y="330"/>
      <point x="341" y="326"/>
      <point x="445" y="323" type="curve"/>
      <point x="441" y="399" type="line"/>
      <point x="333" y="383"/>
      <point x="263" y="383"/>
    </contour>
  </outline>
</glyph>
<glyph name="iota" format="1">
  <advance width="301"/>
  <unicode hex="03B9"/>
  <outline>
    <contour>
      <point x="190" y="-15" type="curve"/>
      <point x="237" y="-15"/>
      <point x="276" y="14"/>
      <point x="276" y="59" type="curve"/>
      <point x="276" y="74"/>
      <point x="272" y="96"/>
      <point x="264" y="106" type="curve"/>
      <point x="253" y="99"/>
      <point x="239" y="96"/>
      <point x="228" y="96" type="curve"/>
      <point x="190" y="96"/>
      <point x="181" y="121"/>
      <point x="187" y="175" type="curve"/>
      <point x="198" y="433" type="line"/>
      <point x="204" y="503"/>
      <point x="167" y="527"/>
      <point x="129" y="527" type="curve"/>
      <point x="101" y="527"/>
      <point x="80" y="522"/>
      <point x="50" y="499" type="curve"/>
      <point x="58" y="471"/>
      <point x="63" y="442"/>
      <point x="63" y="385" type="curve"/>
      <point x="64" y="189" type="line" smooth="yes"/>
      <point x="64" y="67"/>
      <point x="104" y="-15"/>
    </contour>
    <contour>
      <point x="129" y="527" type="move" name="top"/>
    </contour>
  </outline>
</glyph>
<glyph name="kappa" format="1">
  <advance width="592"/>
  <unicode hex="03BA"/>
  <outline>
    <contour>
      <point x="144" y="-15" type="curve"/>
      <point x="175" y="-15"/>
      <point x="198" y="0"/>
      <point x="215" y="13" type="curve"/>
      <point x="210" y="33"/>
      <point x="207" y="46"/>
      <point x="207" y="71" type="curve"/>
      <point x="207" y="105"/>
      <point x="238" y="173"/>
      <point x="275" y="216" type="curve"/>
      <point x="353" y="308" type="line" smooth="yes"/>
      <point x="396" y="354"/>
      <point x="451" y="405"/>
      <point x="496" y="405" type="curve"/>
      <point x="506" y="405"/>
      <point x="516" y="405"/>
      <point x="526" y="401" type="curve"/>
      <point x="534" y="416"/>
      <point x="538" y="438"/>
      <point x="538" y="451" type="curve"/>
      <point x="538" y="500"/>
      <point x="496" y="527"/>
      <point x="457" y="527" type="curve"/>
      <point x="386" y="527"/>
      <point x="357" y="448"/>
      <point x="299" y="367" type="curve"/>
      <point x="232" y="273" type="line" smooth="yes"/>
      <point x="208" y="240"/>
      <point x="173" y="174"/>
      <point x="163" y="105" type="curve"/>
      <point x="175" y="93" type="line"/>
      <point x="199" y="433" type="line" smooth="yes"/>
      <point x="204" y="503"/>
      <point x="168" y="527"/>
      <point x="128" y="527" type="curve"/>
      <point x="106" y="527"/>
      <point x="77" y="519"/>
      <point x="55" y="499" type="curve"/>
      <point x="63" y="471"/>
      <point x="68" y="442"/>
      <point x="68" y="385" type="curve"/>
      <point x="68" y="95" type="line" smooth="yes"/>
      <point x="68" y="24"/>
      <point x="93" y="-15"/>
    </contour>
    <contour>
      <point x="477" y="-15" type="curve"/>
      <point x="535" y="-15"/>
      <point x="563" y="31"/>
      <point x="563" y="65" type="curve"/>
      <point x="563" y="87"/>
      <point x="556" y="101"/>
      <point x="553" y="105" type="curve"/>
      <point x="546" y="101"/>
      <point x="535" y="95"/>
      <point x="523" y="95" type="curve"/>
      <point x="487" y="95"/>
      <point x="452" y="116"/>
      <point x="405" y="194" type="curve"/>
      <point x="314" y="346" type="line"/>
      <point x="265" y="288" type="line"/>
      <point x="332" y="132" type="line" smooth="yes"/>
      <point x="366" y="53"/>
      <point x="402" y="-15"/>
    </contour>
  </outline>
</glyph>
<glyph name="lambda" format="1">
  <advance width="551"/>
  <unicode hex="03BB"/>
  <outline>
    <contour>
      <point x="479" y="-15" type="curve"/>
      <point x="540" y="-15"/>
      <point x="568" y="31"/>
      <point x="568" y="65" type="curve"/>
      <point x="568" y="87"/>
      <point x="561" y="101"/>
      <point x="558" y="105" type="curve"/>
      <point x="551" y="101"/>
      <point x="540" y="95"/>
      <point x="528" y="95" type="curve"/>
      <point x="497" y="95"/>
      <point x="482" y="124"/>
      <point x="452" y="204" type="curve"/>
      <point x="332" y="528" type="line" smooth="yes"/>
      <point x="282" y="663"/>
      <point x="249" y="733"/>
      <point x="157" y="733" type="curve"/>
      <point x="99" y="733"/>
      <point x="47" y="698"/>
      <point x="47" y="639" type="curve"/>
      <point x="47" y="630"/>
      <point x="51" y="612"/>
      <point x="53" y="606" type="curve"/>
      <point x="63" y="611"/>
      <point x="96" y="623"/>
      <point x="125" y="623" type="curve"/>
      <point x="197" y="623"/>
      <point x="236" y="585"/>
      <point x="265" y="478" type="curve"/>
      <point x="356" y="142" type="line" smooth="yes"/>
      <point x="377" y="66"/>
      <point x="401" y="-15"/>
    </contour>
    <contour>
      <point x="125" y="-15" type="curve"/>
      <point x="152" y="-15"/>
      <point x="175" y="-5"/>
      <point x="189" y="6" type="curve"/>
      <point x="182" y="16"/>
      <point x="181" y="29"/>
      <point x="181" y="45" type="curve"/>
      <point x="180" y="133"/>
      <point x="286" y="394"/>
      <point x="313" y="504" type="curve"/>
      <point x="254" y="534" type="line"/>
      <point x="202" y="447"/>
      <point x="39" y="140"/>
      <point x="39" y="57" type="curve"/>
      <point x="39" y="28"/>
      <point x="68" y="-15"/>
    </contour>
  </outline>
</glyph>
<glyph name="mu" format="1">
  <advance width="612"/>
  <unicode hex="03BC"/>
  <outline>
    <contour>
      <point x="144" y="-224" type="curve"/>
      <point x="175" y="-224"/>
      <point x="210" y="-205"/>
      <point x="229" y="-169" type="curve"/>
      <point x="222" y="-163"/>
      <point x="203" y="-146"/>
      <point x="188" y="-114" type="curve"/>
      <point x="158" y="-50"/>
      <point x="135" y="57"/>
      <point x="133" y="115" type="curve"/>
      <point x="141" y="115" type="line"/>
      <point x="156" y="52"/>
      <point x="183" y="-15"/>
      <point x="263" y="-15" type="curve"/>
      <point x="339" y="-15"/>
      <point x="383" y="61"/>
      <point x="405" y="138" type="curve"/>
      <point x="410" y="138" type="line"/>
      <point x="416" y="44"/>
      <point x="446" y="-15"/>
      <point x="505" y="-15" type="curve"/>
      <point x="574" y="-15"/>
      <point x="612" y="57"/>
      <point x="612" y="109" type="curve"/>
      <point x="612" y="132"/>
      <point x="604" y="143"/>
      <point x="596" y="150" type="curve"/>
      <point x="590" y="138"/>
      <point x="571" y="96"/>
      <point x="540" y="96" type="curve"/>
      <point x="505" y="96"/>
      <point x="484" y="146"/>
      <point x="484" y="201" type="curve"/>
      <point x="514" y="414" type="line" smooth="yes"/>
      <point x="526" y="491"/>
      <point x="487" y="528"/>
      <point x="445" y="528" type="curve"/>
      <point x="419" y="528"/>
      <point x="399" y="523"/>
      <point x="367" y="500" type="curve"/>
      <point x="383" y="452"/>
      <point x="384" y="381"/>
      <point x="384" y="243" type="curve"/>
      <point x="384" y="166"/>
      <point x="347" y="96"/>
      <point x="277" y="96" type="curve"/>
      <point x="202" y="96"/>
      <point x="183" y="154"/>
      <point x="183" y="208" type="curve"/>
      <point x="187" y="266"/>
      <point x="205" y="397"/>
      <point x="205" y="446" type="curve"/>
      <point x="205" y="501"/>
      <point x="178" y="528"/>
      <point x="138" y="528" type="curve"/>
      <point x="103" y="528"/>
      <point x="75" y="513"/>
      <point x="60" y="500" type="curve"/>
      <point x="65" y="482"/>
      <point x="68" y="460"/>
      <point x="73" y="397" type="curve"/>
      <point x="83" y="250" type="line"/>
      <point x="32" y="-121"/>
      <point x="49" y="-224"/>
    </contour>
  </outline>
</glyph>
<glyph name="nu" format="1">
  <advance width="572"/>
  <unicode hex="03BD"/>
  <outline>
    <contour>
      <point x="108" y="352" type="curve"/>
      <point x="236" y="0" type="line"/>
      <point x="301" y="-1"/>
      <point x="324" y="13"/>
      <point x="384" y="89" type="curve"/>
      <point x="461" y="190"/>
      <point x="537" y="366"/>
      <point x="537" y="444" type="curve"/>
      <point x="537" y="495"/>
      <point x="507" y="527"/>
      <point x="458" y="527" type="curve"/>
      <point x="431" y="527"/>
      <point x="403" y="520"/>
      <point x="385" y="509" type="curve"/>
      <point x="392" y="497"/>
      <point x="395" y="476"/>
      <point x="395" y="444" type="curve"/>
      <point x="395" y="388"/>
      <point x="374" y="285"/>
      <point x="347" y="213" type="curve"/>
      <point x="320" y="138"/>
      <point x="294" y="89"/>
      <point x="266" y="60" type="curve"/>
      <point x="294" y="51" type="line"/>
      <point x="231" y="358" type="line" smooth="yes"/>
      <point x="206" y="478"/>
      <point x="168" y="527"/>
      <point x="99" y="527" type="curve"/>
      <point x="50" y="527"/>
      <point x="10" y="491"/>
      <point x="10" y="447" type="curve"/>
      <point x="10" y="430"/>
      <point x="13" y="418"/>
      <point x="20" y="407" type="curve"/>
      <point x="29" y="413"/>
      <point x="41" y="417"/>
      <point x="51" y="417" type="curve"/>
      <point x="75" y="417"/>
      <point x="91" y="399"/>
    </contour>
  </outline>
</glyph>
<glyph name="xi" format="1">
  <advance width="482"/>
  <unicode hex="03BE"/>
  <outline>
    <contour>
      <point x="340" y="-188" type="curve"/>
      <point x="402" y="-188"/>
      <point x="452" y="-138"/>
      <point x="452" y="-75" type="curve"/>
      <point x="452" y="-27"/>
      <point x="421" y="8"/>
      <point x="353" y="27" type="curve"/>
      <point x="335" y="32" type="line" smooth="yes"/>
      <point x="226" y="62"/>
      <point x="183" y="109"/>
      <point x="183" y="181" type="curve"/>
      <point x="183" y="255"/>
      <point x="223" y="307"/>
      <point x="281" y="324" type="curve"/>
      <point x="281" y="373" type="line"/>
      <point x="240" y="377"/>
      <point x="217" y="425"/>
      <point x="217" y="472" type="curve"/>
      <point x="217" y="561"/>
      <point x="303" y="617"/>
      <point x="433" y="617" type="curve"/>
      <point x="444" y="617"/>
      <point x="456" y="617"/>
      <point x="468" y="616" type="curve"/>
      <point x="470" y="630"/>
      <point x="472" y="643"/>
      <point x="472" y="654" type="curve"/>
      <point x="472" y="692"/>
      <point x="456" y="713"/>
      <point x="423" y="713" type="curve"/>
      <point x="397" y="713"/>
      <point x="372" y="704"/>
      <point x="348" y="695" type="curve"/>
      <point x="321" y="685"/>
      <point x="290" y="675"/>
      <point x="235" y="675" type="curve"/>
      <point x="153" y="675"/>
      <point x="111" y="696"/>
      <point x="91" y="746" type="curve"/>
      <point x="51" y="746"/>
      <point x="15" y="709"/>
      <point x="15" y="667" type="curve"/>
      <point x="15" y="618"/>
      <point x="46" y="588"/>
      <point x="97" y="588" type="curve"/>
      <point x="146" y="588"/>
      <point x="205" y="600"/>
      <point x="262" y="622" type="curve"/>
      <point x="261" y="625" type="line"/>
      <point x="131" y="576"/>
      <point x="75" y="529"/>
      <point x="75" y="464" type="curve"/>
      <point x="75" y="400"/>
      <point x="129" y="350"/>
      <point x="216" y="330" type="curve"/>
      <point x="216" y="345" type="line"/>
      <point x="101" y="312"/>
      <point x="39" y="250"/>
      <point x="39" y="173" type="curve"/>
      <point x="39" y="90"/>
      <point x="94" y="32"/>
      <point x="240" y="-6" type="curve"/>
      <point x="267" y="-13" type="line" smooth="yes"/>
      <point x="316" y="-26"/>
      <point x="331" y="-45"/>
      <point x="331" y="-75" type="curve"/>
      <point x="331" y="-111"/>
      <point x="305" y="-137"/>
      <point x="271" y="-154" type="curve"/>
      <point x="287" y="-177"/>
      <point x="310" y="-188"/>
    </contour>
    <contour>
      <point x="336" y="297" type="curve"/>
      <point x="378" y="297"/>
      <point x="415" y="317"/>
      <point x="415" y="358" type="curve"/>
      <point x="415" y="374"/>
      <point x="411" y="387"/>
      <point x="398" y="402" type="curve"/>
      <point x="352" y="399"/>
      <point x="306" y="391"/>
      <point x="229" y="372" type="curve"/>
      <point x="229" y="327" type="line"/>
      <point x="264" y="313"/>
      <point x="300" y="297"/>
    </contour>
  </outline>
</glyph>
<glyph name="omicron" format="1">
  <advance width="554"/>
  <unicode hex="03BF"/>
  <outline>
    <contour>
      <point x="277" y="-14" type="curve"/>
      <point x="433" y="-14"/>
      <point x="524" y="87"/>
      <point x="524" y="258" type="curve"/>
      <point x="524" y="430"/>
      <point x="422" y="529"/>
      <point x="283" y="531" type="curve"/>
      <point x="132" y="533"/>
      <point x="30" y="430"/>
      <point x="30" y="258" type="curve"/>
      <point x="30" y="87"/>
      <point x="121" y="-14"/>
    </contour>
    <contour>
      <point x="277" y="32" type="curve"/>
      <point x="225" y="32"/>
      <point x="177" y="108"/>
      <point x="177" y="258" type="curve"/>
      <point x="177" y="409"/>
      <point x="220" y="485"/>
      <point x="277" y="485" type="curve"/>
      <point x="334" y="485"/>
      <point x="376" y="409"/>
      <point x="376" y="258" type="curve"/>
      <point x="376" y="108"/>
      <point x="329" y="32"/>
    </contour>
    <contour>
      <point x="269" y="520" type="move" name="top"/>
    </contour>
  </outline>
</glyph>
<glyph name="pi" format="1">
  <advance width="635"/>
  <unicode hex="03C0"/>
  <outline>
    <contour>
      <point x="490" y="-15" type="curve"/>
      <point x="572" y="-15"/>
      <point x="618" y="71"/>
      <point x="618" y="115" type="curve"/>
      <point x="618" y="129"/>
      <point x="612" y="145"/>
      <point x="602" y="150" type="curve"/>
      <point x="582" y="117"/>
      <point x="556" y="96"/>
      <point x="530" y="96" type="curve"/>
      <point x="477" y="96"/>
      <point x="465" y="167"/>
      <point x="466" y="274" type="curve"/>
      <point x="468" y="451" type="line"/>
      <point x="385" y="451" type="line"/>
      <point x="373" y="245" type="line" smooth="yes"/>
      <point x="363" y="79"/>
      <point x="385" y="-15"/>
    </contour>
    <contour>
      <point x="151" y="-15" type="curve"/>
      <point x="261" y="-15"/>
      <point x="252" y="132"/>
      <point x="255" y="306" type="curve"/>
      <point x="258" y="462" type="line"/>
      <point x="178" y="462" type="line"/>
      <point x="161" y="290" type="line" smooth="yes"/>
      <point x="148" y="150"/>
      <point x="99" y="70"/>
      <point x="57" y="50" type="curve"/>
      <point x="76" y="13"/>
      <point x="107" y="-15"/>
    </contour>
    <contour>
      <point x="21" y="375" type="curve"/>
      <point x="59" y="407"/>
      <point x="96" y="417"/>
      <point x="194" y="417" type="curve"/>
      <point x="268" y="417"/>
      <point x="409" y="406"/>
      <point x="524" y="406" type="curve"/>
      <point x="585" y="406"/>
      <point x="619" y="422"/>
      <point x="619" y="470" type="curve"/>
      <point x="619" y="509"/>
      <point x="599" y="531"/>
      <point x="589" y="540" type="curve"/>
      <point x="560" y="523"/>
      <point x="519" y="520"/>
      <point x="485" y="520" type="curve"/>
      <point x="209" y="520" type="line" smooth="yes"/>
      <point x="102" y="520"/>
      <point x="17" y="506"/>
      <point x="17" y="402" type="curve"/>
      <point x="17" y="393"/>
      <point x="19" y="384"/>
    </contour>
  </outline>
</glyph>
<glyph name="rho" format="1">
  <advance width="548"/>
  <unicode hex="03C1"/>
  <outline>
    <contour>
      <point x="142" y="-224" type="curve"/>
      <point x="178" y="-224"/>
      <point x="202" y="-209"/>
      <point x="220" y="-189" type="curve"/>
      <point x="194" y="-153"/>
      <point x="174" y="-95"/>
      <point x="174" y="69" type="curve"/>
      <point x="174" y="258" type="line" smooth="yes"/>
      <point x="174" y="428"/>
      <point x="220" y="485"/>
      <point x="269" y="485" type="curve"/>
      <point x="330" y="485"/>
      <point x="370" y="400"/>
      <point x="370" y="272" type="curve"/>
      <point x="370" y="147"/>
      <point x="330" y="51"/>
      <point x="254" y="51" type="curve"/>
      <point x="212" y="51"/>
      <point x="163" y="78"/>
      <point x="134" y="164" type="curve"/>
      <point x="96" y="109" type="line"/>
      <point x="144" y="36"/>
      <point x="197" y="-15"/>
      <point x="284" y="-15" type="curve"/>
      <point x="399" y="-15"/>
      <point x="518" y="81"/>
      <point x="518" y="265" type="curve"/>
      <point x="518" y="402"/>
      <point x="441" y="531"/>
      <point x="275" y="531" type="curve"/>
      <point x="148" y="531"/>
      <point x="38" y="461"/>
      <point x="38" y="226" type="curve"/>
      <point x="38" y="-4" type="line" smooth="yes"/>
      <point x="38" y="-126"/>
      <point x="30" y="-224"/>
    </contour>
  </outline>
</glyph>
<glyph name="sigmafinal" format="1">
  <advance width="476"/>
  <unicode hex="03C2"/>
  <outline>
    <contour>
      <point x="438" y="-85" type="curve"/>
      <point x="438" y="-15"/>
      <point x="366" y="17"/>
      <point x="315" y="43" type="curve"/>
      <point x="247" y="78"/>
      <point x="200" y="126"/>
      <point x="200" y="274" type="curve"/>
      <point x="200" y="384"/>
      <point x="248" y="486"/>
      <point x="333" y="486" type="curve"/>
      <point x="376" y="486"/>
      <point x="397" y="449"/>
      <point x="397" y="415" type="curve"/>
      <point x="397" y="384"/>
      <point x="387" y="357"/>
      <point x="369" y="343" type="curve"/>
      <point x="381" y="333"/>
      <point x="409" y="326"/>
      <point x="429" y="326" type="curve"/>
      <point x="491" y="326"/>
      <point x="526" y="369"/>
      <point x="526" y="415" type="curve"/>
      <point x="526" y="486"/>
      <point x="453" y="531"/>
      <point x="346" y="532" type="curve"/>
      <point x="152" y="533"/>
      <point x="54" y="396"/>
      <point x="54" y="258" type="curve"/>
      <point x="54" y="84"/>
      <point x="154" y="44"/>
      <point x="247" y="-2" type="curve"/>
      <point x="299" y="-28"/>
      <point x="326" y="-46"/>
      <point x="326" y="-91" type="curve"/>
      <point x="326" y="-137"/>
      <point x="295" y="-164"/>
      <point x="284" y="-172" type="curve"/>
      <point x="292" y="-177"/>
      <point x="303" y="-184"/>
      <point x="326" y="-184" type="curve"/>
      <point x="363" y="-184"/>
      <point x="438" y="-160"/>
    </contour>
    <contour>
      <point x="293" y="520" type="move" name="top"/>
    </contour>
  </outline>
</glyph>
<glyph name="sigma" format="1">
  <advance width="590"/>
  <unicode hex="03C3"/>
  <outline>
    <contour>
      <point x="277" y="-14" type="curve"/>
      <point x="424" y="-14"/>
      <point x="529" y="89"/>
      <point x="529" y="224" type="curve"/>
      <point x="529" y="333"/>
      <point x="460" y="405"/>
      <point x="361" y="441" type="curve"/>
      <point x="309" y="451" type="line"/>
      <point x="349" y="433"/>
      <point x="396" y="368"/>
      <point x="396" y="257" type="curve"/>
      <point x="396" y="135"/>
      <point x="341" y="35"/>
      <point x="265" y="35" type="curve"/>
      <point x="195" y="35"/>
      <point x="168" y="116"/>
      <point x="168" y="196" type="curve"/>
      <point x="168" y="317"/>
      <point x="228" y="420"/>
      <point x="350" y="415" type="curve"/>
      <point x="491" y="410" type="line" smooth="yes"/>
      <point x="537" y="408"/>
      <point x="579" y="422"/>
      <point x="579" y="473" type="curve"/>
      <point x="579" y="501"/>
      <point x="562" y="528"/>
      <point x="549" y="540" type="curve"/>
      <point x="527" y="525"/>
      <point x="482" y="520"/>
      <point x="449" y="520" type="curve"/>
      <point x="361" y="520" type="line" smooth="yes"/>
      <point x="161" y="520"/>
      <point x="39" y="399"/>
      <point x="39" y="237" type="curve"/>
      <point x="39" y="106"/>
      <point x="119" y="-14"/>
    </contour>
    <contour>
      <point x="284" y="520" type="move" name="top"/>
    </contour>
  </outline>
</glyph>
<glyph name="tau" format="1">
  <advance width="476"/>
  <unicode hex="03C4"/>
  <outline>
    <contour>
      <point x="278" y="-15" type="curve"/>
      <point x="369" y="-15"/>
      <point x="415" y="71"/>
      <point x="415" y="115" type="curve"/>
      <point x="415" y="129"/>
      <point x="409" y="145"/>
      <point x="399" y="150" type="curve"/>
      <point x="379" y="117"/>
      <point x="353" y="96"/>
      <point x="327" y="96" type="curve"/>
      <point x="272" y="96"/>
      <point x="257" y="165"/>
      <point x="267" y="326" type="curve"/>
      <point x="275" y="451" type="line"/>
      <point x="199" y="451" type="line"/>
      <point x="163" y="238" type="line" smooth="yes"/>
      <point x="136" y="80"/>
      <point x="179" y="-15"/>
    </contour>
    <contour>
      <point x="4" y="382" type="curve"/>
      <point x="51" y="410"/>
      <point x="81" y="414"/>
      <point x="110" y="414" type="curve"/>
      <point x="178" y="414"/>
      <point x="256" y="406"/>
      <point x="357" y="406" type="curve"/>
      <point x="425" y="406"/>
      <point x="466" y="417"/>
      <point x="466" y="470" type="curve"/>
      <point x="466" y="506"/>
      <point x="446" y="533"/>
      <point x="435" y="540" type="curve"/>
      <point x="405" y="521"/>
      <point x="358" y="520"/>
      <point x="324" y="520" type="curve"/>
      <point x="132" y="520" type="line" smooth="yes"/>
      <point x="52" y="520"/>
      <point x="0" y="482"/>
      <point x="0" y="407" type="curve"/>
      <point x="0" y="398"/>
      <point x="2" y="386"/>
    </contour>
  </outline>
</glyph>
<glyph name="upsilon" format="1">
  <advance width="612"/>
  <unicode hex="03C5"/>
  <outline>
    <contour>
      <point x="312" y="-15" type="curve"/>
      <point x="480" y="-15"/>
      <point x="567" y="138"/>
      <point x="567" y="274" type="curve"/>
      <point x="567" y="439"/>
      <point x="471" y="525"/>
      <point x="412" y="525" type="curve"/>
      <point x="401" y="525"/>
      <point x="388" y="522"/>
      <point x="380" y="515" type="curve"/>
      <point x="401" y="483"/>
      <point x="421" y="382"/>
      <point x="421" y="280" type="curve"/>
      <point x="421" y="182"/>
      <point x="405" y="31"/>
      <point x="312" y="31" type="curve"/>
      <point x="258" y="31"/>
      <point x="227" y="80"/>
      <point x="227" y="168" type="curve"/>
      <point x="227" y="241"/>
      <point x="243" y="331"/>
      <point x="243" y="382" type="curve"/>
      <point x="243" y="491"/>
      <point x="189" y="528"/>
      <point x="130" y="528" type="curve"/>
      <point x="73" y="528"/>
      <point x="35" y="494"/>
      <point x="35" y="443" type="curve"/>
      <point x="35" y="431"/>
      <point x="38" y="417"/>
      <point x="45" y="407" type="curve"/>
      <point x="55" y="413"/>
      <point x="67" y="417"/>
      <point x="81" y="417" type="curve"/>
      <point x="109" y="417"/>
      <point x="113" y="397"/>
      <point x="113" y="373" type="curve"/>
      <point x="113" y="322"/>
      <point x="97" y="259"/>
      <point x="97" y="191" type="curve"/>
      <point x="97" y="80"/>
      <point x="172" y="-15"/>
    </contour>
    <contour>
      <point x="313" y="520" type="move" name="top"/>
    </contour>
  </outline>
</glyph>
<glyph name="phi" format="1">
  <advance width="772"/>
  <unicode hex="03C6"/>
  <outline>
    <contour>
      <point x="388" y="33" type="curve"/>
      <point x="397" y="-15" type="line"/>
      <point x="614" y="-15"/>
      <point x="732" y="131"/>
      <point x="732" y="295" type="curve"/>
      <point x="732" y="441"/>
      <point x="627" y="531"/>
      <point x="516" y="531" type="curve"/>
      <point x="406" y="531"/>
      <point x="317" y="460"/>
      <point x="317" y="258" type="curve"/>
      <point x="317" y="64" type="line" smooth="yes"/>
      <point x="317" y="-111"/>
      <point x="307" y="-224"/>
      <point x="405" y="-224" type="curve"/>
      <point x="432" y="-224"/>
      <point x="462" y="-216"/>
      <point x="483" y="-189" type="curve"/>
      <point x="458" y="-152"/>
      <point x="437" y="-80"/>
      <point x="437" y="48" type="curve"/>
      <point x="437" y="327" type="line" smooth="yes"/>
      <point x="437" y="436"/>
      <point x="467" y="479"/>
      <point x="509" y="479" type="curve"/>
      <point x="562" y="479"/>
      <point x="596" y="401"/>
      <point x="596" y="301" type="curve"/>
      <point x="596" y="151"/>
      <point x="527" y="33"/>
    </contour>
    <contour>
      <point x="356" y="-15" type="curve"/>
      <point x="360" y="31" type="line"/>
      <point x="212" y="31"/>
      <point x="174" y="156"/>
      <point x="174" y="268" type="curve"/>
      <point x="174" y="308"/>
      <point x="187" y="409"/>
      <point x="248" y="439" type="curve"/>
      <point x="241" y="500"/>
      <point x="211" y="528"/>
      <point x="172" y="528" type="curve"/>
      <point x="86" y="528"/>
      <point x="40" y="412"/>
      <point x="40" y="295" type="curve"/>
      <point x="40" y="109"/>
      <point x="135" y="-15"/>
    </contour>
  </outline>
</glyph>
<glyph name="chi" format="1">
  <advance width="573"/>
  <unicode hex="03C7"/>
  <outline>
    <contour>
      <point x="496" y="-224" type="curve"/>
      <point x="532" y="-224"/>
      <point x="583" y="-198"/>
      <point x="583" y="-139" type="curve"/>
      <point x="583" y="-126"/>
      <point x="575" y="-101"/>
      <point x="566" y="-92" type="curve"/>
      <point x="558" y="-99"/>
      <point x="547" y="-108"/>
      <point x="532" y="-108" type="curve"/>
      <point x="513" y="-108"/>
      <point x="489" y="-99"/>
      <point x="449" y="-32" type="curve"/>
      <point x="305" y="211" type="line"/>
      <point x="255" y="160" type="line"/>
      <point x="368" y="-98" type="line" smooth="yes"/>
      <point x="408" y="-190"/>
      <point x="440" y="-224"/>
    </contour>
    <contour>
      <point x="93" y="-224" type="curve"/>
      <point x="164" y="-224"/>
      <point x="223" y="-80"/>
      <point x="272" y="57" type="curve"/>
      <point x="298" y="129" type="line"/>
      <point x="264" y="216" type="line"/>
      <point x="221" y="139" type="line" smooth="yes"/>
      <point x="162" y="34"/>
      <point x="55" y="-126"/>
      <point x="0" y="-126" type="curve"/>
      <point x="1" y="-169"/>
      <point x="30" y="-224"/>
    </contour>
    <contour>
      <point x="140" y="329" type="curve"/>
      <point x="251" y="158" type="line"/>
      <point x="310" y="200" type="line"/>
      <point x="210" y="418" type="line" smooth="yes"/>
      <point x="176" y="492"/>
      <point x="144" y="527"/>
      <point x="93" y="527" type="curve"/>
      <point x="44" y="527"/>
      <point x="5" y="488"/>
      <point x="5" y="445" type="curve"/>
      <point x="5" y="422"/>
      <point x="17" y="399"/>
      <point x="22" y="395" type="curve"/>
      <point x="29" y="401"/>
      <point x="41" y="411"/>
      <point x="55" y="411" type="curve"/>
      <point x="85" y="411"/>
      <point x="103" y="387"/>
    </contour>
    <contour>
      <point x="277" y="231" type="line"/>
      <point x="316" y="151" type="line"/>
      <point x="372" y="240" type="line" smooth="yes"/>
      <point x="426" y="326"/>
      <point x="511" y="430"/>
      <point x="554" y="434" type="curve"/>
      <point x="552" y="477"/>
      <point x="519" y="532"/>
      <point x="456" y="532" type="curve"/>
      <point x="395" y="532"/>
      <point x="346" y="416"/>
      <point x="307" y="311" type="curve"/>
    </contour>
  </outline>
</glyph>
<glyph name="psi" format="1">
  <advance width="826"/>
  <unicode hex="03C8"/>
  <outline>
    <contour>
      <point x="374" y="-15" type="curve"/>
      <point x="374" y="31" type="line"/>
      <point x="290" y="31"/>
      <point x="220" y="86"/>
      <point x="220" y="204" type="curve"/>
      <point x="220" y="271"/>
      <point x="234" y="331"/>
      <point x="234" y="382" type="curve"/>
      <point x="234" y="491"/>
      <point x="189" y="528"/>
      <point x="127" y="528" type="curve"/>
      <point x="73" y="528"/>
      <point x="35" y="494"/>
      <point x="35" y="443" type="curve"/>
      <point x="35" y="431"/>
      <point x="38" y="417"/>
      <point x="45" y="407" type="curve"/>
      <point x="55" y="413"/>
      <point x="67" y="417"/>
      <point x="81" y="417" type="curve"/>
      <point x="109" y="417"/>
      <point x="113" y="397"/>
      <point x="113" y="373" type="curve"/>
      <point x="113" y="322"/>
      <point x="97" y="259"/>
      <point x="97" y="191" type="curve"/>
      <point x="97" y="80"/>
      <point x="176" y="-15"/>
    </contour>
    <contour>
      <point x="433" y="-222" type="curve"/>
      <point x="459" y="-222"/>
      <point x="483" y="-210"/>
      <point x="495" y="-194" type="curve"/>
      <point x="481" y="-152"/>
      <point x="481" y="-80"/>
      <point x="481" y="103" type="curve"/>
      <point x="481" y="627" type="line" smooth="yes"/>
      <point x="481" y="711"/>
      <point x="449" y="735"/>
      <point x="414" y="735" type="curve"/>
      <point x="389" y="735"/>
      <point x="367" y="724"/>
      <point x="354" y="707" type="curve"/>
      <point x="362" y="679"/>
      <point x="368" y="650"/>
      <point x="368" y="590" type="curve"/>
      <point x="368" y="-95" type="line" smooth="yes"/>
      <point x="368" y="-165"/>
      <point x="380" y="-222"/>
    </contour>
    <contour>
      <point x="461" y="31" type="curve"/>
      <point x="475" y="-15" type="line"/>
      <point x="696" y="-15"/>
      <point x="781" y="106"/>
      <point x="781" y="274" type="curve"/>
      <point x="781" y="439"/>
      <point x="683" y="525"/>
      <point x="622" y="525" type="curve"/>
      <point x="611" y="525"/>
      <point x="598" y="522"/>
      <point x="590" y="515" type="curve"/>
      <point x="617" y="483"/>
      <point x="645" y="374"/>
      <point x="645" y="279" type="curve"/>
      <point x="645" y="160"/>
      <point x="609" y="31"/>
    </contour>
  </outline>
</glyph>
<glyph name="omega" format="1">
  <advance width="860"/>
  <unicode hex="03C9"/>
  <outline>
    <contour>
      <point x="259" y="-15" type="curve"/>
      <point x="344" y="-15"/>
      <point x="411" y="39"/>
      <point x="456" y="144" type="curve"/>
      <point x="397" y="160" type="line"/>
      <point x="432" y="39"/>
      <point x="497" y="-15"/>
      <point x="587" y="-15" type="curve"/>
      <point x="723" y="-15"/>
      <point x="815" y="87"/>
      <point x="815" y="237" type="curve"/>
      <point x="815" y="420"/>
      <point x="673" y="529"/>
      <point x="584" y="529" type="curve"/>
      <point x="558" y="529"/>
      <point x="534" y="521"/>
      <point x="515" y="505" type="curve"/>
      <point x="604" y="469"/>
      <point x="670" y="346"/>
      <point x="670" y="215" type="curve"/>
      <point x="670" y="121"/>
      <point x="639" y="33"/>
      <point x="578" y="33" type="curve"/>
      <point x="520" y="33"/>
      <point x="485" y="115"/>
      <point x="477" y="191" type="curve"/>
      <point x="383" y="194" type="line"/>
      <point x="381" y="126"/>
      <point x="340" y="33"/>
      <point x="274" y="33" type="curve"/>
      <point x="221" y="33"/>
      <point x="185" y="112"/>
      <point x="185" y="215" type="curve"/>
      <point x="185" y="331"/>
      <point x="241" y="439"/>
      <point x="323" y="439" type="curve"/>
      <point x="316" y="500"/>
      <point x="286" y="528"/>
      <point x="238" y="528" type="curve"/>
      <point x="152" y="528"/>
      <point x="45" y="418"/>
      <point x="45" y="248" type="curve"/>
      <point x="45" y="65"/>
      <point x="140" y="-15"/>
    </contour>
    <contour>
      <point x="396" y="149" type="curve"/>
      <point x="464" y="149" type="line"/>
      <point x="482" y="191"/>
      <point x="504" y="274"/>
      <point x="520" y="326" type="curve"/>
      <point x="485" y="364"/>
      <point x="456" y="374"/>
      <point x="428" y="374" type="curve"/>
      <point x="384" y="374"/>
      <point x="361" y="346"/>
      <point x="361" y="300" type="curve"/>
      <point x="361" y="270"/>
      <point x="369" y="226"/>
    </contour>
    <contour>
      <point x="420" y="520" type="move" name="top"/>
    </contour>
  </outline>
</glyph>
<glyph name="KaiSymbol" format="1">
  <advance width="621"/>
  <unicode hex="03CF"/>
  <outline>
    <contour>
      <point x="605" y="57" type="curve"/>
      <point x="449" y="57" type="line"/>
      <point x="449" y="-67"/>
      <point x="351" y="-136"/>
      <point x="218" y="-136" type="curve"/>
      <point x="150" y="-136"/>
      <point x="88" y="-119"/>
      <point x="61" y="-62" type="curve"/>
      <point x="50" y="-70"/>
      <point x="45" y="-83"/>
      <point x="45" y="-98" type="curve"/>
      <point x="45" y="-182"/>
      <point x="137" y="-224"/>
      <point x="236" y="-224" type="curve"/>
      <point x="450" y="-224"/>
      <point x="605" y="-83"/>
    </contour>
    <component base="Kappa"/>
  </outline>
</glyph>
<glyph name="kaiSymbol" format="1">
  <advance width="593"/>
  <unicode hex="03D7"/>
  <outline>
    <contour>
      <point x="563" y="65" type="curve"/>
      <point x="439" y="65" type="line"/>
      <point x="439" y="-67"/>
      <point x="360" y="-136"/>
      <point x="226" y="-136" type="curve"/>
      <point x="150" y="-136"/>
      <point x="88" y="-119"/>
      <point x="61" y="-62" type="curve"/>
      <point x="50" y="-70"/>
      <point x="45" y="-83"/>
      <point x="45" y="-98" type="curve"/>
      <point x="45" y="-182"/>
      <point x="137" y="-224"/>
      <point x="252" y="-224" type="curve"/>
      <point x="450" y="-224"/>
      <point x="563" y="-94"/>
    </contour>
    <component base="kappa"/>
  </outline>
</glyph>
<glyph name="acircumflexgrave" format="1">
  <advance width="568"/>
  <unicode hex="1EA7"/>
  <outline>
    <contour>
      <point x="150" y="554" type="curve"/>
      <point x="269" y="635" type="line"/>
      <point x="386" y="554" type="line"/>
      <point x="397" y="554"/>
      <point x="420" y="564"/>
      <point x="421" y="570" type="curve"/>
      <point x="303" y="714" type="line"/>
      <point x="291" y="720"/>
      <point x="246" y="720"/>
      <point x="234" y="714" type="curve"/>
      <point x="116" y="570" type="line"/>
      <point x="117" y="564"/>
      <point x="139" y="555"/>
    </contour>
    <contour>
      <point x="298" y="825" type="curve"/>
      <point x="428" y="700" type="line"/>
      <point x="445" y="701"/>
      <point x="468" y="704"/>
      <point x="476" y="709" type="curve"/>
      <point x="394" y="849" type="line"/>
      <point x="364" y="855"/>
      <point x="309" y="835"/>
    </contour>
    <component base="a"/>
  </outline>
</glyph>
<glyph name="acircumflexhookabove" format="1">
  <advance width="568"/>
  <unicode hex="1EA9"/>
  <outline>
    <contour>
      <point x="150" y="554" type="curve"/>
      <point x="269" y="635" type="line"/>
      <point x="386" y="554" type="line"/>
      <point x="397" y="554"/>
      <point x="420" y="564"/>
      <point x="421" y="570" type="curve"/>
      <point x="303" y="714" type="line"/>
      <point x="291" y="720"/>
      <point x="246" y="720"/>
      <point x="234" y="714" type="curve"/>
      <point x="116" y="570" type="line"/>
      <point x="117" y="564"/>
      <point x="139" y="555"/>
    </contour>
    <component base="a"/>
    <component base="hookabovecomb" xOffset="208" yOffset="65"/>
  </outline>
</glyph>
<glyph name="ecircumflexgrave" format="1">
  <advance width="535"/>
  <unicode hex="1EC1"/>
  <outline>
    <contour>
      <point x="153" y="553" type="curve"/>
      <point x="272" y="635" type="line"/>
      <point x="389" y="553" type="line"/>
      <point x="400" y="553"/>
      <point x="423" y="564"/>
      <point x="424" y="569" type="curve"/>
      <point x="306" y="714" type="line"/>
      <point x="294" y="720"/>
      <point x="249" y="719"/>
      <point x="237" y="714" type="curve"/>
      <point x="119" y="569" type="line"/>
      <point x="120" y="564"/>
      <point x="142" y="554"/>
    </contour>
    <contour>
      <point x="282" y="807" type="curve"/>
      <point x="412" y="681" type="line"/>
      <point x="429" y="682"/>
      <point x="452" y="686"/>
      <point x="460" y="691" type="curve"/>
      <point x="378" y="831" type="line"/>
      <point x="348" y="836"/>
      <point x="293" y="817"/>
    </contour>
    <component base="e"/>
  </outline>
</glyph>
<glyph name="ecircumflexhookabove" format="1">
  <advance width="535"/>
  <unicode hex="1EC3"/>
  <outline>
    <contour>
      <point x="153" y="553" type="curve"/>
      <point x="272" y="635" type="line"/>
      <point x="389" y="553" type="line"/>
      <point x="400" y="553"/>
      <point x="423" y="564"/>
      <point x="424" y="569" type="curve"/>
      <point x="306" y="714" type="line"/>
      <point x="294" y="720"/>
      <point x="249" y="719"/>
      <point x="237" y="714" type="curve"/>
      <point x="119" y="569" type="line"/>
      <point x="120" y="564"/>
      <point x="142" y="554"/>
    </contour>
    <component base="e"/>
    <component base="hookabovecomb" xOffset="211" yOffset="62"/>
  </outline>
</glyph>
<glyph name="ocircumflexgrave" format="1">
  <advance width="562"/>
  <unicode hex="1ED3"/>
  <outline>
    <contour>
      <point x="153" y="552" type="curve"/>
      <point x="272" y="634" type="line"/>
      <point x="389" y="552" type="line"/>
      <point x="400" y="552"/>
      <point x="423" y="563"/>
      <point x="424" y="568" type="curve"/>
      <point x="306" y="713" type="line"/>
      <point x="294" y="719"/>
      <point x="249" y="718"/>
      <point x="237" y="713" type="curve"/>
      <point x="119" y="568" type="line"/>
      <point x="120" y="563"/>
      <point x="142" y="553"/>
    </contour>
    <contour>
      <point x="295" y="808" type="curve"/>
      <point x="425" y="682" type="line"/>
      <point x="442" y="683"/>
      <point x="465" y="687"/>
      <point x="473" y="691" type="curve"/>
      <point x="391" y="832" type="line"/>
      <point x="361" y="837"/>
      <point x="306" y="818"/>
    </contour>
    <component base="o"/>
  </outline>
</glyph>
<glyph name="ocircumflexhookabove" format="1">
  <advance width="562"/>
  <unicode hex="1ED5"/>
  <outline>
    <contour>
      <point x="157" y="552" type="curve"/>
      <point x="276" y="634" type="line"/>
      <point x="393" y="552" type="line"/>
      <point x="404" y="552"/>
      <point x="427" y="563"/>
      <point x="428" y="568" type="curve"/>
      <point x="310" y="713" type="line"/>
      <point x="298" y="719"/>
      <point x="253" y="718"/>
      <point x="241" y="713" type="curve"/>
      <point x="123" y="568" type="line"/>
      <point x="124" y="563"/>
      <point x="146" y="553"/>
    </contour>
    <component base="o"/>
    <component base="hookabovecomb" xOffset="214" yOffset="62"/>
  </outline>
</glyph>
